<svg width="20" height="20" viewBox="0 0 20 20" fill="none" xmlns="http://www.w3.org/2000/svg">
<path d="M11.7766 19.0938H8.94673C8.77305 19.0938 8.60549 19.0295 8.47636 18.9134C8.34723 18.7972 8.26565 18.6374 8.24736 18.4647L8.03783 16.4917C7.74532 16.3922 7.45957 16.2738 7.18236 16.1373L5.64064 17.3842C5.5057 17.4929 5.3354 17.5479 5.16238 17.5388C4.98937 17.5296 4.82583 17.4569 4.70314 17.3345L2.70204 15.3334C2.57971 15.2107 2.50699 15.0472 2.49782 14.8742C2.48865 14.7012 2.54368 14.5309 2.65236 14.3959L3.8997 12.8523C3.76301 12.5752 3.64448 12.2894 3.54486 11.9969L1.56861 11.7859C1.39597 11.7677 1.2362 11.6861 1.12006 11.5571C1.00392 11.4281 0.939621 11.2606 0.939545 11.087V8.25672C0.939621 8.08312 1.00392 7.91568 1.12006 7.78664C1.2362 7.65761 1.39597 7.5761 1.56861 7.55781L3.54158 7.34828C3.6412 7.05574 3.75973 6.76998 3.89642 6.49281L2.64908 4.94922C2.5404 4.81429 2.48537 4.64398 2.49454 4.47096C2.50371 4.29795 2.57643 4.13441 2.69876 4.01172L4.69986 2.01063C4.82255 1.88829 4.98609 1.81557 5.1591 1.8064C5.33211 1.79723 5.50242 1.85226 5.63736 1.96094L7.18095 3.20781C7.45816 3.07136 7.74392 2.95299 8.03642 2.85344L8.24595 0.88047C8.26395 0.707256 8.34558 0.546883 8.47504 0.430409C8.60451 0.313936 8.77259 0.24965 8.94673 0.250001H11.7766C11.9503 0.249962 12.1178 0.314207 12.2469 0.430358C12.3761 0.546509 12.4577 0.706345 12.476 0.879064L12.685 2.85203C12.9777 2.95158 13.2636 3.06995 13.541 3.20641L15.0841 1.95953C15.219 1.85085 15.3893 1.79582 15.5623 1.80499C15.7353 1.81416 15.8989 1.88689 16.0216 2.00922L18.0227 4.01031C18.145 4.133 18.2177 4.29654 18.2269 4.46956C18.2361 4.64257 18.181 4.81288 18.0724 4.94781L16.825 6.49141C16.9615 6.76866 17.08 7.05441 17.1799 7.34688L19.1528 7.55641C19.3254 7.5748 19.485 7.65636 19.6011 7.78538C19.7171 7.9144 19.7814 8.08178 19.7814 8.25531V11.0856C19.7818 11.2591 19.7179 11.4266 19.6022 11.5559C19.4866 11.6851 19.3272 11.7671 19.1547 11.7859L17.1817 11.9955C17.0819 12.2879 16.9634 12.5737 16.8269 12.8509L18.0742 14.3945C18.1829 14.5295 18.2379 14.6998 18.2288 14.8728C18.2196 15.0458 18.1469 15.2093 18.0245 15.332L16.0235 17.3345C15.9008 17.4569 15.7372 17.5296 15.5642 17.5388C15.3912 17.5479 15.2209 17.4929 15.086 17.3842L13.5428 16.1373C13.2655 16.2738 12.9795 16.3922 12.6869 16.4917L12.4778 18.4647C12.4595 18.6377 12.3777 18.7978 12.2481 18.914C12.1186 19.0302 11.9506 19.0943 11.7766 19.0938ZM9.57814 17.6875H11.1433L11.335 15.88C11.3501 15.7385 11.4077 15.6049 11.5002 15.4969C11.5928 15.3888 11.716 15.3114 11.8535 15.2748C12.3487 15.1428 12.8242 14.9453 13.2672 14.6875C13.3906 14.6156 13.5329 14.583 13.6752 14.594C13.8176 14.6049 13.9532 14.659 14.0641 14.7489L15.4778 15.8913L16.5845 14.7845L15.4403 13.375C15.3504 13.2641 15.2964 13.1285 15.2854 12.9861C15.2744 12.8438 15.307 12.7015 15.3789 12.5781C15.6361 12.1354 15.833 11.6602 15.9644 11.1653C16.001 11.0278 16.0785 10.9045 16.1866 10.812C16.2948 10.7194 16.4285 10.6618 16.57 10.6469L18.377 10.4547V8.88953L16.57 8.69735C16.4285 8.68239 16.2948 8.62482 16.1866 8.53225C16.0785 8.43968 16.001 8.31647 15.9644 8.17891C15.8331 7.68383 15.6362 7.20853 15.3789 6.76563C15.307 6.64227 15.2744 6.49996 15.2854 6.35762C15.2964 6.21527 15.3504 6.07964 15.4403 5.96875L16.5827 4.555L15.476 3.44828L14.0622 4.59063C13.9513 4.68055 13.8157 4.73459 13.6733 4.74556C13.531 4.75653 13.3887 4.72391 13.2653 4.65203C12.8225 4.39501 12.3474 4.19812 11.8525 4.06656C11.715 4.02999 11.5919 3.95257 11.4993 3.84452C11.4067 3.73647 11.3491 3.60289 11.3341 3.46141L11.1442 1.65625H9.57814L9.38642 3.46375C9.37135 3.60529 9.31367 3.73892 9.22101 3.84697C9.12836 3.95503 9.00509 4.03242 8.86751 4.06891C8.37302 4.20106 7.89837 4.39858 7.45611 4.65625C7.33275 4.72813 7.19044 4.76075 7.0481 4.74978C6.90575 4.73881 6.77012 4.68477 6.65923 4.59485L5.24689 3.45063L4.14064 4.55735L5.28345 5.9711C5.3733 6.08203 5.42726 6.21769 5.43815 6.36003C5.44903 6.50238 5.41633 6.64466 5.34439 6.76797C5.08757 7.21092 4.89069 7.68601 4.75892 8.18078C4.72235 8.31828 4.64492 8.44144 4.53687 8.53401C4.42883 8.62657 4.29524 8.68418 4.15376 8.69922L2.34626 8.89141V10.4561L4.15376 10.6483C4.29524 10.6633 4.42883 10.7209 4.53687 10.8135C4.64492 10.9061 4.72235 11.0292 4.75892 11.1667C4.89066 11.661 5.08738 12.1356 5.34392 12.5781C5.41586 12.7014 5.44856 12.8437 5.43768 12.9861C5.42679 13.1284 5.37284 13.2641 5.28298 13.375L4.14064 14.7864L5.24736 15.8931L6.66158 14.7508C6.77246 14.6609 6.9081 14.6068 7.05044 14.5958C7.19279 14.5849 7.3351 14.6175 7.45845 14.6894C7.9011 14.9465 8.37607 15.1434 8.8708 15.2748C9.00838 15.3113 9.13164 15.3887 9.22429 15.4968C9.31695 15.6048 9.37463 15.7385 9.3897 15.88L9.57814 17.6875Z" fill="#C5C5C5"/>
<path d="M10.3614 13.9542C9.51443 13.9541 8.6865 13.7028 7.98231 13.2322C7.27812 12.7616 6.72929 12.0927 6.40523 11.3102C6.08117 10.5276 5.99643 9.66659 6.16172 8.8359C6.32702 8.00521 6.73492 7.24218 7.33386 6.64331C7.9328 6.04444 8.69587 5.63662 9.52658 5.47141C10.3573 5.30621 11.2183 5.39105 12.0008 5.71519C12.7833 6.03934 13.4521 6.58824 13.9227 7.29248C14.3932 7.99672 14.6444 8.82468 14.6444 9.67166C14.6431 10.8072 14.1915 11.8958 13.3885 12.6986C12.5856 13.5015 11.4969 13.953 10.3614 13.9542ZM10.3614 6.79541C9.79256 6.7955 9.23651 6.96427 8.76358 7.28038C8.29064 7.59648 7.92206 8.04572 7.70444 8.57129C7.48681 9.09687 7.42992 9.67517 7.54095 10.2331C7.65199 10.791 7.92596 11.3034 8.32823 11.7056C8.7305 12.1078 9.243 12.3817 9.80092 12.4927C10.3588 12.6036 10.9371 12.5466 11.4627 12.3289C11.9882 12.1112 12.4374 11.7426 12.7534 11.2696C13.0695 10.7966 13.2381 10.2405 13.2381 9.67166C13.2373 8.90902 12.9339 8.17787 12.3946 7.63864C11.8553 7.09941 11.1241 6.79616 10.3614 6.79541Z" fill="#C5C5C5"/>
</svg>
