<svg width="24" height="24" viewBox="0 0 24 24" fill="none" xmlns="http://www.w3.org/2000/svg">
<g clip-path="url(#clip0_2182_1961)">
<path d="M12.5 14.125C13.3975 14.125 14.125 13.3975 14.125 12.5C14.125 11.6025 13.3975 10.875 12.5 10.875C11.6025 10.875 10.875 11.6025 10.875 12.5C10.875 13.3975 11.6025 14.125 12.5 14.125Z" fill="black"/>
<path d="M18.5 14.125C19.3975 14.125 20.125 13.3975 20.125 12.5C20.125 11.6025 19.3975 10.875 18.5 10.875C17.6025 10.875 16.875 11.6025 16.875 12.5C16.875 13.3975 17.6025 14.125 18.5 14.125Z" fill="black"/>
<path d="M6.5 14.125C7.39746 14.125 8.125 13.3975 8.125 12.5C8.125 11.6025 7.39746 10.875 6.5 10.875C5.60254 10.875 4.875 11.6025 4.875 12.5C4.875 13.3975 5.60254 14.125 6.5 14.125Z" fill="black"/>
</g>
<defs>
<clipPath id="clip0_2182_1961">
<rect width="24" height="24" fill="white"/>
</clipPath>
</defs>
</svg>
