<svg width="24" height="24" viewBox="0 0 24 24" fill="none" xmlns="http://www.w3.org/2000/svg">
<path d="M1.49967 21.7501C1.39384 21.7508 1.28906 21.729 1.19224 21.6863C1.09542 21.6435 1.00874 21.5808 0.937896 21.5021C0.867056 21.4235 0.81366 21.3308 0.781219 21.23C0.748778 21.1293 0.738026 21.0228 0.74967 20.9176L1.32717 15.6676C1.34773 15.4998 1.42437 15.3439 1.54467 15.2251L13.8147 2.95513C14.0376 2.73176 14.3024 2.55455 14.5939 2.43364C14.8854 2.31273 15.1978 2.25049 15.5134 2.25049C15.829 2.25049 16.1415 2.31273 16.433 2.43364C16.7245 2.55455 16.9893 2.73176 17.2122 2.95513L19.5447 5.28763C19.768 5.51055 19.9453 5.77534 20.0662 6.06683C20.1871 6.35832 20.2493 6.6708 20.2493 6.98638C20.2493 7.30195 20.1871 7.61443 20.0662 7.90592C19.9453 8.19742 19.768 8.4622 19.5447 8.68513L7.28217 20.9476C7.1634 21.0679 7.00747 21.1446 6.83967 21.1651L1.58967 21.7426L1.49967 21.7501ZM2.79717 16.0876L2.34717 20.1526L6.41217 19.7026L18.4872 7.62763C18.5711 7.54401 18.6377 7.44466 18.6831 7.33526C18.7285 7.22587 18.7519 7.10858 18.7519 6.99013C18.7519 6.87167 18.7285 6.75439 18.6831 6.64499C18.6377 6.53559 18.5711 6.43624 18.4872 6.35263L16.1472 4.01263C16.0636 3.92872 15.9642 3.86215 15.8548 3.81673C15.7454 3.7713 15.6281 3.74792 15.5097 3.74792C15.3912 3.74792 15.2739 3.7713 15.1645 3.81673C15.0551 3.86215 14.9558 3.92872 14.8722 4.01263L2.79717 16.0876Z" fill="#0E101F"/>
<path d="M17.2494 10.6575C17.1507 10.6581 17.0529 10.6392 16.9615 10.6018C16.8701 10.5645 16.787 10.5095 16.7169 10.44L12.0594 5.7675C11.9895 5.69757 11.934 5.61456 11.8962 5.52319C11.8583 5.43182 11.8389 5.3339 11.8389 5.235C11.8389 5.13611 11.8583 5.03818 11.8962 4.94682C11.934 4.85545 11.9895 4.77243 12.0594 4.7025C12.1294 4.63257 12.2124 4.5771 12.3037 4.53926C12.3951 4.50141 12.493 4.48193 12.5919 4.48193C12.6908 4.48193 12.7888 4.50141 12.8801 4.53926C12.9715 4.5771 13.0545 4.63257 13.1244 4.7025L17.7969 9.375C17.8672 9.44473 17.923 9.52768 17.9611 9.61907C17.9992 9.71046 18.0188 9.80849 18.0188 9.9075C18.0188 10.0065 17.9992 10.1045 17.9611 10.1959C17.923 10.2873 17.8672 10.3703 17.7969 10.44C17.7251 10.5113 17.6395 10.5674 17.5454 10.6048C17.4513 10.6421 17.3507 10.6601 17.2494 10.6575Z" fill="#0E101F"/>
<path d="M12.0635 9.37786L6.22461 15.2168L7.28527 16.2775L13.1242 10.4385L12.0635 9.37786Z" fill="#0E101F"/>
<path d="M22.5 21.75H10.5C10.3011 21.75 10.1103 21.671 9.96967 21.5303C9.82902 21.3897 9.75 21.1989 9.75 21C9.75 20.8011 9.82902 20.6103 9.96967 20.4697C10.1103 20.329 10.3011 20.25 10.5 20.25H22.5C22.6989 20.25 22.8897 20.329 23.0303 20.4697C23.171 20.6103 23.25 20.8011 23.25 21C23.25 21.1989 23.171 21.3897 23.0303 21.5303C22.8897 21.671 22.6989 21.75 22.5 21.75Z" fill="#0E101F"/>
</svg>
