<svg width="24" height="24" viewBox="0 0 24 24" fill="none" xmlns="http://www.w3.org/2000/svg">
<path d="M16 21.3212V21.9879H16.6667V21.3212H16ZM2.66667 21.3212H2V21.9879H2.66667V21.3212ZM21.3333 21.3333V22H22V21.3333H21.3333ZM12.6667 6.66405C12.6667 8.50335 11.1749 9.99479 9.33333 9.99479V11.3281C11.9104 11.3281 14 9.24055 14 6.66405H12.6667ZM9.33333 9.99479C7.49177 9.99479 6 8.50335 6 6.66405H4.66667C4.66667 9.24055 6.75623 11.3281 9.33333 11.3281V9.99479ZM6 6.66405C6 4.82476 7.49177 3.33333 9.33333 3.33333V2C6.75623 2 4.66667 4.08756 4.66667 6.66405H6ZM9.33333 3.33333C11.1749 3.33333 12.6667 4.82476 12.6667 6.66405H14C14 4.08756 11.9104 2 9.33333 2V3.33333ZM16 20.6545H2.66667V21.9879H16V20.6545ZM3.33333 21.3212C3.33333 21.3193 3.33333 21.3175 3.33333 21.3156C3.33333 21.3137 3.33333 21.3119 3.33333 21.3101C3.33333 21.3083 3.33333 21.3064 3.33333 21.3045C3.33333 21.3027 3.33333 21.3008 3.33333 21.2989C3.33333 21.2972 3.33333 21.2953 3.33333 21.2935C3.33333 21.2916 3.33333 21.2897 3.33333 21.2879C3.33333 21.286 3.33333 21.2843 3.33333 21.2824C3.33333 21.2805 3.33333 21.2787 3.33333 21.2768C3.33333 21.2749 3.33333 21.2732 3.33333 21.2713C3.33333 21.2695 3.33333 21.2676 3.33333 21.2657C3.33333 21.2639 3.33333 21.262 3.33333 21.2603C3.33333 21.2584 3.33333 21.2565 3.33333 21.2547C3.33333 21.2528 3.33333 21.2509 3.33333 21.2492C3.33333 21.2473 3.33333 21.2455 3.33333 21.2436C3.33333 21.2417 3.33333 21.2399 3.33333 21.2381C3.33333 21.2363 3.33333 21.2344 3.33333 21.2325C3.33333 21.2307 3.33333 21.2289 3.33333 21.2271C3.33333 21.2252 3.33333 21.2233 3.33333 21.2215C3.33333 21.2196 3.33333 21.2179 3.33333 21.216C3.33333 21.2141 3.33333 21.2123 3.33333 21.2104C3.33333 21.2087 3.33333 21.2068 3.33333 21.2049C3.33333 21.2031 3.33333 21.2012 3.33333 21.1993C3.33333 21.1976 3.33333 21.1957 3.33333 21.1939C3.33333 21.192 3.33333 21.1901 3.33333 21.1884C3.33333 21.1865 3.33333 21.1847 3.33333 21.1828C3.33333 21.1809 3.33333 21.1792 3.33333 21.1773C3.33333 21.1755 3.33333 21.1736 3.33333 21.1717C3.33333 21.17 3.33333 21.1681 3.33333 21.1663C3.33333 21.1644 3.33333 21.1625 3.33333 21.1608C3.33333 21.1589 3.33333 21.1571 3.33333 21.1552C3.33333 21.1535 3.33333 21.1516 3.33333 21.1497C3.33333 21.1479 3.33333 21.146 3.33333 21.1443C3.33333 21.1424 3.33333 21.1405 3.33333 21.1387C3.33333 21.1368 3.33333 21.1351 3.33333 21.1332C3.33333 21.1313 3.33333 21.1295 3.33333 21.1277C3.33333 21.1259 3.33333 21.124 3.33333 21.1221C3.33333 21.1204 3.33333 21.1185 3.33333 21.1167C3.33333 21.1148 3.33333 21.1129 3.33333 21.1112C3.33333 21.1093 3.33333 21.1075 3.33333 21.1056C3.33333 21.1039 3.33333 21.102 3.33333 21.1001C3.33333 21.0983 3.33333 21.0965 3.33333 21.0947C3.33333 21.0928 3.33333 21.0909 3.33333 21.0892C3.33333 21.0873 3.33333 21.0855 3.33333 21.0836C3.33333 21.0819 3.33333 21.08 3.33333 21.0781C3.33333 21.0763 3.33333 21.0745 3.33333 21.0727C3.33333 21.0708 3.33333 21.0689 3.33333 21.0672C3.33333 21.0653 3.33333 21.0635 3.33333 21.0616C3.33333 21.0599 3.33333 21.058 3.33333 21.0561C3.33333 21.0543 3.33333 21.0525 3.33333 21.0507C3.33333 21.0488 3.33333 21.0469 3.33333 21.0452C3.33333 21.0433 3.33333 21.0415 3.33333 21.0397C3.33333 21.0379 3.33333 21.036 3.33333 21.0341C3.33333 21.0324 3.33333 21.0305 3.33333 21.0287C3.33333 21.0269 3.33333 21.0251 3.33333 21.0232C3.33333 21.0213 3.33333 21.0196 3.33333 21.0177C3.33333 21.0159 3.33333 21.014 3.33333 21.0123C3.33333 21.0104 3.33333 21.0085 3.33333 21.0068C3.33333 21.0049 3.33333 21.0031 3.33333 21.0012C3.33333 20.9995 3.33333 20.9976 3.33333 20.9957C3.33333 20.994 3.33333 20.9921 3.33333 20.9903C3.33333 20.9885 3.33333 20.9867 3.33333 20.9848C3.33333 20.9829 3.33333 20.9812 3.33333 20.9793C3.33333 20.9775 3.33333 20.9757 3.33333 20.9739C3.33333 20.972 3.33333 20.9703 3.33333 20.9684C3.33333 20.9665 3.33333 20.9648 3.33333 20.9629C3.33333 20.9611 3.33333 20.9592 3.33333 20.9575C3.33333 20.9556 3.33333 20.9537 3.33333 20.952C3.33333 20.9501 3.33333 20.9483 3.33333 20.9465C3.33333 20.9447 3.33333 20.9428 3.33333 20.9411C3.33333 20.9392 3.33333 20.9373 3.33333 20.9356C3.33333 20.9337 3.33333 20.9319 3.33333 20.9301C3.33333 20.9283 3.33333 20.9264 3.33333 20.9247C3.33333 20.9228 3.33333 20.9209 3.33333 20.9192C3.33333 20.9173 3.33333 20.9155 3.33333 20.9137C3.33333 20.9119 3.33333 20.91 3.33333 20.9083C3.33333 20.9064 3.33333 20.9045 3.33333 20.9028C3.33333 20.9009 3.33333 20.8991 3.33333 20.8973C3.33333 20.8955 3.33333 20.8936 3.33333 20.8919C3.33333 20.89 3.33333 20.8881 3.33333 20.8864C3.33333 20.8845 3.33333 20.8828 3.33333 20.8809C3.33333 20.8791 3.33333 20.8773 3.33333 20.8755C3.33333 20.8736 3.33333 20.8719 3.33333 20.87C3.33333 20.8681 3.33333 20.8664 3.33333 20.8645C3.33333 20.8628 3.33333 20.8609 3.33333 20.8591C3.33333 20.8573 3.33333 20.8555 3.33333 20.8536C3.33333 20.8519 3.33333 20.85 3.33333 20.8481C3.33333 20.8464 3.33333 20.8445 3.33333 20.8428C3.33333 20.8409 3.33333 20.8391 3.33333 20.8373C3.33333 20.8355 3.33333 20.8337 3.33333 20.8319C3.33333 20.83 3.33333 20.8283 3.33333 20.8264C3.33333 20.8245 3.33333 20.8228 3.33333 20.8209C3.33333 20.8192 3.33333 20.8173 3.33333 20.8155C3.33333 20.8137 3.33333 20.8119 3.33333 20.8101C3.33333 20.8083 3.33333 20.8064 3.33333 20.8047C3.33333 20.8028 3.33333 20.8011 3.33333 20.7992C3.33333 20.7973 3.33333 20.7956 3.33333 20.7937C3.33333 20.792 3.33333 20.7901 3.33333 20.7883C3.33333 20.7865 3.33333 20.7847 3.33333 20.7829C3.33333 20.7811 3.33333 20.7792 3.33333 20.7775C3.33333 20.7756 3.33333 20.7739 3.33333 20.772C3.33333 20.7703 3.33333 20.7684 3.33333 20.7665C3.33333 20.7648 3.33333 20.7629 3.33333 20.7612C3.33333 20.7593 3.33333 20.7575 3.33333 20.7557C3.33333 20.7539 3.33333 20.7521 3.33333 20.7503C3.33333 20.7485 3.33333 20.7467 3.33333 20.7448C3.33333 20.7431 3.33333 20.7412 3.33333 20.7395C3.33333 20.7376 3.33333 20.7359 3.33333 20.734C3.33333 20.7323 3.33333 20.7304 3.33333 20.7285C3.33333 20.7268 3.33333 20.7249 3.33333 20.7232C3.33333 20.7213 3.33333 20.7196 3.33333 20.7177C3.33333 20.716 3.33333 20.7141 3.33333 20.7123C3.33333 20.7105 3.33333 20.7087 3.33333 20.7069C3.33333 20.7051 3.33333 20.7033 3.33333 20.7015C3.33333 20.6997 3.33333 20.6979 3.33333 20.6961C3.33333 20.6943 3.33333 20.6924 3.33333 20.6907C3.33333 20.6888 3.33333 20.6871 3.33333 20.6852C3.33333 20.6835 3.33333 20.6816 3.33333 20.6799C3.33333 20.678 3.33333 20.6763 3.33333 20.6744C3.33333 20.6727 3.33333 20.6708 3.33333 20.6691C3.33333 20.6672 3.33333 20.6655 3.33333 20.6636C3.33333 20.6617 3.33333 20.66 3.33333 20.6581C3.33333 20.6564 3.33333 20.6545 3.33333 20.6528C3.33333 20.6509 3.33333 20.6492 3.33333 20.6473C3.33333 20.6456 3.33333 20.6437 3.33333 20.642C3.33333 20.6401 3.33333 20.6384 3.33333 20.6365C3.33333 20.6348 3.33333 20.6329 3.33333 20.6312C3.33333 20.6293 3.33333 20.6276 3.33333 20.6257C3.33333 20.624 3.33333 20.6221 3.33333 20.6204C3.33333 20.6185 3.33333 20.6168 3.33333 20.6149C3.33333 20.6132 3.33333 20.6113 3.33333 20.6096C3.33333 20.6077 3.33333 20.606 3.33333 20.6041C3.33333 20.6024 3.33333 20.6005 3.33333 20.5988C3.33333 20.5969 3.33333 20.5952 3.33333 20.5935C3.33333 20.5916 3.33333 20.5899 3.33333 20.588C3.33333 20.5863 3.33333 20.5844 3.33333 20.5827C3.33333 20.5808 3.33333 20.5791 3.33333 20.5772C3.33333 20.5755 3.33333 20.5736 3.33333 20.5719C3.33333 20.57 3.33333 20.5683 3.33333 20.5664C3.33333 20.5647 3.33333 20.5629 3.33333 20.5611C3.33333 20.5593 3.33333 20.5575 3.33333 20.5557C3.33333 20.5539 3.33333 20.5521 3.33333 20.5503C3.33333 20.5485 3.33333 20.5467 3.33333 20.5449C3.33333 20.5432 3.33333 20.5413 3.33333 20.5396C3.33333 20.5377 3.33333 20.536 3.33333 20.5341C3.33333 20.5324 3.33333 20.5305 3.33333 20.5288C3.33333 20.5271 3.33333 20.5252 3.33333 20.5235C3.33333 20.5216 3.33333 20.5199 3.33333 20.518C3.33333 20.5163 3.33333 20.5144 3.33333 20.5127C3.33333 20.5109 3.33333 20.5091 3.33333 20.5073C3.33333 20.5055 3.33333 20.5037 3.33333 20.5019C3.33333 20.5001 3.33333 20.4984 3.33333 20.4965C3.33333 20.4948 3.33333 20.4929 3.33333 20.4912C3.33333 20.4895 3.33333 20.4876 3.33333 20.4859C3.33333 20.484 3.33333 20.4823 3.33333 20.4804C3.33333 20.4787 3.33333 20.4769 3.33333 20.4751C3.33333 20.4733 3.33333 20.4715 3.33333 20.4697C3.33333 20.468 3.33333 20.4661 3.33333 20.4644C3.33333 20.4625 3.33333 20.4608 3.33333 20.4591C3.33333 20.4572 3.33333 20.4555 3.33333 20.4536C3.33333 20.4519 3.33333 20.4501 3.33333 20.4483C3.33333 20.4465 3.33333 20.4448 3.33333 20.4429C3.33333 20.4412 3.33333 20.4393 3.33333 20.4376C3.33333 20.4359 3.33333 20.434 3.33333 20.4323C3.33333 20.4304 3.33333 20.4287 3.33333 20.4269C3.33333 20.4251 3.33333 20.4233 3.33333 20.4216C3.33333 20.4197 3.33333 20.418 3.33333 20.4161C3.33333 20.4144 3.33333 20.4127 3.33333 20.4108C3.33333 20.4091 3.33333 20.4073 3.33333 20.4055C3.33333 20.4037 3.33333 20.402 3.33333 20.4001C3.33333 20.3984 3.33333 20.3965 3.33333 20.3948C3.33333 20.3931 3.33333 20.3912 3.33333 20.3895C3.33333 20.3877 3.33333 20.3859 3.33333 20.3841C3.33333 20.3824 3.33333 20.3805 3.33333 20.3788C3.33333 20.3771 3.33333 20.3752 3.33333 20.3735C3.33333 20.3717 3.33333 20.3699 3.33333 20.3681C3.33333 20.3663 3.33333 20.3645 3.33333 20.3628C3.33333 20.3609 3.33333 20.3592 3.33333 20.3575C3.33333 20.3556 3.33333 20.3539 3.33333 20.3521C3.33333 20.3503 3.33333 20.3485 3.33333 20.3468C3.33333 20.3451 3.33333 20.3432 3.33333 20.3415C3.33333 20.3397 3.33333 20.3379 3.33333 20.3361C3.33333 20.3344 3.33333 20.3325 3.33333 20.3308C3.33333 20.3291 3.33333 20.3272 3.33333 20.3255C3.33333 20.3237 3.33333 20.3219 3.33333 20.3201C3.33333 20.3184 3.33333 20.3165 3.33333 20.3148C3.33333 20.3131 3.33333 20.3113 3.33333 20.3095C3.33333 20.3077 3.33333 20.306 3.33333 20.3041C3.33333 20.3024 3.33333 20.3007 3.33333 20.2988C3.33333 20.2971 3.33333 20.2953 3.33333 20.2936C3.33333 20.2917 3.33333 20.29 3.33333 20.2883C3.33333 20.2864 3.33333 20.2847 3.33333 20.2829C3.33333 20.2812 3.33333 20.2793 3.33333 20.2776C3.33333 20.2759 3.33333 20.274 3.33333 20.2723C3.33333 20.2705 3.33333 20.2688 3.33333 20.2669C3.33333 20.2652 3.33333 20.2635 3.33333 20.2616C3.33333 20.2599 3.33333 20.2581 3.33333 20.2564C3.33333 20.2545 3.33333 20.2528 3.33333 20.2511C3.33333 20.2493 3.33333 20.2475 3.33333 20.2457C3.33333 20.244 3.33333 20.2423 3.33333 20.2404C3.33333 20.2387 3.33333 20.2369 3.33333 20.2352C3.33333 20.2333 3.33333 20.2316 3.33333 20.2299C3.33333 20.2281 3.33333 20.2263 3.33333 20.2245C3.33333 20.2228 3.33333 20.2211 3.33333 20.2192C3.33333 20.2175 3.33333 20.2157 3.33333 20.214C3.33333 20.2121 3.33333 20.2104 3.33333 20.2087C3.33333 20.2069 3.33333 20.2051 3.33333 20.2033C3.33333 20.2016 3.33333 20.1999 3.33333 20.198C3.33333 20.1963 3.33333 20.1945 3.33333 20.1928C3.33333 20.1911 3.33333 20.1892 3.33333 20.1875C3.33333 20.1857 3.33333 20.184 3.33333 20.1821C3.33333 20.1804 3.33333 20.1787 3.33333 20.1769C3.33333 20.1752 3.33333 20.1733 3.33333 20.1716C3.33333 20.1699 3.33333 20.1681 3.33333 20.1664C3.33333 20.1645 3.33333 20.1628 3.33333 20.1611C3.33333 20.1593 3.33333 20.1576 3.33333 20.1557C3.33333 20.154 3.33333 20.1523 3.33333 20.1505C3.33333 20.1488 3.33333 20.1469 3.33333 20.1452C3.33333 20.1435 3.33333 20.1417 3.33333 20.14C3.33333 20.1381 3.33333 20.1364 3.33333 20.1347C3.33333 20.1329 3.33333 20.1312 3.33333 20.1293C3.33333 20.1276 3.33333 20.1259 3.33333 20.1241C3.33333 20.1224 3.33333 20.1207 3.33333 20.1188C3.33333 20.1171 3.33333 20.1153 3.33333 20.1136C3.33333 20.1119 3.33333 20.1101 3.33333 20.1083C3.33333 20.1065 3.33333 20.1048 3.33333 20.1031C3.33333 20.1013 3.33333 20.0996 3.33333 20.0977C3.33333 20.096 3.33333 20.0943 3.33333 20.0925C3.33333 20.0908 3.33333 20.0891 3.33333 20.0872C3.33333 20.0855 3.33333 20.0837 3.33333 20.082C3.33333 20.0803 3.33333 20.0785 3.33333 20.0768C3.33333 20.0749 3.33333 20.0732 3.33333 20.0715C3.33333 20.0697 3.33333 20.068 3.33333 20.0663C3.33333 20.0645 3.33333 20.0627 3.33333 20.0609C3.33333 20.0592 3.33333 20.0575 3.33333 20.0557C3.33333 20.054 3.33333 20.0523 3.33333 20.0504C3.33333 20.0487 3.33333 20.0469 3.33333 20.0452C3.33333 20.0435 3.33333 20.0417 3.33333 20.04C3.33333 20.0383 3.33333 20.0364 3.33333 20.0347C3.33333 20.0329 3.33333 20.0312 3.33333 20.0295C3.33333 20.0277 3.33333 20.026 3.33333 20.0243C3.33333 20.0225 3.33333 20.0207 3.33333 20.0189C3.33333 20.0172 3.33333 20.0155 3.33333 20.0137C3.33333 20.012 3.33333 20.0103 3.33333 20.0085C3.33333 20.0068 3.33333 20.0051 3.33333 20.0032C3.33333 20.0015 3.33333 19.9997 3.33333 19.998C3.33333 19.9963 3.33333 19.9945 3.33333 19.9928C3.33333 19.9911 3.33333 19.9893 3.33333 19.9876C3.33333 19.9859 3.33333 19.984 3.33333 19.9823C3.33333 19.9805 3.33333 19.9788 3.33333 19.9771C3.33333 19.9753 3.33333 19.9736 3.33333 19.9719C3.33333 19.9701 3.33333 19.9684 3.33333 19.9667C3.33333 19.9649 3.33333 19.9632 3.33333 19.9615C3.33333 19.9596 3.33333 19.9579 3.33333 19.9561C3.33333 19.9544 3.33333 19.9527 3.33333 19.9509C3.33333 19.9492 3.33333 19.9475 3.33333 19.9457C3.33333 19.944 3.33333 19.9423 3.33333 19.9405C3.33333 19.9388 3.33333 19.9371 3.33333 19.9353C3.33333 19.9336 3.33333 19.9319 3.33333 19.9301C3.33333 19.9283 3.33333 19.9265 3.33333 19.9248C3.33333 19.9231 3.33333 19.9213 3.33333 19.9196C3.33333 19.9179 3.33333 19.9161 3.33333 19.9144C3.33333 19.9127 3.33333 19.9109 3.33333 19.9092C3.33333 19.9075 3.33333 19.9057 3.33333 19.904C3.33333 19.9023 3.33333 19.9005 3.33333 19.8988C3.33333 19.8971 3.33333 19.8953 3.33333 19.8936C3.33333 19.8919 3.33333 19.8901 3.33333 19.8884C3.33333 19.8867 3.33333 19.8849 3.33333 19.8832C3.33333 19.8815 3.33333 19.8797 3.33333 19.878C3.33333 19.8763 3.33333 19.8745 3.33333 19.8728C3.33333 19.8711 3.33333 19.8693 3.33333 19.8676C3.33333 19.8659 3.33333 19.8641 3.33333 19.8624C3.33333 19.8607 3.33333 19.8589 3.33333 19.8572C3.33333 19.8555 3.33333 19.8537 3.33333 19.852C3.33333 19.8503 3.33333 19.8485 3.33333 19.8468C3.33333 19.8451 3.33333 19.8433 3.33333 19.8416C3.33333 19.8399 3.33333 19.8381 3.33333 19.8364C3.33333 19.8347 3.33333 19.8329 3.33333 19.8312C3.33333 19.8295 3.33333 19.8277 3.33333 19.826C3.33333 19.8243 3.33333 19.8225 3.33333 19.8208C3.33333 19.8191 3.33333 19.8173 3.33333 19.8156C3.33333 19.8139 3.33333 19.8123 3.33333 19.8105C3.33333 19.8088 3.33333 19.8071 3.33333 19.8053C3.33333 19.8036 3.33333 19.8019 3.33333 19.8001C3.33333 19.7984 3.33333 19.7967 3.33333 19.7949C3.33333 19.7932 3.33333 19.7915 3.33333 19.7897C3.33333 19.788 3.33333 19.7863 3.33333 19.7845C3.33333 19.7828 3.33333 19.7812 3.33333 19.7795C3.33333 19.7777 3.33333 19.776 3.33333 19.7743C3.33333 19.7725 3.33333 19.7708 3.33333 19.7691C3.33333 19.7673 3.33333 19.7656 3.33333 19.7639C3.33333 19.7621 3.33333 19.7604 3.33333 19.7587C3.33333 19.7571 3.33333 19.7553 3.33333 19.7536C3.33333 19.7519 3.33333 19.7501 3.33333 19.7484C3.33333 19.7467 3.33333 19.7449 3.33333 19.7432C3.33333 19.7415 3.33333 19.7397 3.33333 19.7381C3.33333 19.7364 3.33333 19.7347 3.33333 19.7329C3.33333 19.7312 3.33333 19.7295 3.33333 19.7277C3.33333 19.726 3.33333 19.7243 3.33333 19.7227C3.33333 19.7209 3.33333 19.7192 3.33333 19.7175C3.33333 19.7157 3.33333 19.714 3.33333 19.7123C3.33333 19.7105 3.33333 19.7088 3.33333 19.7072C3.33333 19.7055 3.33333 19.7037 3.33333 19.702C3.33333 19.7003 3.33333 19.6985 3.33333 19.6968C3.33333 19.6951 3.33333 19.6935 3.33333 19.6917C3.33333 19.69 3.33333 19.6883 3.33333 19.6865C3.33333 19.6848 3.33333 19.6831 3.33333 19.6815C3.33333 19.6797 3.33333 19.678 3.33333 19.6763C3.33333 19.6745 3.33333 19.6728 3.33333 19.6711C3.33333 19.6695 3.33333 19.6677 3.33333 19.666C3.33333 19.6643 3.33333 19.6625 3.33333 19.6608C3.33333 19.6592 3.33333 19.6575 3.33333 19.6557C3.33333 19.654 3.33333 19.6523 3.33333 19.6505C3.33333 19.6489 3.33333 19.6472 3.33333 19.6455C3.33333 19.6437 3.33333 19.642 3.33333 19.6403C3.33333 19.6387 3.33333 19.6369 3.33333 19.6352C3.33333 19.6335 3.33333 19.6317 3.33333 19.63C3.33333 19.6284 3.33333 19.6267 3.33333 19.6249C3.33333 19.6232 3.33333 19.6215 3.33333 19.6199C3.33333 19.6181 3.33333 19.6164 3.33333 19.6147C3.33333 19.6129 3.33333 19.6113 3.33333 19.6096C3.33333 19.6079 3.33333 19.6061 3.33333 19.6044C3.33333 19.6028 3.33333 19.6011 3.33333 19.5993C3.33333 19.5976 3.33333 19.5959 3.33333 19.5943C3.33333 19.5925 3.33333 19.5908 3.33333 19.5891C3.33333 19.5873 3.33333 19.5857 3.33333 19.584C3.33333 19.5823 3.33333 19.5805 3.33333 19.5789C3.33333 19.5772 3.33333 19.5755 3.33333 19.5737C3.33333 19.572 3.33333 19.5704 3.33333 19.5687C3.33333 19.5669 3.33333 19.5652 3.33333 19.5636C3.33333 19.5619 3.33333 19.5601 3.33333 19.5584C3.33333 19.5568 3.33333 19.5551 3.33333 19.5533C3.33333 19.5516 3.33333 19.5499 3.33333 19.5483C3.33333 19.5465 3.33333 19.5448 3.33333 19.5431C3.33333 19.5415 3.33333 19.5397 3.33333 19.538C3.33333 19.5364 3.33333 19.5347 3.33333 19.5329C3.33333 19.5312 3.33333 19.5296 3.33333 19.5279C3.33333 19.5261 3.33333 19.5244 3.33333 19.5228C3.33333 19.5211 3.33333 19.5193 3.33333 19.5176C3.33333 19.516 3.33333 19.5143 3.33333 19.5125C3.33333 19.5109 3.33333 19.5092 3.33333 19.5075C3.33333 19.5057 3.33333 19.5041 3.33333 19.5024C3.33333 19.5007 3.33333 19.4989 3.33333 19.4973C3.33333 19.4956 3.33333 19.4939 3.33333 19.4923C3.33333 19.4905 3.33333 19.4888 3.33333 19.4872C3.33333 19.4855 3.33333 19.4837 3.33333 19.482C3.33333 19.4804 3.33333 19.4787 3.33333 19.4769C3.33333 19.4753 3.33333 19.4736 3.33333 19.4719C3.33333 19.4703 3.33333 19.4685 3.33333 19.4668C3.33333 19.4651 3.33333 19.4635 3.33333 19.4617C3.33333 19.46 3.33333 19.4584 3.33333 19.4567C3.33333 19.4549 3.33333 19.4533 3.33333 19.4516C3.33333 19.4499 3.33333 19.4483 3.33333 19.4465C3.33333 19.4448 3.33333 19.4432 3.33333 19.4415C3.33333 19.4397 3.33333 19.4381 3.33333 19.4364C3.33333 19.4347 3.33333 19.4331 3.33333 19.4313C3.33333 19.4296 3.33333 19.428 3.33333 19.4263C3.33333 19.4245 3.33333 19.4229 3.33333 19.4212C3.33333 19.4195 3.33333 19.4179 3.33333 19.4161C3.33333 19.4145 3.33333 19.4128 3.33333 19.4111C3.33333 19.4095 3.33333 19.4077 3.33333 19.406C3.33333 19.4044 3.33333 19.4027 3.33333 19.4009C3.33333 19.3993 3.33333 19.3976 3.33333 19.396C3.33333 19.3943 3.33333 19.3925 3.33333 19.3909C3.33333 19.3892 3.33333 19.3875 3.33333 19.3859C3.33333 19.3841 3.33333 19.3825 3.33333 19.3808C3.33333 19.3791 3.33333 19.3775 3.33333 19.3757C3.33333 19.3741 3.33333 19.3724 3.33333 19.3707C3.33333 19.3691 3.33333 19.3673 3.33333 19.3656C3.33333 19.364 3.33333 19.3623 3.33333 19.3607C3.33333 19.3589 3.33333 19.3572 3.33333 19.3556C3.33333 19.3539 3.33333 19.3523 3.33333 19.3505C3.33333 19.3489 3.33333 19.3472 3.33333 19.3455C3.33333 19.3439 3.33333 19.3421 3.33333 19.3405C3.33333 19.3388 3.33333 19.3371 3.33333 19.3355C3.33333 19.3337 3.33333 19.3321 3.33333 19.3304C3.33333 19.3288 3.33333 19.3271 3.33333 19.3253C3.33333 19.3237 3.33333 19.322 3.33333 19.3204C3.33333 19.3187 3.33333 19.3171 3.33333 19.3153C3.33333 19.3136 3.33333 19.312 3.33333 19.3103C3.33333 19.3087 3.33333 19.3069 3.33333 19.3053C3.33333 19.3036 3.33333 19.302 3.33333 19.3003C3.33333 19.2985 3.33333 19.2969 3.33333 19.2952C3.33333 19.2936 3.33333 19.2919 3.33333 19.2903C3.33333 19.2885 3.33333 19.2869 3.33333 19.2852C3.33333 19.2836 3.33333 19.2819 3.33333 19.2803C3.33333 19.2785 3.33333 19.2768 3.33333 19.2752C3.33333 19.2735 3.33333 19.2719 3.33333 19.2701C3.33333 19.2685 3.33333 19.2668 3.33333 19.2652C3.33333 19.2635 3.33333 19.2619 3.33333 19.2601C3.33333 19.2585 3.33333 19.2568 3.33333 19.2552C3.33333 19.2535 3.33333 19.2519 3.33333 19.2501C3.33333 19.2485 3.33333 19.2468 3.33333 19.2452C3.33333 19.2435 3.33333 19.2419 3.33333 19.2401C3.33333 19.2385 3.33333 19.2368 3.33333 19.2352C3.33333 19.2335 3.33333 19.2319 3.33333 19.2301C3.33333 19.2285 3.33333 19.2268 3.33333 19.2252C3.33333 19.2235 3.33333 19.2219 3.33333 19.2201C3.33333 19.2185 3.33333 19.2168 3.33333 19.2152C3.33333 19.2135 3.33333 19.2119 3.33333 19.2103C3.33333 19.2085 3.33333 19.2069 3.33333 19.2052C3.33333 19.2036 3.33333 19.2019 3.33333 19.2003C3.33333 19.1985 3.33333 19.1969 3.33333 19.1952C3.33333 19.1936 3.33333 19.1919 3.33333 19.1903C3.33333 19.1887 3.33333 19.1869 3.33333 19.1853C3.33333 19.1836 3.33333 19.182 3.33333 19.1803C3.33333 19.1787 3.33333 19.1769 3.33333 19.1753C3.33333 19.1737 3.33333 19.172 3.33333 19.1704C3.33333 19.1687 3.33333 19.1671 3.33333 19.1653C3.33333 19.1637 3.33333 19.1621 3.33333 19.1604C3.33333 19.1588 3.33333 19.1571 3.33333 19.1555C3.33333 19.1537 3.33333 19.1521 3.33333 19.1505C3.33333 19.1488 3.33333 19.1472 3.33333 19.1455C3.33333 19.1439 3.33333 19.1423 3.33333 19.1405C3.33333 19.1389 3.33333 19.1372 3.33333 19.1356C3.33333 19.1339 3.33333 19.1323 3.33333 19.1307C3.33333 19.1289 3.33333 19.1273 3.33333 19.1257C3.33333 19.124 3.33333 19.1224 3.33333 19.1207C3.33333 19.1191 3.33333 19.1175 3.33333 19.1157C3.33333 19.1141 3.33333 19.1124 3.33333 19.1108C3.33333 19.1092 3.33333 19.1075 3.33333 19.1059C3.33333 19.1043 3.33333 19.1025 3.33333 19.1009C3.33333 19.0992 3.33333 19.0976 3.33333 19.096C3.33333 19.0943 3.33333 19.0927 3.33333 19.0911C3.33333 19.0893 3.33333 19.0877 3.33333 19.086C3.33333 19.0844 3.33333 19.0828 3.33333 19.0811C3.33333 19.0795 3.33333 19.0779 3.33333 19.0761C3.33333 19.0745 3.33333 19.0729 3.33333 19.0712C3.33333 19.0696 3.33333 19.068 3.33333 19.0663C3.33333 19.0647 3.33333 19.0631 3.33333 19.0613C3.33333 19.0597 3.33333 19.0581 3.33333 19.0564C3.33333 19.0548 3.33333 19.0532 3.33333 19.0515C3.33333 19.0499 3.33333 19.0483 3.33333 19.0465C3.33333 19.0449 3.33333 19.0433 3.33333 19.0416C3.33333 19.04 3.33333 19.0384 3.33333 19.0367C3.33333 19.0351 3.33333 19.0335 3.33333 19.0317C3.33333 19.0301 3.33333 19.0285 3.33333 19.0269C3.33333 19.0252 3.33333 19.0236 3.33333 19.022C3.33333 19.0203 3.33333 19.0187 3.33333 19.0171C3.33333 19.0153 3.33333 19.0137 3.33333 19.0121C3.33333 19.0105 3.33333 19.0088 3.33333 19.0072C3.33333 19.0056 3.33333 19.0039 3.33333 19.0023C3.33333 19.0007 3.33333 18.9991 3.33333 18.9973C3.33333 18.9957 3.33333 18.9941 3.33333 18.9924C3.33333 18.9908 3.33333 18.9892 3.33333 18.9876C3.33333 18.9859 3.33333 18.9843 3.33333 18.9827C3.33333 18.9811 3.33333 18.9793 3.33333 18.9777C3.33333 18.9761 3.33333 18.9745 3.33333 18.9728C3.33333 18.9712 3.33333 18.9696 3.33333 18.968C3.33333 18.9663 3.33333 18.9647 3.33333 18.9631C3.33333 18.9615 3.33333 18.9597 3.33333 18.9581C3.33333 18.9565 3.33333 18.9549 3.33333 18.9532C3.33333 18.9516 3.33333 18.95 3.33333 18.9484C3.33333 18.9467 3.33333 18.9451 3.33333 18.9435C3.33333 18.9419 3.33333 18.9403 3.33333 18.9385C3.33333 18.9369 3.33333 18.9353 3.33333 18.9337C3.33333 18.932 3.33333 18.9304 3.33333 18.9288C3.33333 18.9272 3.33333 18.9256 3.33333 18.9239C3.33333 18.9223 3.33333 18.9207 3.33333 18.9191C3.33333 18.9175 3.33333 18.9157 3.33333 18.9141C3.33333 18.9125 3.33333 18.9109 3.33333 18.9093C3.33333 18.9076 3.33333 18.906 3.33333 18.9044C3.33333 18.9028 3.33333 18.9012 3.33333 18.8995C3.33333 18.8979 3.33333 18.8963 3.33333 18.8947C3.33333 18.8931 3.33333 18.8913 3.33333 18.8897C3.33333 18.8881 3.33333 18.8865 3.33333 18.8849C3.33333 18.8833 3.33333 18.8816 3.33333 18.88C3.33333 18.8784 3.33333 18.8768 3.33333 18.8752C3.33333 18.8736 3.33333 18.8719 3.33333 18.8703C3.33333 18.8687 3.33333 18.8671 3.33333 18.8655C3.33333 18.8639 3.33333 18.8623 3.33333 18.8605C3.33333 18.8589 3.33333 18.8573 3.33333 18.8557C3.33333 18.8541 3.33333 18.8525 3.33333 18.8509C3.33333 18.8492 3.33333 18.8476 3.33333 18.846C3.33333 18.8444 3.33333 18.8428 3.33333 18.8412C3.33333 18.8396 3.33333 18.8379 3.33333 18.8363C3.33333 18.8347 3.33333 18.8331 3.33333 18.8315C3.33333 18.8299 3.33333 18.8283 3.33333 18.8267C3.33333 18.8251 3.33333 18.8233 3.33333 18.8217C3.33333 18.8201 3.33333 18.8185 3.33333 18.8169C3.33333 18.8153 3.33333 18.8137 3.33333 18.8121C3.33333 18.8105 3.33333 18.8088 3.33333 18.8072C3.33333 18.8056 3.33333 18.804 3.33333 18.8024C3.33333 18.8008 3.33333 18.7992 3.33333 18.7976C3.33333 18.796 3.33333 18.7944 3.33333 18.7928C3.33333 18.7911 3.33333 18.7895 3.33333 18.7879C3.33333 18.7863 3.33333 18.7847 3.33333 18.7831C3.33333 18.7815 3.33333 18.7799 3.33333 18.7783C3.33333 18.7767 3.33333 18.7751 3.33333 18.7735C3.33333 18.7719 3.33333 18.7703 3.33333 18.7685C3.33333 18.7669 3.33333 18.7653 3.33333 18.7637C3.33333 18.7621 3.33333 18.7605 3.33333 18.7589C3.33333 18.7573 3.33333 18.7557 3.33333 18.7541C3.33333 18.7525 3.33333 18.7509 3.33333 18.7493C3.33333 18.7477 3.33333 18.7461 3.33333 18.7445C3.33333 18.7429 3.33333 18.7413 3.33333 18.7397C3.33333 18.7381 3.33333 18.7365 3.33333 18.7349C3.33333 18.7333 3.33333 18.7317 3.33333 18.7301C3.33333 18.7285 3.33333 18.7269 3.33333 18.7253C3.33333 18.7236 3.33333 18.722 3.33333 18.7204C3.33333 18.7188 3.33333 18.7172 3.33333 18.7156C3.33333 18.714 3.33333 18.7124 3.33333 18.7108C3.33333 18.7092 3.33333 18.7076 3.33333 18.706C3.33333 18.7044 3.33333 18.7028 3.33333 18.7012C3.33333 18.6996 3.33333 18.698 3.33333 18.6964C3.33333 18.6949 3.33333 18.6933 3.33333 18.6917C3.33333 18.6901 3.33333 18.6885 3.33333 18.6869C3.33333 18.6853 3.33333 18.6837 3.33333 18.6821C3.33333 18.6805 3.33333 18.6789 3.33333 18.6773C3.33333 18.6757 3.33333 18.6741 3.33333 18.6725C3.33333 18.6709 3.33333 18.6693 3.33333 18.6677C3.33333 18.6661 3.33333 18.6645 3.33333 18.6629C3.33333 18.6613 3.33333 18.6597 3.33333 18.6581H2C2 18.6597 2 18.6613 2 18.6629C2 18.6645 2 18.6661 2 18.6677C2 18.6693 2 18.6709 2 18.6725C2 18.6741 2 18.6757 2 18.6773C2 18.6789 2 18.6805 2 18.6821C2 18.6837 2 18.6853 2 18.6869C2 18.6885 2 18.6901 2 18.6917C2 18.6933 2 18.6949 2 18.6964C2 18.698 2 18.6996 2 18.7012C2 18.7028 2 18.7044 2 18.706C2 18.7076 2 18.7092 2 18.7108C2 18.7124 2 18.714 2 18.7156C2 18.7172 2 18.7188 2 18.7204C2 18.722 2 18.7236 2 18.7253C2 18.7269 2 18.7285 2 18.7301C2 18.7317 2 18.7333 2 18.7349C2 18.7365 2 18.7381 2 18.7397C2 18.7413 2 18.7429 2 18.7445C2 18.7461 2 18.7477 2 18.7493C2 18.7509 2 18.7525 2 18.7541C2 18.7557 2 18.7573 2 18.7589C2 18.7605 2 18.7621 2 18.7637C2 18.7653 2 18.7669 2 18.7685C2 18.7703 2 18.7719 2 18.7735C2 18.7751 2 18.7767 2 18.7783C2 18.7799 2 18.7815 2 18.7831C2 18.7847 2 18.7863 2 18.7879C2 18.7895 2 18.7911 2 18.7928C2 18.7944 2 18.796 2 18.7976C2 18.7992 2 18.8008 2 18.8024C2 18.804 2 18.8056 2 18.8072C2 18.8088 2 18.8105 2 18.8121C2 18.8137 2 18.8153 2 18.8169C2 18.8185 2 18.8201 2 18.8217C2 18.8233 2 18.8251 2 18.8267C2 18.8283 2 18.8299 2 18.8315C2 18.8331 2 18.8347 2 18.8363C2 18.8379 2 18.8396 2 18.8412C2 18.8428 2 18.8444 2 18.846C2 18.8476 2 18.8492 2 18.8509C2 18.8525 2 18.8541 2 18.8557C2 18.8573 2 18.8589 2 18.8605C2 18.8623 2 18.8639 2 18.8655C2 18.8671 2 18.8687 2 18.8703C2 18.8719 2 18.8736 2 18.8752C2 18.8768 2 18.8784 2 18.88C2 18.8816 2 18.8833 2 18.8849C2 18.8865 2 18.8881 2 18.8897C2 18.8913 2 18.8931 2 18.8947C2 18.8963 2 18.8979 2 18.8995C2 18.9012 2 18.9028 2 18.9044C2 18.906 2 18.9076 2 18.9093C2 18.9109 2 18.9125 2 18.9141C2 18.9157 2 18.9175 2 18.9191C2 18.9207 2 18.9223 2 18.9239C2 18.9256 2 18.9272 2 18.9288C2 18.9304 2 18.932 2 18.9337C2 18.9353 2 18.9369 2 18.9385C2 18.9403 2 18.9419 2 18.9435C2 18.9451 2 18.9467 2 18.9484C2 18.95 2 18.9516 2 18.9532C2 18.9549 2 18.9565 2 18.9581C2 18.9597 2 18.9615 2 18.9631C2 18.9647 2 18.9663 2 18.968C2 18.9696 2 18.9712 2 18.9728C2 18.9745 2 18.9761 2 18.9777C2 18.9793 2 18.9811 2 18.9827C2 18.9843 2 18.9859 2 18.9876C2 18.9892 2 18.9908 2 18.9924C2 18.9941 2 18.9957 2 18.9973C2 18.9991 2 19.0007 2 19.0023C2 19.0039 2 19.0056 2 19.0072C2 19.0088 2 19.0105 2 19.0121C2 19.0137 2 19.0153 2 19.0171C2 19.0187 2 19.0203 2 19.022C2 19.0236 2 19.0252 2 19.0269C2 19.0285 2 19.0301 2 19.0317C2 19.0335 2 19.0351 2 19.0367C2 19.0384 2 19.04 2 19.0416C2 19.0433 2 19.0449 2 19.0465C2 19.0483 2 19.0499 2 19.0515C2 19.0532 2 19.0548 2 19.0564C2 19.0581 2 19.0597 2 19.0613C2 19.0631 2 19.0647 2 19.0663C2 19.068 2 19.0696 2 19.0712C2 19.0729 2 19.0745 2 19.0761C2 19.0779 2 19.0795 2 19.0811C2 19.0828 2 19.0844 2 19.086C2 19.0877 2 19.0893 2 19.0911C2 19.0927 2 19.0943 2 19.096C2 19.0976 2 19.0992 2 19.1009C2 19.1025 2 19.1043 2 19.1059C2 19.1075 2 19.1092 2 19.1108C2 19.1124 2 19.1141 2 19.1157C2 19.1175 2 19.1191 2 19.1207C2 19.1224 2 19.124 2 19.1257C2 19.1273 2 19.1289 2 19.1307C2 19.1323 2 19.1339 2 19.1356C2 19.1372 2 19.1389 2 19.1405C2 19.1423 2 19.1439 2 19.1455C2 19.1472 2 19.1488 2 19.1505C2 19.1521 2 19.1537 2 19.1555C2 19.1571 2 19.1588 2 19.1604C2 19.1621 2 19.1637 2 19.1653C2 19.1671 2 19.1687 2 19.1704C2 19.172 2 19.1737 2 19.1753C2 19.1769 2 19.1787 2 19.1803C2 19.182 2 19.1836 2 19.1853C2 19.1869 2 19.1887 2 19.1903C2 19.1919 2 19.1936 2 19.1952C2 19.1969 2 19.1985 2 19.2003C2 19.2019 2 19.2036 2 19.2052C2 19.2069 2 19.2085 2 19.2103C2 19.2119 2 19.2135 2 19.2152C2 19.2168 2 19.2185 2 19.2201C2 19.2219 2 19.2235 2 19.2252C2 19.2268 2 19.2285 2 19.2301C2 19.2319 2 19.2335 2 19.2352C2 19.2368 2 19.2385 2 19.2401C2 19.2419 2 19.2435 2 19.2452C2 19.2468 2 19.2485 2 19.2501C2 19.2519 2 19.2535 2 19.2552C2 19.2568 2 19.2585 2 19.2601C2 19.2619 2 19.2635 2 19.2652C2 19.2668 2 19.2685 2 19.2701C2 19.2719 2 19.2735 2 19.2752C2 19.2768 2 19.2785 2 19.2803C2 19.2819 2 19.2836 2 19.2852C2 19.2869 2 19.2885 2 19.2903C2 19.2919 2 19.2936 2 19.2952C2 19.2969 2 19.2985 2 19.3003C2 19.302 2 19.3036 2 19.3053C2 19.3069 2 19.3087 2 19.3103C2 19.312 2 19.3136 2 19.3153C2 19.3171 2 19.3187 2 19.3204C2 19.322 2 19.3237 2 19.3253C2 19.3271 2 19.3288 2 19.3304C2 19.3321 2 19.3337 2 19.3355C2 19.3371 2 19.3388 2 19.3405C2 19.3421 2 19.3439 2 19.3455C2 19.3472 2 19.3489 2 19.3505C2 19.3523 2 19.3539 2 19.3556C2 19.3572 2 19.3589 2 19.3607C2 19.3623 2 19.364 2 19.3656C2 19.3673 2 19.3691 2 19.3707C2 19.3724 2 19.3741 2 19.3757C2 19.3775 2 19.3791 2 19.3808C2 19.3825 2 19.3841 2 19.3859C2 19.3875 2 19.3892 2 19.3909C2 19.3925 2 19.3943 2 19.396C2 19.3976 2 19.3993 2 19.4009C2 19.4027 2 19.4044 2 19.406C2 19.4077 2 19.4095 2 19.4111C2 19.4128 2 19.4145 2 19.4161C2 19.4179 2 19.4195 2 19.4212C2 19.4229 2 19.4245 2 19.4263C2 19.428 2 19.4296 2 19.4313C2 19.4331 2 19.4347 2 19.4364C2 19.4381 2 19.4397 2 19.4415C2 19.4432 2 19.4448 2 19.4465C2 19.4483 2 19.4499 2 19.4516C2 19.4533 2 19.4549 2 19.4567C2 19.4584 2 19.46 2 19.4617C2 19.4635 2 19.4651 2 19.4668C2 19.4685 2 19.4703 2 19.4719C2 19.4736 2 19.4753 2 19.4769C2 19.4787 2 19.4804 2 19.482C2 19.4837 2 19.4855 2 19.4872C2 19.4888 2 19.4905 2 19.4923C2 19.4939 2 19.4956 2 19.4973C2 19.4989 2 19.5007 2 19.5024C2 19.5041 2 19.5057 2 19.5075C2 19.5092 2 19.5109 2 19.5125C2 19.5143 2 19.516 2 19.5176C2 19.5193 2 19.5211 2 19.5228C2 19.5244 2 19.5261 2 19.5279C2 19.5296 2 19.5312 2 19.5329C2 19.5347 2 19.5364 2 19.538C2 19.5397 2 19.5415 2 19.5431C2 19.5448 2 19.5465 2 19.5483C2 19.5499 2 19.5516 2 19.5533C2 19.5551 2 19.5568 2 19.5584C2 19.5601 2 19.5619 2 19.5636C2 19.5652 2 19.5669 2 19.5687C2 19.5704 2 19.572 2 19.5737C2 19.5755 2 19.5772 2 19.5789C2 19.5805 2 19.5823 2 19.584C2 19.5857 2 19.5873 2 19.5891C2 19.5908 2 19.5925 2 19.5943C2 19.5959 2 19.5976 2 19.5993C2 19.6011 2 19.6028 2 19.6044C2 19.6061 2 19.6079 2 19.6096C2 19.6113 2 19.6129 2 19.6147C2 19.6164 2 19.6181 2 19.6199C2 19.6215 2 19.6232 2 19.6249C2 19.6267 2 19.6284 2 19.63C2 19.6317 2 19.6335 2 19.6352C2 19.6369 2 19.6387 2 19.6403C2 19.642 2 19.6437 2 19.6455C2 19.6472 2 19.6489 2 19.6505C2 19.6523 2 19.654 2 19.6557C2 19.6575 2 19.6592 2 19.6608C2 19.6625 2 19.6643 2 19.666C2 19.6677 2 19.6695 2 19.6711C2 19.6728 2 19.6745 2 19.6763C2 19.678 2 19.6797 2 19.6815C2 19.6831 2 19.6848 2 19.6865C2 19.6883 2 19.69 2 19.6917C2 19.6935 2 19.6951 2 19.6968C2 19.6985 2 19.7003 2 19.702C2 19.7037 2 19.7055 2 19.7072C2 19.7088 2 19.7105 2 19.7123C2 19.714 2 19.7157 2 19.7175C2 19.7192 2 19.7209 2 19.7227C2 19.7243 2 19.726 2 19.7277C2 19.7295 2 19.7312 2 19.7329C2 19.7347 2 19.7364 2 19.7381C2 19.7397 2 19.7415 2 19.7432C2 19.7449 2 19.7467 2 19.7484C2 19.7501 2 19.7519 2 19.7536C2 19.7553 2 19.7571 2 19.7587C2 19.7604 2 19.7621 2 19.7639C2 19.7656 2 19.7673 2 19.7691C2 19.7708 2 19.7725 2 19.7743C2 19.776 2 19.7777 2 19.7795C2 19.7812 2 19.7828 2 19.7845C2 19.7863 2 19.788 2 19.7897C2 19.7915 2 19.7932 2 19.7949C2 19.7967 2 19.7984 2 19.8001C2 19.8019 2 19.8036 2 19.8053C2 19.8071 2 19.8088 2 19.8105C2 19.8123 2 19.8139 2 19.8156C2 19.8173 2 19.8191 2 19.8208C2 19.8225 2 19.8243 2 19.826C2 19.8277 2 19.8295 2 19.8312C2 19.8329 2 19.8347 2 19.8364C2 19.8381 2 19.8399 2 19.8416C2 19.8433 2 19.8451 2 19.8468C2 19.8485 2 19.8503 2 19.852C2 19.8537 2 19.8555 2 19.8572C2 19.8589 2 19.8607 2 19.8624C2 19.8641 2 19.8659 2 19.8676C2 19.8693 2 19.8711 2 19.8728C2 19.8745 2 19.8763 2 19.878C2 19.8797 2 19.8815 2 19.8832C2 19.8849 2 19.8867 2 19.8884C2 19.8901 2 19.8919 2 19.8936C2 19.8953 2 19.8971 2 19.8988C2 19.9005 2 19.9023 2 19.904C2 19.9057 2 19.9075 2 19.9092C2 19.9109 2 19.9127 2 19.9144C2 19.9161 2 19.9179 2 19.9196C2 19.9213 2 19.9231 2 19.9248C2 19.9265 2 19.9283 2 19.9301C2 19.9319 2 19.9336 2 19.9353C2 19.9371 2 19.9388 2 19.9405C2 19.9423 2 19.944 2 19.9457C2 19.9475 2 19.9492 2 19.9509C2 19.9527 2 19.9544 2 19.9561C2 19.9579 2 19.9596 2 19.9615C2 19.9632 2 19.9649 2 19.9667C2 19.9684 2 19.9701 2 19.9719C2 19.9736 2 19.9753 2 19.9771C2 19.9788 2 19.9805 2 19.9823C2 19.984 2 19.9859 2 19.9876C2 19.9893 2 19.9911 2 19.9928C2 19.9945 2 19.9963 2 19.998C2 19.9997 2 20.0015 2 20.0032C2 20.0051 2 20.0068 2 20.0085C2 20.0103 2 20.012 2 20.0137C2 20.0155 2 20.0172 2 20.0189C2 20.0207 2 20.0225 2 20.0243C2 20.026 2 20.0277 2 20.0295C2 20.0312 2 20.0329 2 20.0347C2 20.0364 2 20.0383 2 20.04C2 20.0417 2 20.0435 2 20.0452C2 20.0469 2 20.0487 2 20.0504C2 20.0523 2 20.054 2 20.0557C2 20.0575 2 20.0592 2 20.0609C2 20.0627 2 20.0645 2 20.0663C2 20.068 2 20.0697 2 20.0715C2 20.0732 2 20.0749 2 20.0768C2 20.0785 2 20.0803 2 20.082C2 20.0837 2 20.0855 2 20.0872C2 20.0891 2 20.0908 2 20.0925C2 20.0943 2 20.096 2 20.0977C2 20.0996 2 20.1013 2 20.1031C2 20.1048 2 20.1065 2 20.1083C2 20.1101 2 20.1119 2 20.1136C2 20.1153 2 20.1171 2 20.1188C2 20.1207 2 20.1224 2 20.1241C2 20.1259 2 20.1276 2 20.1293C2 20.1312 2 20.1329 2 20.1347C2 20.1364 2 20.1381 2 20.14C2 20.1417 2 20.1435 2 20.1452C2 20.1469 2 20.1488 2 20.1505C2 20.1523 2 20.154 2 20.1557C2 20.1576 2 20.1593 2 20.1611C2 20.1628 2 20.1645 2 20.1664C2 20.1681 2 20.1699 2 20.1716C2 20.1733 2 20.1752 2 20.1769C2 20.1787 2 20.1804 2 20.1821C2 20.184 2 20.1857 2 20.1875C2 20.1892 2 20.1911 2 20.1928C2 20.1945 2 20.1963 2 20.198C2 20.1999 2 20.2016 2 20.2033C2 20.2051 2 20.2069 2 20.2087C2 20.2104 2 20.2121 2 20.214C2 20.2157 2 20.2175 2 20.2192C2 20.2211 2 20.2228 2 20.2245C2 20.2263 2 20.2281 2 20.2299C2 20.2316 2 20.2333 2 20.2352C2 20.2369 2 20.2387 2 20.2404C2 20.2423 2 20.244 2 20.2457C2 20.2475 2 20.2493 2 20.2511C2 20.2528 2 20.2545 2 20.2564C2 20.2581 2 20.2599 2 20.2616C2 20.2635 2 20.2652 2 20.2669C2 20.2688 2 20.2705 2 20.2723C2 20.274 2 20.2759 2 20.2776C2 20.2793 2 20.2812 2 20.2829C2 20.2847 2 20.2864 2 20.2883C2 20.29 2 20.2917 2 20.2936C2 20.2953 2 20.2971 2 20.2988C2 20.3007 2 20.3024 2 20.3041C2 20.306 2 20.3077 2 20.3095C2 20.3113 2 20.3131 2 20.3148C2 20.3165 2 20.3184 2 20.3201C2 20.3219 2 20.3237 2 20.3255C2 20.3272 2 20.3291 2 20.3308C2 20.3325 2 20.3344 2 20.3361C2 20.3379 2 20.3397 2 20.3415C2 20.3432 2 20.3451 2 20.3468C2 20.3485 2 20.3503 2 20.3521C2 20.3539 2 20.3556 2 20.3575C2 20.3592 2 20.3609 2 20.3628C2 20.3645 2 20.3663 2 20.3681C2 20.3699 2 20.3717 2 20.3735C2 20.3752 2 20.3771 2 20.3788C2 20.3805 2 20.3824 2 20.3841C2 20.3859 2 20.3877 2 20.3895C2 20.3912 2 20.3931 2 20.3948C2 20.3965 2 20.3984 2 20.4001C2 20.402 2 20.4037 2 20.4055C2 20.4073 2 20.4091 2 20.4108C2 20.4127 2 20.4144 2 20.4161C2 20.418 2 20.4197 2 20.4216C2 20.4233 2 20.4251 2 20.4269C2 20.4287 2 20.4304 2 20.4323C2 20.434 2 20.4359 2 20.4376C2 20.4393 2 20.4412 2 20.4429C2 20.4448 2 20.4465 2 20.4483C2 20.4501 2 20.4519 2 20.4536C2 20.4555 2 20.4572 2 20.4591C2 20.4608 2 20.4625 2 20.4644C2 20.4661 2 20.468 2 20.4697C2 20.4715 2 20.4733 2 20.4751C2 20.4769 2 20.4787 2 20.4804C2 20.4823 2 20.484 2 20.4859C2 20.4876 2 20.4895 2 20.4912C2 20.4929 2 20.4948 2 20.4965C2 20.4984 2 20.5001 2 20.5019C2 20.5037 2 20.5055 2 20.5073C2 20.5091 2 20.5109 2 20.5127C2 20.5144 2 20.5163 2 20.518C2 20.5199 2 20.5216 2 20.5235C2 20.5252 2 20.5271 2 20.5288C2 20.5305 2 20.5324 2 20.5341C2 20.536 2 20.5377 2 20.5396C2 20.5413 2 20.5432 2 20.5449C2 20.5467 2 20.5485 2 20.5503C2 20.5521 2 20.5539 2 20.5557C2 20.5575 2 20.5593 2 20.5611C2 20.5629 2 20.5647 2 20.5664C2 20.5683 2 20.57 2 20.5719C2 20.5736 2 20.5755 2 20.5772C2 20.5791 2 20.5808 2 20.5827C2 20.5844 2 20.5863 2 20.588C2 20.5899 2 20.5916 2 20.5935C2 20.5952 2 20.5969 2 20.5988C2 20.6005 2 20.6024 2 20.6041C2 20.606 2 20.6077 2 20.6096C2 20.6113 2 20.6132 2 20.6149C2 20.6168 2 20.6185 2 20.6204C2 20.6221 2 20.624 2 20.6257C2 20.6276 2 20.6293 2 20.6312C2 20.6329 2 20.6348 2 20.6365C2 20.6384 2 20.6401 2 20.642C2 20.6437 2 20.6456 2 20.6473C2 20.6492 2 20.6509 2 20.6528C2 20.6545 2 20.6564 2 20.6581C2 20.66 2 20.6617 2 20.6636C2 20.6655 2 20.6672 2 20.6691C2 20.6708 2 20.6727 2 20.6744C2 20.6763 2 20.678 2 20.6799C2 20.6816 2 20.6835 2 20.6852C2 20.6871 2 20.6888 2 20.6907C2 20.6924 2 20.6943 2 20.6961C2 20.6979 2 20.6997 2 20.7015C2 20.7033 2 20.7051 2 20.7069C2 20.7087 2 20.7105 2 20.7123C2 20.7141 2 20.716 2 20.7177C2 20.7196 2 20.7213 2 20.7232C2 20.7249 2 20.7268 2 20.7285C2 20.7304 2 20.7323 2 20.734C2 20.7359 2 20.7376 2 20.7395C2 20.7412 2 20.7431 2 20.7448C2 20.7467 2 20.7485 2 20.7503C2 20.7521 2 20.7539 2 20.7557C2 20.7575 2 20.7593 2 20.7612C2 20.7629 2 20.7648 2 20.7665C2 20.7684 2 20.7703 2 20.772C2 20.7739 2 20.7756 2 20.7775C2 20.7792 2 20.7811 2 20.7829C2 20.7847 2 20.7865 2 20.7883C2 20.7901 2 20.792 2 20.7937C2 20.7956 2 20.7973 2 20.7992C2 20.8011 2 20.8028 2 20.8047C2 20.8064 2 20.8083 2 20.8101C2 20.8119 2 20.8137 2 20.8155C2 20.8173 2 20.8192 2 20.8209C2 20.8228 2 20.8245 2 20.8264C2 20.8283 2 20.83 2 20.8319C2 20.8337 2 20.8355 2 20.8373C2 20.8391 2 20.8409 2 20.8428C2 20.8445 2 20.8464 2 20.8481C2 20.85 2 20.8519 2 20.8536C2 20.8555 2 20.8573 2 20.8591C2 20.8609 2 20.8628 2 20.8645C2 20.8664 2 20.8681 2 20.87C2 20.8719 2 20.8736 2 20.8755C2 20.8773 2 20.8791 2 20.8809C2 20.8828 2 20.8845 2 20.8864C2 20.8881 2 20.89 2 20.8919C2 20.8936 2 20.8955 2 20.8973C2 20.8991 2 20.9009 2 20.9028C2 20.9045 2 20.9064 2 20.9083C2 20.91 2 20.9119 2 20.9137C2 20.9155 2 20.9173 2 20.9192C2 20.9209 2 20.9228 2 20.9247C2 20.9264 2 20.9283 2 20.9301C2 20.9319 2 20.9337 2 20.9356C2 20.9373 2 20.9392 2 20.9411C2 20.9428 2 20.9447 2 20.9465C2 20.9483 2 20.9501 2 20.952C2 20.9537 2 20.9556 2 20.9575C2 20.9592 2 20.9611 2 20.9629C2 20.9648 2 20.9665 2 20.9684C2 20.9703 2 20.972 2 20.9739C2 20.9757 2 20.9775 2 20.9793C2 20.9812 2 20.9829 2 20.9848C2 20.9867 2 20.9885 2 20.9903C2 20.9921 2 20.994 2 20.9957C2 20.9976 2 20.9995 2 21.0012C2 21.0031 2 21.0049 2 21.0068C2 21.0085 2 21.0104 2 21.0123C2 21.014 2 21.0159 2 21.0177C2 21.0196 2 21.0213 2 21.0232C2 21.0251 2 21.0269 2 21.0287C2 21.0305 2 21.0324 2 21.0341C2 21.036 2 21.0379 2 21.0397C2 21.0415 2 21.0433 2 21.0452C2 21.0469 2 21.0488 2 21.0507C2 21.0525 2 21.0543 2 21.0561C2 21.058 2 21.0599 2 21.0616C2 21.0635 2 21.0653 2 21.0672C2 21.0689 2 21.0708 2 21.0727C2 21.0745 2 21.0763 2 21.0781C2 21.08 2 21.0819 2 21.0836C2 21.0855 2 21.0873 2 21.0892C2 21.0909 2 21.0928 2 21.0947C2 21.0965 2 21.0983 2 21.1001C2 21.102 2 21.1039 2 21.1056C2 21.1075 2 21.1093 2 21.1112C2 21.1129 2 21.1148 2 21.1167C2 21.1185 2 21.1204 2 21.1221C2 21.124 2 21.1259 2 21.1277C2 21.1295 2 21.1313 2 21.1332C2 21.1351 2 21.1368 2 21.1387C2 21.1405 2 21.1424 2 21.1443C2 21.146 2 21.1479 2 21.1497C2 21.1516 2 21.1535 2 21.1552C2 21.1571 2 21.1589 2 21.1608C2 21.1625 2 21.1644 2 21.1663C2 21.1681 2 21.17 2 21.1717C2 21.1736 2 21.1755 2 21.1773C2 21.1792 2 21.1809 2 21.1828C2 21.1847 2 21.1865 2 21.1884C2 21.1901 2 21.192 2 21.1939C2 21.1957 2 21.1976 2 21.1993C2 21.2012 2 21.2031 2 21.2049C2 21.2068 2 21.2087 2 21.2104C2 21.2123 2 21.2141 2 21.216C2 21.2179 2 21.2196 2 21.2215C2 21.2233 2 21.2252 2 21.2271C2 21.2289 2 21.2307 2 21.2325C2 21.2344 2 21.2363 2 21.2381C2 21.2399 2 21.2417 2 21.2436C2 21.2455 2 21.2473 2 21.2492C2 21.2509 2 21.2528 2 21.2547C2 21.2565 2 21.2584 2 21.2603C2 21.262 2 21.2639 2 21.2657C2 21.2676 2 21.2695 2 21.2713C2 21.2732 2 21.2749 2 21.2768C2 21.2787 2 21.2805 2 21.2824C2 21.2843 2 21.286 2 21.2879C2 21.2897 2 21.2916 2 21.2935C2 21.2953 2 21.2972 2 21.2989C2 21.3008 2 21.3027 2 21.3045C2 21.3064 2 21.3083 2 21.3101C2 21.3119 2 21.3137 2 21.3156C2 21.3175 2 21.3193 2 21.3212H3.33333ZM6.66667 15.3255H12V13.9922H6.66667V15.3255ZM15.3333 18.6581C15.3333 18.6597 15.3333 18.6613 15.3333 18.6629C15.3333 18.6645 15.3333 18.6661 15.3333 18.6677C15.3333 18.6693 15.3333 18.6709 15.3333 18.6725C15.3333 18.6741 15.3333 18.6757 15.3333 18.6773C15.3333 18.6789 15.3333 18.6805 15.3333 18.6821C15.3333 18.6837 15.3333 18.6853 15.3333 18.6869C15.3333 18.6885 15.3333 18.6901 15.3333 18.6917C15.3333 18.6933 15.3333 18.6949 15.3333 18.6964C15.3333 18.698 15.3333 18.6996 15.3333 18.7012C15.3333 18.7028 15.3333 18.7044 15.3333 18.706C15.3333 18.7076 15.3333 18.7092 15.3333 18.7108C15.3333 18.7124 15.3333 18.714 15.3333 18.7156C15.3333 18.7172 15.3333 18.7188 15.3333 18.7204C15.3333 18.722 15.3333 18.7236 15.3333 18.7253C15.3333 18.7269 15.3333 18.7285 15.3333 18.7301C15.3333 18.7317 15.3333 18.7333 15.3333 18.7349C15.3333 18.7365 15.3333 18.7381 15.3333 18.7397C15.3333 18.7413 15.3333 18.7429 15.3333 18.7445C15.3333 18.7461 15.3333 18.7477 15.3333 18.7493C15.3333 18.7509 15.3333 18.7525 15.3333 18.7541C15.3333 18.7557 15.3333 18.7573 15.3333 18.7589C15.3333 18.7605 15.3333 18.7621 15.3333 18.7637C15.3333 18.7653 15.3333 18.7669 15.3333 18.7685C15.3333 18.7703 15.3333 18.7719 15.3333 18.7735C15.3333 18.7751 15.3333 18.7767 15.3333 18.7783C15.3333 18.7799 15.3333 18.7815 15.3333 18.7831C15.3333 18.7847 15.3333 18.7863 15.3333 18.7879C15.3333 18.7895 15.3333 18.7911 15.3333 18.7928C15.3333 18.7944 15.3333 18.796 15.3333 18.7976C15.3333 18.7992 15.3333 18.8008 15.3333 18.8024C15.3333 18.804 15.3333 18.8056 15.3333 18.8072C15.3333 18.8088 15.3333 18.8105 15.3333 18.8121C15.3333 18.8137 15.3333 18.8153 15.3333 18.8169C15.3333 18.8185 15.3333 18.8201 15.3333 18.8217C15.3333 18.8233 15.3333 18.8251 15.3333 18.8267C15.3333 18.8283 15.3333 18.8299 15.3333 18.8315C15.3333 18.8331 15.3333 18.8347 15.3333 18.8363C15.3333 18.8379 15.3333 18.8396 15.3333 18.8412C15.3333 18.8428 15.3333 18.8444 15.3333 18.846C15.3333 18.8476 15.3333 18.8492 15.3333 18.8509C15.3333 18.8525 15.3333 18.8541 15.3333 18.8557C15.3333 18.8573 15.3333 18.8589 15.3333 18.8605C15.3333 18.8623 15.3333 18.8639 15.3333 18.8655C15.3333 18.8671 15.3333 18.8687 15.3333 18.8703C15.3333 18.8719 15.3333 18.8736 15.3333 18.8752C15.3333 18.8768 15.3333 18.8784 15.3333 18.88C15.3333 18.8816 15.3333 18.8833 15.3333 18.8849C15.3333 18.8865 15.3333 18.8881 15.3333 18.8897C15.3333 18.8913 15.3333 18.8931 15.3333 18.8947C15.3333 18.8963 15.3333 18.8979 15.3333 18.8995C15.3333 18.9012 15.3333 18.9028 15.3333 18.9044C15.3333 18.906 15.3333 18.9076 15.3333 18.9093C15.3333 18.9109 15.3333 18.9125 15.3333 18.9141C15.3333 18.9157 15.3333 18.9175 15.3333 18.9191C15.3333 18.9207 15.3333 18.9223 15.3333 18.9239C15.3333 18.9256 15.3333 18.9272 15.3333 18.9288C15.3333 18.9304 15.3333 18.932 15.3333 18.9337C15.3333 18.9353 15.3333 18.9369 15.3333 18.9385C15.3333 18.9403 15.3333 18.9419 15.3333 18.9435C15.3333 18.9451 15.3333 18.9467 15.3333 18.9484C15.3333 18.95 15.3333 18.9516 15.3333 18.9532C15.3333 18.9549 15.3333 18.9565 15.3333 18.9581C15.3333 18.9597 15.3333 18.9615 15.3333 18.9631C15.3333 18.9647 15.3333 18.9663 15.3333 18.968C15.3333 18.9696 15.3333 18.9712 15.3333 18.9728C15.3333 18.9745 15.3333 18.9761 15.3333 18.9777C15.3333 18.9793 15.3333 18.9811 15.3333 18.9827C15.3333 18.9843 15.3333 18.9859 15.3333 18.9876C15.3333 18.9892 15.3333 18.9908 15.3333 18.9924C15.3333 18.9941 15.3333 18.9957 15.3333 18.9973C15.3333 18.9991 15.3333 19.0007 15.3333 19.0023C15.3333 19.0039 15.3333 19.0056 15.3333 19.0072C15.3333 19.0088 15.3333 19.0105 15.3333 19.0121C15.3333 19.0137 15.3333 19.0153 15.3333 19.0171C15.3333 19.0187 15.3333 19.0203 15.3333 19.022C15.3333 19.0236 15.3333 19.0252 15.3333 19.0269C15.3333 19.0285 15.3333 19.0301 15.3333 19.0317C15.3333 19.0335 15.3333 19.0351 15.3333 19.0367C15.3333 19.0384 15.3333 19.04 15.3333 19.0416C15.3333 19.0433 15.3333 19.0449 15.3333 19.0465C15.3333 19.0483 15.3333 19.0499 15.3333 19.0515C15.3333 19.0532 15.3333 19.0548 15.3333 19.0564C15.3333 19.0581 15.3333 19.0597 15.3333 19.0613C15.3333 19.0631 15.3333 19.0647 15.3333 19.0663C15.3333 19.068 15.3333 19.0696 15.3333 19.0712C15.3333 19.0729 15.3333 19.0745 15.3333 19.0761C15.3333 19.0779 15.3333 19.0795 15.3333 19.0811C15.3333 19.0828 15.3333 19.0844 15.3333 19.086C15.3333 19.0877 15.3333 19.0893 15.3333 19.0911C15.3333 19.0927 15.3333 19.0943 15.3333 19.096C15.3333 19.0976 15.3333 19.0992 15.3333 19.1009C15.3333 19.1025 15.3333 19.1043 15.3333 19.1059C15.3333 19.1075 15.3333 19.1092 15.3333 19.1108C15.3333 19.1124 15.3333 19.1141 15.3333 19.1157C15.3333 19.1175 15.3333 19.1191 15.3333 19.1207C15.3333 19.1224 15.3333 19.124 15.3333 19.1257C15.3333 19.1273 15.3333 19.1289 15.3333 19.1307C15.3333 19.1323 15.3333 19.1339 15.3333 19.1356C15.3333 19.1372 15.3333 19.1389 15.3333 19.1405C15.3333 19.1423 15.3333 19.1439 15.3333 19.1455C15.3333 19.1472 15.3333 19.1488 15.3333 19.1505C15.3333 19.1521 15.3333 19.1537 15.3333 19.1555C15.3333 19.1571 15.3333 19.1588 15.3333 19.1604C15.3333 19.1621 15.3333 19.1637 15.3333 19.1653C15.3333 19.1671 15.3333 19.1687 15.3333 19.1704C15.3333 19.172 15.3333 19.1737 15.3333 19.1753C15.3333 19.1769 15.3333 19.1787 15.3333 19.1803C15.3333 19.182 15.3333 19.1836 15.3333 19.1853C15.3333 19.1869 15.3333 19.1887 15.3333 19.1903C15.3333 19.1919 15.3333 19.1936 15.3333 19.1952C15.3333 19.1969 15.3333 19.1985 15.3333 19.2003C15.3333 19.2019 15.3333 19.2036 15.3333 19.2052C15.3333 19.2069 15.3333 19.2085 15.3333 19.2103C15.3333 19.2119 15.3333 19.2135 15.3333 19.2152C15.3333 19.2168 15.3333 19.2185 15.3333 19.2201C15.3333 19.2219 15.3333 19.2235 15.3333 19.2252C15.3333 19.2268 15.3333 19.2285 15.3333 19.2301C15.3333 19.2319 15.3333 19.2335 15.3333 19.2352C15.3333 19.2368 15.3333 19.2385 15.3333 19.2401C15.3333 19.2419 15.3333 19.2435 15.3333 19.2452C15.3333 19.2468 15.3333 19.2485 15.3333 19.2501C15.3333 19.2519 15.3333 19.2535 15.3333 19.2552C15.3333 19.2568 15.3333 19.2585 15.3333 19.2601C15.3333 19.2619 15.3333 19.2635 15.3333 19.2652C15.3333 19.2668 15.3333 19.2685 15.3333 19.2701C15.3333 19.2719 15.3333 19.2735 15.3333 19.2752C15.3333 19.2768 15.3333 19.2785 15.3333 19.2803C15.3333 19.2819 15.3333 19.2836 15.3333 19.2852C15.3333 19.2869 15.3333 19.2885 15.3333 19.2903C15.3333 19.2919 15.3333 19.2936 15.3333 19.2952C15.3333 19.2969 15.3333 19.2985 15.3333 19.3003C15.3333 19.302 15.3333 19.3036 15.3333 19.3053C15.3333 19.3069 15.3333 19.3087 15.3333 19.3103C15.3333 19.312 15.3333 19.3136 15.3333 19.3153C15.3333 19.3171 15.3333 19.3187 15.3333 19.3204C15.3333 19.322 15.3333 19.3237 15.3333 19.3253C15.3333 19.3271 15.3333 19.3288 15.3333 19.3304C15.3333 19.3321 15.3333 19.3337 15.3333 19.3355C15.3333 19.3371 15.3333 19.3388 15.3333 19.3405C15.3333 19.3421 15.3333 19.3439 15.3333 19.3455C15.3333 19.3472 15.3333 19.3489 15.3333 19.3505C15.3333 19.3523 15.3333 19.3539 15.3333 19.3556C15.3333 19.3572 15.3333 19.3589 15.3333 19.3607C15.3333 19.3623 15.3333 19.364 15.3333 19.3656C15.3333 19.3673 15.3333 19.3691 15.3333 19.3707C15.3333 19.3724 15.3333 19.374 15.3333 19.3757C15.3333 19.3775 15.3333 19.3791 15.3333 19.3808C15.3333 19.3825 15.3333 19.3841 15.3333 19.3859C15.3333 19.3875 15.3333 19.3892 15.3333 19.3909C15.3333 19.3925 15.3333 19.3943 15.3333 19.396C15.3333 19.3976 15.3333 19.3993 15.3333 19.4009C15.3333 19.4027 15.3333 19.4044 15.3333 19.406C15.3333 19.4077 15.3333 19.4095 15.3333 19.4111C15.3333 19.4128 15.3333 19.4145 15.3333 19.4161C15.3333 19.4179 15.3333 19.4195 15.3333 19.4212C15.3333 19.4229 15.3333 19.4245 15.3333 19.4263C15.3333 19.428 15.3333 19.4296 15.3333 19.4313C15.3333 19.4331 15.3333 19.4347 15.3333 19.4364C15.3333 19.4381 15.3333 19.4397 15.3333 19.4415C15.3333 19.4432 15.3333 19.4448 15.3333 19.4465C15.3333 19.4483 15.3333 19.4499 15.3333 19.4516C15.3333 19.4533 15.3333 19.4549 15.3333 19.4567C15.3333 19.4584 15.3333 19.46 15.3333 19.4617C15.3333 19.4635 15.3333 19.4651 15.3333 19.4668C15.3333 19.4685 15.3333 19.4703 15.3333 19.4719C15.3333 19.4736 15.3333 19.4753 15.3333 19.4769C15.3333 19.4787 15.3333 19.4804 15.3333 19.482C15.3333 19.4837 15.3333 19.4855 15.3333 19.4872C15.3333 19.4888 15.3333 19.4905 15.3333 19.4923C15.3333 19.4939 15.3333 19.4956 15.3333 19.4973C15.3333 19.4989 15.3333 19.5007 15.3333 19.5024C15.3333 19.5041 15.3333 19.5057 15.3333 19.5075C15.3333 19.5092 15.3333 19.5109 15.3333 19.5125C15.3333 19.5143 15.3333 19.516 15.3333 19.5176C15.3333 19.5193 15.3333 19.5211 15.3333 19.5228C15.3333 19.5244 15.3333 19.5261 15.3333 19.5279C15.3333 19.5296 15.3333 19.5312 15.3333 19.5329C15.3333 19.5347 15.3333 19.5364 15.3333 19.538C15.3333 19.5397 15.3333 19.5415 15.3333 19.5431C15.3333 19.5448 15.3333 19.5465 15.3333 19.5483C15.3333 19.5499 15.3333 19.5516 15.3333 19.5533C15.3333 19.5551 15.3333 19.5568 15.3333 19.5584C15.3333 19.5601 15.3333 19.5619 15.3333 19.5636C15.3333 19.5652 15.3333 19.5669 15.3333 19.5687C15.3333 19.5704 15.3333 19.572 15.3333 19.5737C15.3333 19.5755 15.3333 19.5772 15.3333 19.5789C15.3333 19.5805 15.3333 19.5823 15.3333 19.584C15.3333 19.5857 15.3333 19.5873 15.3333 19.5891C15.3333 19.5908 15.3333 19.5925 15.3333 19.5943C15.3333 19.5959 15.3333 19.5976 15.3333 19.5993C15.3333 19.6011 15.3333 19.6028 15.3333 19.6044C15.3333 19.6061 15.3333 19.6079 15.3333 19.6096C15.3333 19.6113 15.3333 19.6129 15.3333 19.6147C15.3333 19.6164 15.3333 19.6181 15.3333 19.6199C15.3333 19.6215 15.3333 19.6232 15.3333 19.6249C15.3333 19.6267 15.3333 19.6284 15.3333 19.63C15.3333 19.6317 15.3333 19.6335 15.3333 19.6352C15.3333 19.6369 15.3333 19.6387 15.3333 19.6403C15.3333 19.642 15.3333 19.6437 15.3333 19.6455C15.3333 19.6472 15.3333 19.6489 15.3333 19.6505C15.3333 19.6523 15.3333 19.654 15.3333 19.6557C15.3333 19.6575 15.3333 19.6592 15.3333 19.6608C15.3333 19.6625 15.3333 19.6643 15.3333 19.666C15.3333 19.6677 15.3333 19.6695 15.3333 19.6711C15.3333 19.6728 15.3333 19.6745 15.3333 19.6763C15.3333 19.678 15.3333 19.6797 15.3333 19.6815C15.3333 19.6831 15.3333 19.6848 15.3333 19.6865C15.3333 19.6883 15.3333 19.69 15.3333 19.6917C15.3333 19.6935 15.3333 19.6951 15.3333 19.6968C15.3333 19.6985 15.3333 19.7003 15.3333 19.702C15.3333 19.7037 15.3333 19.7055 15.3333 19.7072C15.3333 19.7088 15.3333 19.7105 15.3333 19.7123C15.3333 19.714 15.3333 19.7157 15.3333 19.7175C15.3333 19.7192 15.3333 19.7209 15.3333 19.7227C15.3333 19.7243 15.3333 19.726 15.3333 19.7277C15.3333 19.7295 15.3333 19.7312 15.3333 19.7329C15.3333 19.7347 15.3333 19.7364 15.3333 19.7381C15.3333 19.7397 15.3333 19.7415 15.3333 19.7432C15.3333 19.7449 15.3333 19.7467 15.3333 19.7484C15.3333 19.7501 15.3333 19.7519 15.3333 19.7536C15.3333 19.7553 15.3333 19.7571 15.3333 19.7587C15.3333 19.7604 15.3333 19.7621 15.3333 19.7639C15.3333 19.7656 15.3333 19.7673 15.3333 19.7691C15.3333 19.7708 15.3333 19.7725 15.3333 19.7743C15.3333 19.776 15.3333 19.7777 15.3333 19.7795C15.3333 19.7812 15.3333 19.7828 15.3333 19.7845C15.3333 19.7863 15.3333 19.788 15.3333 19.7897C15.3333 19.7915 15.3333 19.7932 15.3333 19.7949C15.3333 19.7967 15.3333 19.7984 15.3333 19.8001C15.3333 19.8019 15.3333 19.8036 15.3333 19.8053C15.3333 19.8071 15.3333 19.8088 15.3333 19.8105C15.3333 19.8123 15.3333 19.8139 15.3333 19.8156C15.3333 19.8173 15.3333 19.8191 15.3333 19.8208C15.3333 19.8225 15.3333 19.8243 15.3333 19.826C15.3333 19.8277 15.3333 19.8295 15.3333 19.8312C15.3333 19.8329 15.3333 19.8347 15.3333 19.8364C15.3333 19.8381 15.3333 19.8399 15.3333 19.8416C15.3333 19.8433 15.3333 19.8451 15.3333 19.8468C15.3333 19.8485 15.3333 19.8503 15.3333 19.852C15.3333 19.8537 15.3333 19.8555 15.3333 19.8572C15.3333 19.8589 15.3333 19.8607 15.3333 19.8624C15.3333 19.8641 15.3333 19.8659 15.3333 19.8676C15.3333 19.8693 15.3333 19.8711 15.3333 19.8728C15.3333 19.8745 15.3333 19.8763 15.3333 19.878C15.3333 19.8797 15.3333 19.8815 15.3333 19.8832C15.3333 19.8849 15.3333 19.8867 15.3333 19.8884C15.3333 19.8901 15.3333 19.8919 15.3333 19.8936C15.3333 19.8953 15.3333 19.8971 15.3333 19.8988C15.3333 19.9005 15.3333 19.9023 15.3333 19.904C15.3333 19.9057 15.3333 19.9075 15.3333 19.9092C15.3333 19.9109 15.3333 19.9127 15.3333 19.9144C15.3333 19.9161 15.3333 19.9179 15.3333 19.9196C15.3333 19.9213 15.3333 19.9231 15.3333 19.9248C15.3333 19.9265 15.3333 19.9283 15.3333 19.9301C15.3333 19.9319 15.3333 19.9336 15.3333 19.9353C15.3333 19.9371 15.3333 19.9388 15.3333 19.9405C15.3333 19.9423 15.3333 19.944 15.3333 19.9457C15.3333 19.9475 15.3333 19.9492 15.3333 19.9509C15.3333 19.9527 15.3333 19.9544 15.3333 19.9561C15.3333 19.9579 15.3333 19.9596 15.3333 19.9615C15.3333 19.9632 15.3333 19.9649 15.3333 19.9667C15.3333 19.9684 15.3333 19.9701 15.3333 19.9719C15.3333 19.9736 15.3333 19.9753 15.3333 19.9771C15.3333 19.9788 15.3333 19.9805 15.3333 19.9823C15.3333 19.984 15.3333 19.9859 15.3333 19.9876C15.3333 19.9893 15.3333 19.9911 15.3333 19.9928C15.3333 19.9945 15.3333 19.9963 15.3333 19.998C15.3333 19.9997 15.3333 20.0015 15.3333 20.0032C15.3333 20.0051 15.3333 20.0068 15.3333 20.0085C15.3333 20.0103 15.3333 20.012 15.3333 20.0137C15.3333 20.0155 15.3333 20.0172 15.3333 20.0189C15.3333 20.0207 15.3333 20.0225 15.3333 20.0243C15.3333 20.026 15.3333 20.0277 15.3333 20.0295C15.3333 20.0312 15.3333 20.0329 15.3333 20.0347C15.3333 20.0364 15.3333 20.0383 15.3333 20.04C15.3333 20.0417 15.3333 20.0435 15.3333 20.0452C15.3333 20.0469 15.3333 20.0487 15.3333 20.0504C15.3333 20.0523 15.3333 20.054 15.3333 20.0557C15.3333 20.0575 15.3333 20.0592 15.3333 20.0609C15.3333 20.0627 15.3333 20.0645 15.3333 20.0663C15.3333 20.068 15.3333 20.0697 15.3333 20.0715C15.3333 20.0732 15.3333 20.0749 15.3333 20.0768C15.3333 20.0785 15.3333 20.0803 15.3333 20.082C15.3333 20.0837 15.3333 20.0855 15.3333 20.0872C15.3333 20.0891 15.3333 20.0908 15.3333 20.0925C15.3333 20.0943 15.3333 20.096 15.3333 20.0977C15.3333 20.0996 15.3333 20.1013 15.3333 20.1031C15.3333 20.1048 15.3333 20.1065 15.3333 20.1083C15.3333 20.1101 15.3333 20.1119 15.3333 20.1136C15.3333 20.1153 15.3333 20.1171 15.3333 20.1188C15.3333 20.1207 15.3333 20.1224 15.3333 20.1241C15.3333 20.1259 15.3333 20.1276 15.3333 20.1293C15.3333 20.1312 15.3333 20.1329 15.3333 20.1347C15.3333 20.1364 15.3333 20.1381 15.3333 20.14C15.3333 20.1417 15.3333 20.1435 15.3333 20.1452C15.3333 20.1469 15.3333 20.1488 15.3333 20.1505C15.3333 20.1523 15.3333 20.154 15.3333 20.1557C15.3333 20.1576 15.3333 20.1593 15.3333 20.1611C15.3333 20.1628 15.3333 20.1645 15.3333 20.1664C15.3333 20.1681 15.3333 20.1699 15.3333 20.1716C15.3333 20.1733 15.3333 20.1752 15.3333 20.1769C15.3333 20.1787 15.3333 20.1804 15.3333 20.1821C15.3333 20.184 15.3333 20.1857 15.3333 20.1875C15.3333 20.1892 15.3333 20.1911 15.3333 20.1928C15.3333 20.1945 15.3333 20.1963 15.3333 20.198C15.3333 20.1999 15.3333 20.2016 15.3333 20.2033C15.3333 20.2051 15.3333 20.2069 15.3333 20.2087C15.3333 20.2104 15.3333 20.2121 15.3333 20.214C15.3333 20.2157 15.3333 20.2175 15.3333 20.2192C15.3333 20.2211 15.3333 20.2228 15.3333 20.2245C15.3333 20.2263 15.3333 20.2281 15.3333 20.2299C15.3333 20.2316 15.3333 20.2333 15.3333 20.2352C15.3333 20.2369 15.3333 20.2387 15.3333 20.2404C15.3333 20.2423 15.3333 20.244 15.3333 20.2457C15.3333 20.2475 15.3333 20.2493 15.3333 20.2511C15.3333 20.2528 15.3333 20.2545 15.3333 20.2564C15.3333 20.2581 15.3333 20.2599 15.3333 20.2616C15.3333 20.2635 15.3333 20.2652 15.3333 20.2669C15.3333 20.2688 15.3333 20.2705 15.3333 20.2723C15.3333 20.274 15.3333 20.2759 15.3333 20.2776C15.3333 20.2793 15.3333 20.2812 15.3333 20.2829C15.3333 20.2847 15.3333 20.2864 15.3333 20.2883C15.3333 20.29 15.3333 20.2917 15.3333 20.2936C15.3333 20.2953 15.3333 20.2971 15.3333 20.2988C15.3333 20.3007 15.3333 20.3024 15.3333 20.3041C15.3333 20.306 15.3333 20.3077 15.3333 20.3095C15.3333 20.3113 15.3333 20.3131 15.3333 20.3148C15.3333 20.3165 15.3333 20.3184 15.3333 20.3201C15.3333 20.3219 15.3333 20.3237 15.3333 20.3255C15.3333 20.3272 15.3333 20.3291 15.3333 20.3308C15.3333 20.3325 15.3333 20.3344 15.3333 20.3361C15.3333 20.3379 15.3333 20.3397 15.3333 20.3415C15.3333 20.3432 15.3333 20.3451 15.3333 20.3468C15.3333 20.3485 15.3333 20.3503 15.3333 20.3521C15.3333 20.3539 15.3333 20.3556 15.3333 20.3575C15.3333 20.3592 15.3333 20.3609 15.3333 20.3628C15.3333 20.3645 15.3333 20.3663 15.3333 20.3681C15.3333 20.3699 15.3333 20.3717 15.3333 20.3735C15.3333 20.3752 15.3333 20.3771 15.3333 20.3788C15.3333 20.3805 15.3333 20.3824 15.3333 20.3841C15.3333 20.3859 15.3333 20.3877 15.3333 20.3895C15.3333 20.3912 15.3333 20.3931 15.3333 20.3948C15.3333 20.3965 15.3333 20.3984 15.3333 20.4001C15.3333 20.402 15.3333 20.4037 15.3333 20.4055C15.3333 20.4073 15.3333 20.4091 15.3333 20.4108C15.3333 20.4127 15.3333 20.4144 15.3333 20.4161C15.3333 20.418 15.3333 20.4197 15.3333 20.4216C15.3333 20.4233 15.3333 20.4251 15.3333 20.4269C15.3333 20.4287 15.3333 20.4304 15.3333 20.4323C15.3333 20.434 15.3333 20.4359 15.3333 20.4376C15.3333 20.4393 15.3333 20.4412 15.3333 20.4429C15.3333 20.4448 15.3333 20.4465 15.3333 20.4483C15.3333 20.4501 15.3333 20.4519 15.3333 20.4536C15.3333 20.4555 15.3333 20.4572 15.3333 20.4591C15.3333 20.4608 15.3333 20.4625 15.3333 20.4644C15.3333 20.4661 15.3333 20.468 15.3333 20.4697C15.3333 20.4715 15.3333 20.4733 15.3333 20.4751C15.3333 20.4769 15.3333 20.4787 15.3333 20.4804C15.3333 20.4823 15.3333 20.484 15.3333 20.4859C15.3333 20.4876 15.3333 20.4895 15.3333 20.4912C15.3333 20.4929 15.3333 20.4948 15.3333 20.4965C15.3333 20.4984 15.3333 20.5001 15.3333 20.5019C15.3333 20.5037 15.3333 20.5055 15.3333 20.5073C15.3333 20.5091 15.3333 20.5109 15.3333 20.5127C15.3333 20.5144 15.3333 20.5163 15.3333 20.518C15.3333 20.5199 15.3333 20.5216 15.3333 20.5235C15.3333 20.5252 15.3333 20.5271 15.3333 20.5288C15.3333 20.5305 15.3333 20.5324 15.3333 20.5341C15.3333 20.536 15.3333 20.5377 15.3333 20.5396C15.3333 20.5413 15.3333 20.5432 15.3333 20.5449C15.3333 20.5467 15.3333 20.5485 15.3333 20.5503C15.3333 20.5521 15.3333 20.5539 15.3333 20.5557C15.3333 20.5575 15.3333 20.5593 15.3333 20.5611C15.3333 20.5629 15.3333 20.5647 15.3333 20.5664C15.3333 20.5683 15.3333 20.57 15.3333 20.5719C15.3333 20.5736 15.3333 20.5755 15.3333 20.5772C15.3333 20.5791 15.3333 20.5808 15.3333 20.5827C15.3333 20.5844 15.3333 20.5863 15.3333 20.588C15.3333 20.5899 15.3333 20.5916 15.3333 20.5935C15.3333 20.5952 15.3333 20.5969 15.3333 20.5988C15.3333 20.6005 15.3333 20.6024 15.3333 20.6041C15.3333 20.606 15.3333 20.6077 15.3333 20.6096C15.3333 20.6113 15.3333 20.6132 15.3333 20.6149C15.3333 20.6168 15.3333 20.6185 15.3333 20.6204C15.3333 20.6221 15.3333 20.624 15.3333 20.6257C15.3333 20.6276 15.3333 20.6293 15.3333 20.6312C15.3333 20.6329 15.3333 20.6348 15.3333 20.6365C15.3333 20.6384 15.3333 20.6401 15.3333 20.642C15.3333 20.6437 15.3333 20.6456 15.3333 20.6473C15.3333 20.6492 15.3333 20.6509 15.3333 20.6528C15.3333 20.6545 15.3333 20.6564 15.3333 20.6581C15.3333 20.66 15.3333 20.6617 15.3333 20.6636C15.3333 20.6655 15.3333 20.6672 15.3333 20.6691C15.3333 20.6708 15.3333 20.6727 15.3333 20.6744C15.3333 20.6763 15.3333 20.678 15.3333 20.6799C15.3333 20.6816 15.3333 20.6835 15.3333 20.6852C15.3333 20.6871 15.3333 20.6888 15.3333 20.6907C15.3333 20.6924 15.3333 20.6943 15.3333 20.6961C15.3333 20.6979 15.3333 20.6997 15.3333 20.7015C15.3333 20.7033 15.3333 20.7051 15.3333 20.7069C15.3333 20.7087 15.3333 20.7105 15.3333 20.7123C15.3333 20.7141 15.3333 20.716 15.3333 20.7177C15.3333 20.7196 15.3333 20.7213 15.3333 20.7232C15.3333 20.7249 15.3333 20.7268 15.3333 20.7285C15.3333 20.7304 15.3333 20.7323 15.3333 20.734C15.3333 20.7359 15.3333 20.7376 15.3333 20.7395C15.3333 20.7412 15.3333 20.7431 15.3333 20.7448C15.3333 20.7467 15.3333 20.7485 15.3333 20.7503C15.3333 20.7521 15.3333 20.7539 15.3333 20.7557C15.3333 20.7575 15.3333 20.7593 15.3333 20.7612C15.3333 20.7629 15.3333 20.7648 15.3333 20.7665C15.3333 20.7684 15.3333 20.7703 15.3333 20.772C15.3333 20.7739 15.3333 20.7756 15.3333 20.7775C15.3333 20.7792 15.3333 20.7811 15.3333 20.7829C15.3333 20.7847 15.3333 20.7865 15.3333 20.7883C15.3333 20.7901 15.3333 20.792 15.3333 20.7937C15.3333 20.7956 15.3333 20.7973 15.3333 20.7992C15.3333 20.8011 15.3333 20.8028 15.3333 20.8047C15.3333 20.8064 15.3333 20.8083 15.3333 20.8101C15.3333 20.8119 15.3333 20.8137 15.3333 20.8155C15.3333 20.8173 15.3333 20.8192 15.3333 20.8209C15.3333 20.8228 15.3333 20.8245 15.3333 20.8264C15.3333 20.8283 15.3333 20.83 15.3333 20.8319C15.3333 20.8337 15.3333 20.8355 15.3333 20.8373C15.3333 20.8391 15.3333 20.8409 15.3333 20.8428C15.3333 20.8445 15.3333 20.8464 15.3333 20.8481C15.3333 20.85 15.3333 20.8519 15.3333 20.8536C15.3333 20.8555 15.3333 20.8573 15.3333 20.8591C15.3333 20.8609 15.3333 20.8628 15.3333 20.8645C15.3333 20.8664 15.3333 20.8681 15.3333 20.87C15.3333 20.8719 15.3333 20.8736 15.3333 20.8755C15.3333 20.8773 15.3333 20.8791 15.3333 20.8809C15.3333 20.8828 15.3333 20.8845 15.3333 20.8864C15.3333 20.8881 15.3333 20.89 15.3333 20.8919C15.3333 20.8936 15.3333 20.8955 15.3333 20.8973C15.3333 20.8991 15.3333 20.9009 15.3333 20.9028C15.3333 20.9045 15.3333 20.9064 15.3333 20.9083C15.3333 20.91 15.3333 20.9119 15.3333 20.9137C15.3333 20.9155 15.3333 20.9173 15.3333 20.9192C15.3333 20.9209 15.3333 20.9228 15.3333 20.9247C15.3333 20.9264 15.3333 20.9283 15.3333 20.9301C15.3333 20.9319 15.3333 20.9337 15.3333 20.9356C15.3333 20.9373 15.3333 20.9392 15.3333 20.9411C15.3333 20.9428 15.3333 20.9447 15.3333 20.9465C15.3333 20.9483 15.3333 20.9501 15.3333 20.952C15.3333 20.9537 15.3333 20.9556 15.3333 20.9575C15.3333 20.9592 15.3333 20.9611 15.3333 20.9629C15.3333 20.9648 15.3333 20.9665 15.3333 20.9684C15.3333 20.9703 15.3333 20.972 15.3333 20.9739C15.3333 20.9757 15.3333 20.9775 15.3333 20.9793C15.3333 20.9812 15.3333 20.9829 15.3333 20.9848C15.3333 20.9867 15.3333 20.9885 15.3333 20.9903C15.3333 20.9921 15.3333 20.994 15.3333 20.9957C15.3333 20.9976 15.3333 20.9995 15.3333 21.0012C15.3333 21.0031 15.3333 21.0049 15.3333 21.0068C15.3333 21.0085 15.3333 21.0104 15.3333 21.0123C15.3333 21.014 15.3333 21.0159 15.3333 21.0177C15.3333 21.0196 15.3333 21.0213 15.3333 21.0232C15.3333 21.0251 15.3333 21.0269 15.3333 21.0287C15.3333 21.0305 15.3333 21.0324 15.3333 21.0341C15.3333 21.036 15.3333 21.0379 15.3333 21.0397C15.3333 21.0415 15.3333 21.0433 15.3333 21.0452C15.3333 21.0469 15.3333 21.0488 15.3333 21.0507C15.3333 21.0525 15.3333 21.0543 15.3333 21.0561C15.3333 21.058 15.3333 21.0599 15.3333 21.0616C15.3333 21.0635 15.3333 21.0653 15.3333 21.0672C15.3333 21.0689 15.3333 21.0708 15.3333 21.0727C15.3333 21.0745 15.3333 21.0763 15.3333 21.0781C15.3333 21.08 15.3333 21.0819 15.3333 21.0836C15.3333 21.0855 15.3333 21.0873 15.3333 21.0892C15.3333 21.0909 15.3333 21.0928 15.3333 21.0947C15.3333 21.0965 15.3333 21.0983 15.3333 21.1001C15.3333 21.102 15.3333 21.1039 15.3333 21.1056C15.3333 21.1075 15.3333 21.1093 15.3333 21.1112C15.3333 21.1129 15.3333 21.1148 15.3333 21.1167C15.3333 21.1185 15.3333 21.1204 15.3333 21.1221C15.3333 21.124 15.3333 21.1259 15.3333 21.1277C15.3333 21.1295 15.3333 21.1313 15.3333 21.1332C15.3333 21.1351 15.3333 21.1368 15.3333 21.1387C15.3333 21.1405 15.3333 21.1424 15.3333 21.1443C15.3333 21.146 15.3333 21.1479 15.3333 21.1497C15.3333 21.1516 15.3333 21.1535 15.3333 21.1552C15.3333 21.1571 15.3333 21.1589 15.3333 21.1608C15.3333 21.1625 15.3333 21.1644 15.3333 21.1663C15.3333 21.1681 15.3333 21.17 15.3333 21.1717C15.3333 21.1736 15.3333 21.1755 15.3333 21.1773C15.3333 21.1792 15.3333 21.1809 15.3333 21.1828C15.3333 21.1847 15.3333 21.1865 15.3333 21.1884C15.3333 21.1901 15.3333 21.192 15.3333 21.1939C15.3333 21.1957 15.3333 21.1976 15.3333 21.1993C15.3333 21.2012 15.3333 21.2031 15.3333 21.2049C15.3333 21.2068 15.3333 21.2087 15.3333 21.2104C15.3333 21.2123 15.3333 21.2141 15.3333 21.216C15.3333 21.2179 15.3333 21.2196 15.3333 21.2215C15.3333 21.2233 15.3333 21.2252 15.3333 21.2271C15.3333 21.2289 15.3333 21.2307 15.3333 21.2325C15.3333 21.2344 15.3333 21.2363 15.3333 21.2381C15.3333 21.2399 15.3333 21.2417 15.3333 21.2436C15.3333 21.2455 15.3333 21.2473 15.3333 21.2492C15.3333 21.2509 15.3333 21.2528 15.3333 21.2547C15.3333 21.2565 15.3333 21.2584 15.3333 21.2603C15.3333 21.262 15.3333 21.2639 15.3333 21.2657C15.3333 21.2676 15.3333 21.2695 15.3333 21.2713C15.3333 21.2732 15.3333 21.2749 15.3333 21.2768C15.3333 21.2787 15.3333 21.2805 15.3333 21.2824C15.3333 21.2843 15.3333 21.286 15.3333 21.2879C15.3333 21.2897 15.3333 21.2916 15.3333 21.2935C15.3333 21.2953 15.3333 21.2972 15.3333 21.2989C15.3333 21.3008 15.3333 21.3027 15.3333 21.3045C15.3333 21.3064 15.3333 21.3083 15.3333 21.3101C15.3333 21.3119 15.3333 21.3137 15.3333 21.3156C15.3333 21.3175 15.3333 21.3193 15.3333 21.3212H16.6667C16.6667 21.3193 16.6667 21.3175 16.6667 21.3156C16.6667 21.3137 16.6667 21.3119 16.6667 21.3101C16.6667 21.3083 16.6667 21.3064 16.6667 21.3045C16.6667 21.3027 16.6667 21.3008 16.6667 21.2989C16.6667 21.2972 16.6667 21.2953 16.6667 21.2935C16.6667 21.2916 16.6667 21.2897 16.6667 21.2879C16.6667 21.286 16.6667 21.2843 16.6667 21.2824C16.6667 21.2805 16.6667 21.2787 16.6667 21.2768C16.6667 21.2749 16.6667 21.2732 16.6667 21.2713C16.6667 21.2695 16.6667 21.2676 16.6667 21.2657C16.6667 21.2639 16.6667 21.262 16.6667 21.2603C16.6667 21.2584 16.6667 21.2565 16.6667 21.2547C16.6667 21.2528 16.6667 21.2509 16.6667 21.2492C16.6667 21.2473 16.6667 21.2455 16.6667 21.2436C16.6667 21.2417 16.6667 21.2399 16.6667 21.2381C16.6667 21.2363 16.6667 21.2344 16.6667 21.2325C16.6667 21.2307 16.6667 21.2289 16.6667 21.2271C16.6667 21.2252 16.6667 21.2233 16.6667 21.2215C16.6667 21.2196 16.6667 21.2179 16.6667 21.216C16.6667 21.2141 16.6667 21.2123 16.6667 21.2104C16.6667 21.2087 16.6667 21.2068 16.6667 21.2049C16.6667 21.2031 16.6667 21.2012 16.6667 21.1993C16.6667 21.1976 16.6667 21.1957 16.6667 21.1939C16.6667 21.192 16.6667 21.1901 16.6667 21.1884C16.6667 21.1865 16.6667 21.1847 16.6667 21.1828C16.6667 21.1809 16.6667 21.1792 16.6667 21.1773C16.6667 21.1755 16.6667 21.1736 16.6667 21.1717C16.6667 21.17 16.6667 21.1681 16.6667 21.1663C16.6667 21.1644 16.6667 21.1625 16.6667 21.1608C16.6667 21.1589 16.6667 21.1571 16.6667 21.1552C16.6667 21.1535 16.6667 21.1516 16.6667 21.1497C16.6667 21.1479 16.6667 21.146 16.6667 21.1443C16.6667 21.1424 16.6667 21.1405 16.6667 21.1387C16.6667 21.1368 16.6667 21.1351 16.6667 21.1332C16.6667 21.1313 16.6667 21.1295 16.6667 21.1277C16.6667 21.1259 16.6667 21.124 16.6667 21.1221C16.6667 21.1204 16.6667 21.1185 16.6667 21.1167C16.6667 21.1148 16.6667 21.1129 16.6667 21.1112C16.6667 21.1093 16.6667 21.1075 16.6667 21.1056C16.6667 21.1039 16.6667 21.102 16.6667 21.1001C16.6667 21.0983 16.6667 21.0965 16.6667 21.0947C16.6667 21.0928 16.6667 21.0909 16.6667 21.0892C16.6667 21.0873 16.6667 21.0855 16.6667 21.0836C16.6667 21.0819 16.6667 21.08 16.6667 21.0781C16.6667 21.0763 16.6667 21.0745 16.6667 21.0727C16.6667 21.0708 16.6667 21.0689 16.6667 21.0672C16.6667 21.0653 16.6667 21.0635 16.6667 21.0616C16.6667 21.0599 16.6667 21.058 16.6667 21.0561C16.6667 21.0543 16.6667 21.0525 16.6667 21.0507C16.6667 21.0488 16.6667 21.0469 16.6667 21.0452C16.6667 21.0433 16.6667 21.0415 16.6667 21.0397C16.6667 21.0379 16.6667 21.036 16.6667 21.0341C16.6667 21.0324 16.6667 21.0305 16.6667 21.0287C16.6667 21.0269 16.6667 21.0251 16.6667 21.0232C16.6667 21.0213 16.6667 21.0196 16.6667 21.0177C16.6667 21.0159 16.6667 21.014 16.6667 21.0123C16.6667 21.0104 16.6667 21.0085 16.6667 21.0068C16.6667 21.0049 16.6667 21.0031 16.6667 21.0012C16.6667 20.9995 16.6667 20.9976 16.6667 20.9957C16.6667 20.994 16.6667 20.9921 16.6667 20.9903C16.6667 20.9885 16.6667 20.9867 16.6667 20.9848C16.6667 20.9829 16.6667 20.9812 16.6667 20.9793C16.6667 20.9775 16.6667 20.9757 16.6667 20.9739C16.6667 20.972 16.6667 20.9703 16.6667 20.9684C16.6667 20.9665 16.6667 20.9648 16.6667 20.9629C16.6667 20.9611 16.6667 20.9592 16.6667 20.9575C16.6667 20.9556 16.6667 20.9537 16.6667 20.952C16.6667 20.9501 16.6667 20.9483 16.6667 20.9465C16.6667 20.9447 16.6667 20.9428 16.6667 20.9411C16.6667 20.9392 16.6667 20.9373 16.6667 20.9356C16.6667 20.9337 16.6667 20.9319 16.6667 20.9301C16.6667 20.9283 16.6667 20.9264 16.6667 20.9247C16.6667 20.9228 16.6667 20.9209 16.6667 20.9192C16.6667 20.9173 16.6667 20.9155 16.6667 20.9137C16.6667 20.9119 16.6667 20.91 16.6667 20.9083C16.6667 20.9064 16.6667 20.9045 16.6667 20.9028C16.6667 20.9009 16.6667 20.8991 16.6667 20.8973C16.6667 20.8955 16.6667 20.8936 16.6667 20.8919C16.6667 20.89 16.6667 20.8881 16.6667 20.8864C16.6667 20.8845 16.6667 20.8828 16.6667 20.8809C16.6667 20.8791 16.6667 20.8773 16.6667 20.8755C16.6667 20.8736 16.6667 20.8719 16.6667 20.87C16.6667 20.8681 16.6667 20.8664 16.6667 20.8645C16.6667 20.8628 16.6667 20.8609 16.6667 20.8591C16.6667 20.8573 16.6667 20.8555 16.6667 20.8536C16.6667 20.8519 16.6667 20.85 16.6667 20.8481C16.6667 20.8464 16.6667 20.8445 16.6667 20.8428C16.6667 20.8409 16.6667 20.8391 16.6667 20.8373C16.6667 20.8355 16.6667 20.8337 16.6667 20.8319C16.6667 20.83 16.6667 20.8283 16.6667 20.8264C16.6667 20.8245 16.6667 20.8228 16.6667 20.8209C16.6667 20.8192 16.6667 20.8173 16.6667 20.8155C16.6667 20.8137 16.6667 20.8119 16.6667 20.8101C16.6667 20.8083 16.6667 20.8064 16.6667 20.8047C16.6667 20.8028 16.6667 20.8011 16.6667 20.7992C16.6667 20.7973 16.6667 20.7956 16.6667 20.7937C16.6667 20.792 16.6667 20.7901 16.6667 20.7883C16.6667 20.7865 16.6667 20.7847 16.6667 20.7829C16.6667 20.7811 16.6667 20.7792 16.6667 20.7775C16.6667 20.7756 16.6667 20.7739 16.6667 20.772C16.6667 20.7703 16.6667 20.7684 16.6667 20.7665C16.6667 20.7648 16.6667 20.7629 16.6667 20.7612C16.6667 20.7593 16.6667 20.7575 16.6667 20.7557C16.6667 20.7539 16.6667 20.7521 16.6667 20.7503C16.6667 20.7485 16.6667 20.7467 16.6667 20.7448C16.6667 20.7431 16.6667 20.7412 16.6667 20.7395C16.6667 20.7376 16.6667 20.7359 16.6667 20.734C16.6667 20.7323 16.6667 20.7304 16.6667 20.7285C16.6667 20.7268 16.6667 20.7249 16.6667 20.7232C16.6667 20.7213 16.6667 20.7196 16.6667 20.7177C16.6667 20.716 16.6667 20.7141 16.6667 20.7123C16.6667 20.7105 16.6667 20.7087 16.6667 20.7069C16.6667 20.7051 16.6667 20.7033 16.6667 20.7015C16.6667 20.6997 16.6667 20.6979 16.6667 20.6961C16.6667 20.6943 16.6667 20.6924 16.6667 20.6907C16.6667 20.6888 16.6667 20.6871 16.6667 20.6852C16.6667 20.6835 16.6667 20.6816 16.6667 20.6799C16.6667 20.678 16.6667 20.6763 16.6667 20.6744C16.6667 20.6727 16.6667 20.6708 16.6667 20.6691C16.6667 20.6672 16.6667 20.6655 16.6667 20.6636C16.6667 20.6617 16.6667 20.66 16.6667 20.6581C16.6667 20.6564 16.6667 20.6545 16.6667 20.6528C16.6667 20.6509 16.6667 20.6492 16.6667 20.6473C16.6667 20.6456 16.6667 20.6437 16.6667 20.642C16.6667 20.6401 16.6667 20.6384 16.6667 20.6365C16.6667 20.6348 16.6667 20.6329 16.6667 20.6312C16.6667 20.6293 16.6667 20.6276 16.6667 20.6257C16.6667 20.624 16.6667 20.6221 16.6667 20.6204C16.6667 20.6185 16.6667 20.6168 16.6667 20.6149C16.6667 20.6132 16.6667 20.6113 16.6667 20.6096C16.6667 20.6077 16.6667 20.606 16.6667 20.6041C16.6667 20.6024 16.6667 20.6005 16.6667 20.5988C16.6667 20.5969 16.6667 20.5952 16.6667 20.5935C16.6667 20.5916 16.6667 20.5899 16.6667 20.588C16.6667 20.5863 16.6667 20.5844 16.6667 20.5827C16.6667 20.5808 16.6667 20.5791 16.6667 20.5772C16.6667 20.5755 16.6667 20.5736 16.6667 20.5719C16.6667 20.57 16.6667 20.5683 16.6667 20.5664C16.6667 20.5647 16.6667 20.5629 16.6667 20.5611C16.6667 20.5593 16.6667 20.5575 16.6667 20.5557C16.6667 20.5539 16.6667 20.5521 16.6667 20.5503C16.6667 20.5485 16.6667 20.5467 16.6667 20.5449C16.6667 20.5432 16.6667 20.5413 16.6667 20.5396C16.6667 20.5377 16.6667 20.536 16.6667 20.5341C16.6667 20.5324 16.6667 20.5305 16.6667 20.5288C16.6667 20.5271 16.6667 20.5252 16.6667 20.5235C16.6667 20.5216 16.6667 20.5199 16.6667 20.518C16.6667 20.5163 16.6667 20.5144 16.6667 20.5127C16.6667 20.5109 16.6667 20.5091 16.6667 20.5073C16.6667 20.5055 16.6667 20.5037 16.6667 20.5019C16.6667 20.5001 16.6667 20.4984 16.6667 20.4965C16.6667 20.4948 16.6667 20.4929 16.6667 20.4912C16.6667 20.4895 16.6667 20.4876 16.6667 20.4859C16.6667 20.484 16.6667 20.4823 16.6667 20.4804C16.6667 20.4787 16.6667 20.4769 16.6667 20.4751C16.6667 20.4733 16.6667 20.4715 16.6667 20.4697C16.6667 20.468 16.6667 20.4661 16.6667 20.4644C16.6667 20.4625 16.6667 20.4608 16.6667 20.4591C16.6667 20.4572 16.6667 20.4555 16.6667 20.4536C16.6667 20.4519 16.6667 20.4501 16.6667 20.4483C16.6667 20.4465 16.6667 20.4448 16.6667 20.4429C16.6667 20.4412 16.6667 20.4393 16.6667 20.4376C16.6667 20.4359 16.6667 20.434 16.6667 20.4323C16.6667 20.4304 16.6667 20.4287 16.6667 20.4269C16.6667 20.4251 16.6667 20.4233 16.6667 20.4216C16.6667 20.4197 16.6667 20.418 16.6667 20.4161C16.6667 20.4144 16.6667 20.4127 16.6667 20.4108C16.6667 20.4091 16.6667 20.4073 16.6667 20.4055C16.6667 20.4037 16.6667 20.402 16.6667 20.4001C16.6667 20.3984 16.6667 20.3965 16.6667 20.3948C16.6667 20.3931 16.6667 20.3912 16.6667 20.3895C16.6667 20.3877 16.6667 20.3859 16.6667 20.3841C16.6667 20.3824 16.6667 20.3805 16.6667 20.3788C16.6667 20.3771 16.6667 20.3752 16.6667 20.3735C16.6667 20.3717 16.6667 20.3699 16.6667 20.3681C16.6667 20.3663 16.6667 20.3645 16.6667 20.3628C16.6667 20.3609 16.6667 20.3592 16.6667 20.3575C16.6667 20.3556 16.6667 20.3539 16.6667 20.3521C16.6667 20.3503 16.6667 20.3485 16.6667 20.3468C16.6667 20.3451 16.6667 20.3432 16.6667 20.3415C16.6667 20.3397 16.6667 20.3379 16.6667 20.3361C16.6667 20.3344 16.6667 20.3325 16.6667 20.3308C16.6667 20.3291 16.6667 20.3272 16.6667 20.3255C16.6667 20.3237 16.6667 20.3219 16.6667 20.3201C16.6667 20.3184 16.6667 20.3165 16.6667 20.3148C16.6667 20.3131 16.6667 20.3113 16.6667 20.3095C16.6667 20.3077 16.6667 20.306 16.6667 20.3041C16.6667 20.3024 16.6667 20.3007 16.6667 20.2988C16.6667 20.2971 16.6667 20.2953 16.6667 20.2936C16.6667 20.2917 16.6667 20.29 16.6667 20.2883C16.6667 20.2864 16.6667 20.2847 16.6667 20.2829C16.6667 20.2812 16.6667 20.2793 16.6667 20.2776C16.6667 20.2759 16.6667 20.274 16.6667 20.2723C16.6667 20.2705 16.6667 20.2688 16.6667 20.2669C16.6667 20.2652 16.6667 20.2635 16.6667 20.2616C16.6667 20.2599 16.6667 20.2581 16.6667 20.2564C16.6667 20.2545 16.6667 20.2528 16.6667 20.2511C16.6667 20.2493 16.6667 20.2475 16.6667 20.2457C16.6667 20.244 16.6667 20.2423 16.6667 20.2404C16.6667 20.2387 16.6667 20.2369 16.6667 20.2352C16.6667 20.2333 16.6667 20.2316 16.6667 20.2299C16.6667 20.2281 16.6667 20.2263 16.6667 20.2245C16.6667 20.2228 16.6667 20.2211 16.6667 20.2192C16.6667 20.2175 16.6667 20.2157 16.6667 20.214C16.6667 20.2121 16.6667 20.2104 16.6667 20.2087C16.6667 20.2069 16.6667 20.2051 16.6667 20.2033C16.6667 20.2016 16.6667 20.1999 16.6667 20.198C16.6667 20.1963 16.6667 20.1945 16.6667 20.1928C16.6667 20.1911 16.6667 20.1892 16.6667 20.1875C16.6667 20.1857 16.6667 20.184 16.6667 20.1821C16.6667 20.1804 16.6667 20.1787 16.6667 20.1769C16.6667 20.1752 16.6667 20.1733 16.6667 20.1716C16.6667 20.1699 16.6667 20.1681 16.6667 20.1664C16.6667 20.1645 16.6667 20.1628 16.6667 20.1611C16.6667 20.1593 16.6667 20.1576 16.6667 20.1557C16.6667 20.154 16.6667 20.1523 16.6667 20.1505C16.6667 20.1488 16.6667 20.1469 16.6667 20.1452C16.6667 20.1435 16.6667 20.1417 16.6667 20.14C16.6667 20.1381 16.6667 20.1364 16.6667 20.1347C16.6667 20.1329 16.6667 20.1312 16.6667 20.1293C16.6667 20.1276 16.6667 20.1259 16.6667 20.1241C16.6667 20.1224 16.6667 20.1207 16.6667 20.1188C16.6667 20.1171 16.6667 20.1153 16.6667 20.1136C16.6667 20.1119 16.6667 20.1101 16.6667 20.1083C16.6667 20.1065 16.6667 20.1048 16.6667 20.1031C16.6667 20.1013 16.6667 20.0996 16.6667 20.0977C16.6667 20.096 16.6667 20.0943 16.6667 20.0925C16.6667 20.0908 16.6667 20.0891 16.6667 20.0872C16.6667 20.0855 16.6667 20.0837 16.6667 20.082C16.6667 20.0803 16.6667 20.0785 16.6667 20.0768C16.6667 20.0749 16.6667 20.0732 16.6667 20.0715C16.6667 20.0697 16.6667 20.068 16.6667 20.0663C16.6667 20.0645 16.6667 20.0627 16.6667 20.0609C16.6667 20.0592 16.6667 20.0575 16.6667 20.0557C16.6667 20.054 16.6667 20.0523 16.6667 20.0504C16.6667 20.0487 16.6667 20.0469 16.6667 20.0452C16.6667 20.0435 16.6667 20.0417 16.6667 20.04C16.6667 20.0383 16.6667 20.0364 16.6667 20.0347C16.6667 20.0329 16.6667 20.0312 16.6667 20.0295C16.6667 20.0277 16.6667 20.026 16.6667 20.0243C16.6667 20.0225 16.6667 20.0207 16.6667 20.0189C16.6667 20.0172 16.6667 20.0155 16.6667 20.0137C16.6667 20.012 16.6667 20.0103 16.6667 20.0085C16.6667 20.0068 16.6667 20.0051 16.6667 20.0032C16.6667 20.0015 16.6667 19.9997 16.6667 19.998C16.6667 19.9963 16.6667 19.9945 16.6667 19.9928C16.6667 19.9911 16.6667 19.9893 16.6667 19.9876C16.6667 19.9859 16.6667 19.984 16.6667 19.9823C16.6667 19.9805 16.6667 19.9788 16.6667 19.9771C16.6667 19.9753 16.6667 19.9736 16.6667 19.9719C16.6667 19.9701 16.6667 19.9684 16.6667 19.9667C16.6667 19.9649 16.6667 19.9632 16.6667 19.9615C16.6667 19.9596 16.6667 19.9579 16.6667 19.9561C16.6667 19.9544 16.6667 19.9527 16.6667 19.9509C16.6667 19.9492 16.6667 19.9475 16.6667 19.9457C16.6667 19.944 16.6667 19.9423 16.6667 19.9405C16.6667 19.9388 16.6667 19.9371 16.6667 19.9353C16.6667 19.9336 16.6667 19.9319 16.6667 19.9301C16.6667 19.9283 16.6667 19.9265 16.6667 19.9248C16.6667 19.9231 16.6667 19.9213 16.6667 19.9196C16.6667 19.9179 16.6667 19.9161 16.6667 19.9144C16.6667 19.9127 16.6667 19.9109 16.6667 19.9092C16.6667 19.9075 16.6667 19.9057 16.6667 19.904C16.6667 19.9023 16.6667 19.9005 16.6667 19.8988C16.6667 19.8971 16.6667 19.8953 16.6667 19.8936C16.6667 19.8919 16.6667 19.8901 16.6667 19.8884C16.6667 19.8867 16.6667 19.8849 16.6667 19.8832C16.6667 19.8815 16.6667 19.8797 16.6667 19.878C16.6667 19.8763 16.6667 19.8745 16.6667 19.8728C16.6667 19.8711 16.6667 19.8693 16.6667 19.8676C16.6667 19.8659 16.6667 19.8641 16.6667 19.8624C16.6667 19.8607 16.6667 19.8589 16.6667 19.8572C16.6667 19.8555 16.6667 19.8537 16.6667 19.852C16.6667 19.8503 16.6667 19.8485 16.6667 19.8468C16.6667 19.8451 16.6667 19.8433 16.6667 19.8416C16.6667 19.8399 16.6667 19.8381 16.6667 19.8364C16.6667 19.8347 16.6667 19.8329 16.6667 19.8312C16.6667 19.8295 16.6667 19.8277 16.6667 19.826C16.6667 19.8243 16.6667 19.8225 16.6667 19.8208C16.6667 19.8191 16.6667 19.8173 16.6667 19.8156C16.6667 19.8139 16.6667 19.8123 16.6667 19.8105C16.6667 19.8088 16.6667 19.8071 16.6667 19.8053C16.6667 19.8036 16.6667 19.8019 16.6667 19.8001C16.6667 19.7984 16.6667 19.7967 16.6667 19.7949C16.6667 19.7932 16.6667 19.7915 16.6667 19.7897C16.6667 19.788 16.6667 19.7863 16.6667 19.7845C16.6667 19.7828 16.6667 19.7812 16.6667 19.7795C16.6667 19.7777 16.6667 19.776 16.6667 19.7743C16.6667 19.7725 16.6667 19.7708 16.6667 19.7691C16.6667 19.7673 16.6667 19.7656 16.6667 19.7639C16.6667 19.7621 16.6667 19.7604 16.6667 19.7587C16.6667 19.7571 16.6667 19.7553 16.6667 19.7536C16.6667 19.7519 16.6667 19.7501 16.6667 19.7484C16.6667 19.7467 16.6667 19.7449 16.6667 19.7432C16.6667 19.7415 16.6667 19.7397 16.6667 19.7381C16.6667 19.7364 16.6667 19.7347 16.6667 19.7329C16.6667 19.7312 16.6667 19.7295 16.6667 19.7277C16.6667 19.726 16.6667 19.7243 16.6667 19.7227C16.6667 19.7209 16.6667 19.7192 16.6667 19.7175C16.6667 19.7157 16.6667 19.714 16.6667 19.7123C16.6667 19.7105 16.6667 19.7088 16.6667 19.7072C16.6667 19.7055 16.6667 19.7037 16.6667 19.702C16.6667 19.7003 16.6667 19.6985 16.6667 19.6968C16.6667 19.6951 16.6667 19.6935 16.6667 19.6917C16.6667 19.69 16.6667 19.6883 16.6667 19.6865C16.6667 19.6848 16.6667 19.6831 16.6667 19.6815C16.6667 19.6797 16.6667 19.678 16.6667 19.6763C16.6667 19.6745 16.6667 19.6728 16.6667 19.6711C16.6667 19.6695 16.6667 19.6677 16.6667 19.666C16.6667 19.6643 16.6667 19.6625 16.6667 19.6608C16.6667 19.6592 16.6667 19.6575 16.6667 19.6557C16.6667 19.654 16.6667 19.6523 16.6667 19.6505C16.6667 19.6489 16.6667 19.6472 16.6667 19.6455C16.6667 19.6437 16.6667 19.642 16.6667 19.6403C16.6667 19.6387 16.6667 19.6369 16.6667 19.6352C16.6667 19.6335 16.6667 19.6317 16.6667 19.63C16.6667 19.6284 16.6667 19.6267 16.6667 19.6249C16.6667 19.6232 16.6667 19.6215 16.6667 19.6199C16.6667 19.6181 16.6667 19.6164 16.6667 19.6147C16.6667 19.6129 16.6667 19.6113 16.6667 19.6096C16.6667 19.6079 16.6667 19.6061 16.6667 19.6044C16.6667 19.6028 16.6667 19.6011 16.6667 19.5993C16.6667 19.5976 16.6667 19.5959 16.6667 19.5943C16.6667 19.5925 16.6667 19.5908 16.6667 19.5891C16.6667 19.5873 16.6667 19.5857 16.6667 19.584C16.6667 19.5823 16.6667 19.5805 16.6667 19.5789C16.6667 19.5772 16.6667 19.5755 16.6667 19.5737C16.6667 19.572 16.6667 19.5704 16.6667 19.5687C16.6667 19.5669 16.6667 19.5652 16.6667 19.5636C16.6667 19.5619 16.6667 19.5601 16.6667 19.5584C16.6667 19.5568 16.6667 19.5551 16.6667 19.5533C16.6667 19.5516 16.6667 19.5499 16.6667 19.5483C16.6667 19.5465 16.6667 19.5448 16.6667 19.5431C16.6667 19.5415 16.6667 19.5397 16.6667 19.538C16.6667 19.5364 16.6667 19.5347 16.6667 19.5329C16.6667 19.5312 16.6667 19.5296 16.6667 19.5279C16.6667 19.5261 16.6667 19.5244 16.6667 19.5228C16.6667 19.5211 16.6667 19.5193 16.6667 19.5176C16.6667 19.516 16.6667 19.5143 16.6667 19.5125C16.6667 19.5109 16.6667 19.5092 16.6667 19.5075C16.6667 19.5057 16.6667 19.5041 16.6667 19.5024C16.6667 19.5007 16.6667 19.4989 16.6667 19.4973C16.6667 19.4956 16.6667 19.4939 16.6667 19.4923C16.6667 19.4905 16.6667 19.4888 16.6667 19.4872C16.6667 19.4855 16.6667 19.4837 16.6667 19.482C16.6667 19.4804 16.6667 19.4787 16.6667 19.4769C16.6667 19.4753 16.6667 19.4736 16.6667 19.4719C16.6667 19.4703 16.6667 19.4685 16.6667 19.4668C16.6667 19.4651 16.6667 19.4635 16.6667 19.4617C16.6667 19.46 16.6667 19.4584 16.6667 19.4567C16.6667 19.4549 16.6667 19.4533 16.6667 19.4516C16.6667 19.4499 16.6667 19.4483 16.6667 19.4465C16.6667 19.4448 16.6667 19.4432 16.6667 19.4415C16.6667 19.4397 16.6667 19.4381 16.6667 19.4364C16.6667 19.4347 16.6667 19.4331 16.6667 19.4313C16.6667 19.4296 16.6667 19.428 16.6667 19.4263C16.6667 19.4245 16.6667 19.4229 16.6667 19.4212C16.6667 19.4195 16.6667 19.4179 16.6667 19.4161C16.6667 19.4145 16.6667 19.4128 16.6667 19.4111C16.6667 19.4095 16.6667 19.4077 16.6667 19.406C16.6667 19.4044 16.6667 19.4027 16.6667 19.4009C16.6667 19.3993 16.6667 19.3976 16.6667 19.396C16.6667 19.3943 16.6667 19.3925 16.6667 19.3909C16.6667 19.3892 16.6667 19.3875 16.6667 19.3859C16.6667 19.3841 16.6667 19.3825 16.6667 19.3808C16.6667 19.3791 16.6667 19.3775 16.6667 19.3757C16.6667 19.374 16.6667 19.3724 16.6667 19.3707C16.6667 19.3691 16.6667 19.3673 16.6667 19.3656C16.6667 19.364 16.6667 19.3623 16.6667 19.3607C16.6667 19.3589 16.6667 19.3572 16.6667 19.3556C16.6667 19.3539 16.6667 19.3523 16.6667 19.3505C16.6667 19.3489 16.6667 19.3472 16.6667 19.3455C16.6667 19.3439 16.6667 19.3421 16.6667 19.3405C16.6667 19.3388 16.6667 19.3371 16.6667 19.3355C16.6667 19.3337 16.6667 19.3321 16.6667 19.3304C16.6667 19.3288 16.6667 19.3271 16.6667 19.3253C16.6667 19.3237 16.6667 19.322 16.6667 19.3204C16.6667 19.3187 16.6667 19.3171 16.6667 19.3153C16.6667 19.3136 16.6667 19.312 16.6667 19.3103C16.6667 19.3087 16.6667 19.3069 16.6667 19.3053C16.6667 19.3036 16.6667 19.302 16.6667 19.3003C16.6667 19.2985 16.6667 19.2969 16.6667 19.2952C16.6667 19.2936 16.6667 19.2919 16.6667 19.2903C16.6667 19.2885 16.6667 19.2869 16.6667 19.2852C16.6667 19.2836 16.6667 19.2819 16.6667 19.2803C16.6667 19.2785 16.6667 19.2768 16.6667 19.2752C16.6667 19.2735 16.6667 19.2719 16.6667 19.2701C16.6667 19.2685 16.6667 19.2668 16.6667 19.2652C16.6667 19.2635 16.6667 19.2619 16.6667 19.2601C16.6667 19.2585 16.6667 19.2568 16.6667 19.2552C16.6667 19.2535 16.6667 19.2519 16.6667 19.2501C16.6667 19.2485 16.6667 19.2468 16.6667 19.2452C16.6667 19.2435 16.6667 19.2419 16.6667 19.2401C16.6667 19.2385 16.6667 19.2368 16.6667 19.2352C16.6667 19.2335 16.6667 19.2319 16.6667 19.2301C16.6667 19.2285 16.6667 19.2268 16.6667 19.2252C16.6667 19.2235 16.6667 19.2219 16.6667 19.2201C16.6667 19.2185 16.6667 19.2168 16.6667 19.2152C16.6667 19.2135 16.6667 19.2119 16.6667 19.2103C16.6667 19.2085 16.6667 19.2069 16.6667 19.2052C16.6667 19.2036 16.6667 19.2019 16.6667 19.2003C16.6667 19.1985 16.6667 19.1969 16.6667 19.1952C16.6667 19.1936 16.6667 19.1919 16.6667 19.1903C16.6667 19.1887 16.6667 19.1869 16.6667 19.1853C16.6667 19.1836 16.6667 19.182 16.6667 19.1803C16.6667 19.1787 16.6667 19.1769 16.6667 19.1753C16.6667 19.1737 16.6667 19.172 16.6667 19.1704C16.6667 19.1687 16.6667 19.1671 16.6667 19.1653C16.6667 19.1637 16.6667 19.1621 16.6667 19.1604C16.6667 19.1588 16.6667 19.1571 16.6667 19.1555C16.6667 19.1537 16.6667 19.1521 16.6667 19.1505C16.6667 19.1488 16.6667 19.1472 16.6667 19.1455C16.6667 19.1439 16.6667 19.1423 16.6667 19.1405C16.6667 19.1389 16.6667 19.1372 16.6667 19.1356C16.6667 19.1339 16.6667 19.1323 16.6667 19.1307C16.6667 19.1289 16.6667 19.1273 16.6667 19.1257C16.6667 19.124 16.6667 19.1224 16.6667 19.1207C16.6667 19.1191 16.6667 19.1175 16.6667 19.1157C16.6667 19.1141 16.6667 19.1124 16.6667 19.1108C16.6667 19.1092 16.6667 19.1075 16.6667 19.1059C16.6667 19.1043 16.6667 19.1025 16.6667 19.1009C16.6667 19.0992 16.6667 19.0976 16.6667 19.096C16.6667 19.0943 16.6667 19.0927 16.6667 19.0911C16.6667 19.0893 16.6667 19.0877 16.6667 19.086C16.6667 19.0844 16.6667 19.0828 16.6667 19.0811C16.6667 19.0795 16.6667 19.0779 16.6667 19.0761C16.6667 19.0745 16.6667 19.0729 16.6667 19.0712C16.6667 19.0696 16.6667 19.068 16.6667 19.0663C16.6667 19.0647 16.6667 19.0631 16.6667 19.0613C16.6667 19.0597 16.6667 19.0581 16.6667 19.0564C16.6667 19.0548 16.6667 19.0532 16.6667 19.0515C16.6667 19.0499 16.6667 19.0483 16.6667 19.0465C16.6667 19.0449 16.6667 19.0433 16.6667 19.0416C16.6667 19.04 16.6667 19.0384 16.6667 19.0367C16.6667 19.0351 16.6667 19.0335 16.6667 19.0317C16.6667 19.0301 16.6667 19.0285 16.6667 19.0269C16.6667 19.0252 16.6667 19.0236 16.6667 19.022C16.6667 19.0203 16.6667 19.0187 16.6667 19.0171C16.6667 19.0153 16.6667 19.0137 16.6667 19.0121C16.6667 19.0105 16.6667 19.0088 16.6667 19.0072C16.6667 19.0056 16.6667 19.0039 16.6667 19.0023C16.6667 19.0007 16.6667 18.9991 16.6667 18.9973C16.6667 18.9957 16.6667 18.9941 16.6667 18.9924C16.6667 18.9908 16.6667 18.9892 16.6667 18.9876C16.6667 18.9859 16.6667 18.9843 16.6667 18.9827C16.6667 18.9811 16.6667 18.9793 16.6667 18.9777C16.6667 18.9761 16.6667 18.9745 16.6667 18.9728C16.6667 18.9712 16.6667 18.9696 16.6667 18.968C16.6667 18.9663 16.6667 18.9647 16.6667 18.9631C16.6667 18.9615 16.6667 18.9597 16.6667 18.9581C16.6667 18.9565 16.6667 18.9549 16.6667 18.9532C16.6667 18.9516 16.6667 18.95 16.6667 18.9484C16.6667 18.9467 16.6667 18.9451 16.6667 18.9435C16.6667 18.9419 16.6667 18.9403 16.6667 18.9385C16.6667 18.9369 16.6667 18.9353 16.6667 18.9337C16.6667 18.932 16.6667 18.9304 16.6667 18.9288C16.6667 18.9272 16.6667 18.9256 16.6667 18.9239C16.6667 18.9223 16.6667 18.9207 16.6667 18.9191C16.6667 18.9175 16.6667 18.9157 16.6667 18.9141C16.6667 18.9125 16.6667 18.9109 16.6667 18.9093C16.6667 18.9076 16.6667 18.906 16.6667 18.9044C16.6667 18.9028 16.6667 18.9012 16.6667 18.8995C16.6667 18.8979 16.6667 18.8963 16.6667 18.8947C16.6667 18.8931 16.6667 18.8913 16.6667 18.8897C16.6667 18.8881 16.6667 18.8865 16.6667 18.8849C16.6667 18.8833 16.6667 18.8816 16.6667 18.88C16.6667 18.8784 16.6667 18.8768 16.6667 18.8752C16.6667 18.8736 16.6667 18.8719 16.6667 18.8703C16.6667 18.8687 16.6667 18.8671 16.6667 18.8655C16.6667 18.8639 16.6667 18.8623 16.6667 18.8605C16.6667 18.8589 16.6667 18.8573 16.6667 18.8557C16.6667 18.8541 16.6667 18.8525 16.6667 18.8509C16.6667 18.8492 16.6667 18.8476 16.6667 18.846C16.6667 18.8444 16.6667 18.8428 16.6667 18.8412C16.6667 18.8396 16.6667 18.8379 16.6667 18.8363C16.6667 18.8347 16.6667 18.8331 16.6667 18.8315C16.6667 18.8299 16.6667 18.8283 16.6667 18.8267C16.6667 18.8251 16.6667 18.8233 16.6667 18.8217C16.6667 18.8201 16.6667 18.8185 16.6667 18.8169C16.6667 18.8153 16.6667 18.8137 16.6667 18.8121C16.6667 18.8105 16.6667 18.8088 16.6667 18.8072C16.6667 18.8056 16.6667 18.804 16.6667 18.8024C16.6667 18.8008 16.6667 18.7992 16.6667 18.7976C16.6667 18.796 16.6667 18.7944 16.6667 18.7928C16.6667 18.7911 16.6667 18.7895 16.6667 18.7879C16.6667 18.7863 16.6667 18.7847 16.6667 18.7831C16.6667 18.7815 16.6667 18.7799 16.6667 18.7783C16.6667 18.7767 16.6667 18.7751 16.6667 18.7735C16.6667 18.7719 16.6667 18.7703 16.6667 18.7685C16.6667 18.7669 16.6667 18.7653 16.6667 18.7637C16.6667 18.7621 16.6667 18.7605 16.6667 18.7589C16.6667 18.7573 16.6667 18.7557 16.6667 18.7541C16.6667 18.7525 16.6667 18.7509 16.6667 18.7493C16.6667 18.7477 16.6667 18.7461 16.6667 18.7445C16.6667 18.7429 16.6667 18.7413 16.6667 18.7397C16.6667 18.7381 16.6667 18.7365 16.6667 18.7349C16.6667 18.7333 16.6667 18.7317 16.6667 18.7301C16.6667 18.7285 16.6667 18.7269 16.6667 18.7253C16.6667 18.7236 16.6667 18.722 16.6667 18.7204C16.6667 18.7188 16.6667 18.7172 16.6667 18.7156C16.6667 18.714 16.6667 18.7124 16.6667 18.7108C16.6667 18.7092 16.6667 18.7076 16.6667 18.706C16.6667 18.7044 16.6667 18.7028 16.6667 18.7012C16.6667 18.6996 16.6667 18.698 16.6667 18.6964C16.6667 18.6949 16.6667 18.6933 16.6667 18.6917C16.6667 18.6901 16.6667 18.6885 16.6667 18.6869C16.6667 18.6853 16.6667 18.6837 16.6667 18.6821C16.6667 18.6805 16.6667 18.6789 16.6667 18.6773C16.6667 18.6757 16.6667 18.6741 16.6667 18.6725C16.6667 18.6709 16.6667 18.6693 16.6667 18.6677C16.6667 18.6661 16.6667 18.6645 16.6667 18.6629C16.6667 18.6613 16.6667 18.6597 16.6667 18.6581H15.3333ZM12 15.3255C13.8411 15.3255 15.3333 16.8173 15.3333 18.6581H16.6667C16.6667 16.0807 14.5772 13.9922 12 13.9922V15.3255ZM3.33333 18.6581C3.33333 16.8173 4.82557 15.3255 6.66667 15.3255V13.9922C4.08948 13.9922 2 16.0807 2 18.6581H3.33333ZM20.6667 19.3333V21.3333H22V19.3333H20.6667ZM21.3333 20.6667H18V22H21.3333V20.6667ZM18 16.6667C19.4728 16.6667 20.6667 17.8605 20.6667 19.3333H22C22 17.1241 20.2092 15.3333 18 15.3333V16.6667ZM17.3333 12.6667C16.2288 12.6667 15.3333 11.7712 15.3333 10.6667H14C14 12.5076 15.4924 14 17.3333 14V12.6667ZM19.3333 10.6667C19.3333 11.7712 18.4379 12.6667 17.3333 12.6667V14C19.1743 14 20.6667 12.5076 20.6667 10.6667H19.3333ZM17.3333 8.66667C18.4379 8.66667 19.3333 9.56209 19.3333 10.6667H20.6667C20.6667 8.82572 19.1743 7.33333 17.3333 7.33333V8.66667ZM17.3333 7.33333C15.4924 7.33333 14 8.82572 14 10.6667H15.3333C15.3333 9.56209 16.2288 8.66667 17.3333 8.66667V7.33333Z" fill="#0E101F"/>
</svg>
