<svg width="20" height="20" viewBox="0 0 20 20" fill="none" xmlns="http://www.w3.org/2000/svg">
<path d="M14 19.3212V19.9879H14.6667V19.3212H14ZM0.666667 19.3212H0V19.9879H0.666667V19.3212ZM19.3333 19.3333V20H20V19.3333H19.3333ZM10.6667 4.66405C10.6667 6.50335 9.17489 7.99479 7.33333 7.99479V9.32812C9.91044 9.32812 12 7.24055 12 4.66405H10.6667ZM7.33333 7.99479C5.49177 7.99479 4 6.50335 4 4.66405H2.66667C2.66667 7.24055 4.75623 9.32812 7.33333 9.32812V7.99479ZM4 4.66405C4 2.82476 5.49177 1.33333 7.33333 1.33333V0C4.75623 0 2.66667 2.08756 2.66667 4.66405H4ZM7.33333 1.33333C9.17489 1.33333 10.6667 2.82476 10.6667 4.66405H12C12 2.08756 9.91044 0 7.33333 0V1.33333ZM14 18.6545H0.666667V19.9879H14V18.6545ZM1.33333 19.3212C1.33333 19.3193 1.33333 19.3175 1.33333 19.3156C1.33333 19.3137 1.33333 19.3119 1.33333 19.3101C1.33333 19.3083 1.33333 19.3064 1.33333 19.3045C1.33333 19.3027 1.33333 19.3008 1.33333 19.2989C1.33333 19.2972 1.33333 19.2953 1.33333 19.2935C1.33333 19.2916 1.33333 19.2897 1.33333 19.2879C1.33333 19.286 1.33333 19.2843 1.33333 19.2824C1.33333 19.2805 1.33333 19.2787 1.33333 19.2768C1.33333 19.2749 1.33333 19.2732 1.33333 19.2713C1.33333 19.2695 1.33333 19.2676 1.33333 19.2657C1.33333 19.2639 1.33333 19.262 1.33333 19.2603C1.33333 19.2584 1.33333 19.2565 1.33333 19.2547C1.33333 19.2528 1.33333 19.2509 1.33333 19.2492C1.33333 19.2473 1.33333 19.2455 1.33333 19.2436C1.33333 19.2417 1.33333 19.2399 1.33333 19.2381C1.33333 19.2363 1.33333 19.2344 1.33333 19.2325C1.33333 19.2307 1.33333 19.2289 1.33333 19.2271C1.33333 19.2252 1.33333 19.2233 1.33333 19.2215C1.33333 19.2196 1.33333 19.2179 1.33333 19.216C1.33333 19.2141 1.33333 19.2123 1.33333 19.2104C1.33333 19.2087 1.33333 19.2068 1.33333 19.2049C1.33333 19.2031 1.33333 19.2012 1.33333 19.1993C1.33333 19.1976 1.33333 19.1957 1.33333 19.1939C1.33333 19.192 1.33333 19.1901 1.33333 19.1884C1.33333 19.1865 1.33333 19.1847 1.33333 19.1828C1.33333 19.1809 1.33333 19.1792 1.33333 19.1773C1.33333 19.1755 1.33333 19.1736 1.33333 19.1717C1.33333 19.17 1.33333 19.1681 1.33333 19.1663C1.33333 19.1644 1.33333 19.1625 1.33333 19.1608C1.33333 19.1589 1.33333 19.1571 1.33333 19.1552C1.33333 19.1535 1.33333 19.1516 1.33333 19.1497C1.33333 19.1479 1.33333 19.146 1.33333 19.1443C1.33333 19.1424 1.33333 19.1405 1.33333 19.1387C1.33333 19.1368 1.33333 19.1351 1.33333 19.1332C1.33333 19.1313 1.33333 19.1295 1.33333 19.1277C1.33333 19.1259 1.33333 19.124 1.33333 19.1221C1.33333 19.1204 1.33333 19.1185 1.33333 19.1167C1.33333 19.1148 1.33333 19.1129 1.33333 19.1112C1.33333 19.1093 1.33333 19.1075 1.33333 19.1056C1.33333 19.1039 1.33333 19.102 1.33333 19.1001C1.33333 19.0983 1.33333 19.0965 1.33333 19.0947C1.33333 19.0928 1.33333 19.0909 1.33333 19.0892C1.33333 19.0873 1.33333 19.0855 1.33333 19.0836C1.33333 19.0819 1.33333 19.08 1.33333 19.0781C1.33333 19.0763 1.33333 19.0745 1.33333 19.0727C1.33333 19.0708 1.33333 19.0689 1.33333 19.0672C1.33333 19.0653 1.33333 19.0635 1.33333 19.0616C1.33333 19.0599 1.33333 19.058 1.33333 19.0561C1.33333 19.0543 1.33333 19.0525 1.33333 19.0507C1.33333 19.0488 1.33333 19.0469 1.33333 19.0452C1.33333 19.0433 1.33333 19.0415 1.33333 19.0397C1.33333 19.0379 1.33333 19.036 1.33333 19.0341C1.33333 19.0324 1.33333 19.0305 1.33333 19.0287C1.33333 19.0269 1.33333 19.0251 1.33333 19.0232C1.33333 19.0213 1.33333 19.0196 1.33333 19.0177C1.33333 19.0159 1.33333 19.014 1.33333 19.0123C1.33333 19.0104 1.33333 19.0085 1.33333 19.0068C1.33333 19.0049 1.33333 19.0031 1.33333 19.0012C1.33333 18.9995 1.33333 18.9976 1.33333 18.9957C1.33333 18.994 1.33333 18.9921 1.33333 18.9903C1.33333 18.9885 1.33333 18.9867 1.33333 18.9848C1.33333 18.9829 1.33333 18.9812 1.33333 18.9793C1.33333 18.9775 1.33333 18.9757 1.33333 18.9739C1.33333 18.972 1.33333 18.9703 1.33333 18.9684C1.33333 18.9665 1.33333 18.9648 1.33333 18.9629C1.33333 18.9611 1.33333 18.9592 1.33333 18.9575C1.33333 18.9556 1.33333 18.9537 1.33333 18.952C1.33333 18.9501 1.33333 18.9483 1.33333 18.9465C1.33333 18.9447 1.33333 18.9428 1.33333 18.9411C1.33333 18.9392 1.33333 18.9373 1.33333 18.9356C1.33333 18.9337 1.33333 18.9319 1.33333 18.9301C1.33333 18.9283 1.33333 18.9264 1.33333 18.9247C1.33333 18.9228 1.33333 18.9209 1.33333 18.9192C1.33333 18.9173 1.33333 18.9155 1.33333 18.9137C1.33333 18.9119 1.33333 18.91 1.33333 18.9083C1.33333 18.9064 1.33333 18.9045 1.33333 18.9028C1.33333 18.9009 1.33333 18.8991 1.33333 18.8973C1.33333 18.8955 1.33333 18.8936 1.33333 18.8919C1.33333 18.89 1.33333 18.8881 1.33333 18.8864C1.33333 18.8845 1.33333 18.8828 1.33333 18.8809C1.33333 18.8791 1.33333 18.8773 1.33333 18.8755C1.33333 18.8736 1.33333 18.8719 1.33333 18.87C1.33333 18.8681 1.33333 18.8664 1.33333 18.8645C1.33333 18.8628 1.33333 18.8609 1.33333 18.8591C1.33333 18.8573 1.33333 18.8555 1.33333 18.8536C1.33333 18.8519 1.33333 18.85 1.33333 18.8481C1.33333 18.8464 1.33333 18.8445 1.33333 18.8428C1.33333 18.8409 1.33333 18.8391 1.33333 18.8373C1.33333 18.8355 1.33333 18.8337 1.33333 18.8319C1.33333 18.83 1.33333 18.8283 1.33333 18.8264C1.33333 18.8245 1.33333 18.8228 1.33333 18.8209C1.33333 18.8192 1.33333 18.8173 1.33333 18.8155C1.33333 18.8137 1.33333 18.8119 1.33333 18.8101C1.33333 18.8083 1.33333 18.8064 1.33333 18.8047C1.33333 18.8028 1.33333 18.8011 1.33333 18.7992C1.33333 18.7973 1.33333 18.7956 1.33333 18.7937C1.33333 18.792 1.33333 18.7901 1.33333 18.7883C1.33333 18.7865 1.33333 18.7847 1.33333 18.7829C1.33333 18.7811 1.33333 18.7792 1.33333 18.7775C1.33333 18.7756 1.33333 18.7739 1.33333 18.772C1.33333 18.7703 1.33333 18.7684 1.33333 18.7665C1.33333 18.7648 1.33333 18.7629 1.33333 18.7612C1.33333 18.7593 1.33333 18.7575 1.33333 18.7557C1.33333 18.7539 1.33333 18.7521 1.33333 18.7503C1.33333 18.7485 1.33333 18.7467 1.33333 18.7448C1.33333 18.7431 1.33333 18.7412 1.33333 18.7395C1.33333 18.7376 1.33333 18.7359 1.33333 18.734C1.33333 18.7323 1.33333 18.7304 1.33333 18.7285C1.33333 18.7268 1.33333 18.7249 1.33333 18.7232C1.33333 18.7213 1.33333 18.7196 1.33333 18.7177C1.33333 18.716 1.33333 18.7141 1.33333 18.7123C1.33333 18.7105 1.33333 18.7087 1.33333 18.7069C1.33333 18.7051 1.33333 18.7033 1.33333 18.7015C1.33333 18.6997 1.33333 18.6979 1.33333 18.6961C1.33333 18.6943 1.33333 18.6924 1.33333 18.6907C1.33333 18.6888 1.33333 18.6871 1.33333 18.6852C1.33333 18.6835 1.33333 18.6816 1.33333 18.6799C1.33333 18.678 1.33333 18.6763 1.33333 18.6744C1.33333 18.6727 1.33333 18.6708 1.33333 18.6691C1.33333 18.6672 1.33333 18.6655 1.33333 18.6636C1.33333 18.6617 1.33333 18.66 1.33333 18.6581C1.33333 18.6564 1.33333 18.6545 1.33333 18.6528C1.33333 18.6509 1.33333 18.6492 1.33333 18.6473C1.33333 18.6456 1.33333 18.6437 1.33333 18.642C1.33333 18.6401 1.33333 18.6384 1.33333 18.6365C1.33333 18.6348 1.33333 18.6329 1.33333 18.6312C1.33333 18.6293 1.33333 18.6276 1.33333 18.6257C1.33333 18.624 1.33333 18.6221 1.33333 18.6204C1.33333 18.6185 1.33333 18.6168 1.33333 18.6149C1.33333 18.6132 1.33333 18.6113 1.33333 18.6096C1.33333 18.6077 1.33333 18.606 1.33333 18.6041C1.33333 18.6024 1.33333 18.6005 1.33333 18.5988C1.33333 18.5969 1.33333 18.5952 1.33333 18.5935C1.33333 18.5916 1.33333 18.5899 1.33333 18.588C1.33333 18.5863 1.33333 18.5844 1.33333 18.5827C1.33333 18.5808 1.33333 18.5791 1.33333 18.5772C1.33333 18.5755 1.33333 18.5736 1.33333 18.5719C1.33333 18.57 1.33333 18.5683 1.33333 18.5664C1.33333 18.5647 1.33333 18.5629 1.33333 18.5611C1.33333 18.5593 1.33333 18.5575 1.33333 18.5557C1.33333 18.5539 1.33333 18.5521 1.33333 18.5503C1.33333 18.5485 1.33333 18.5467 1.33333 18.5449C1.33333 18.5432 1.33333 18.5413 1.33333 18.5396C1.33333 18.5377 1.33333 18.536 1.33333 18.5341C1.33333 18.5324 1.33333 18.5305 1.33333 18.5288C1.33333 18.5271 1.33333 18.5252 1.33333 18.5235C1.33333 18.5216 1.33333 18.5199 1.33333 18.518C1.33333 18.5163 1.33333 18.5144 1.33333 18.5127C1.33333 18.5109 1.33333 18.5091 1.33333 18.5073C1.33333 18.5055 1.33333 18.5037 1.33333 18.5019C1.33333 18.5001 1.33333 18.4984 1.33333 18.4965C1.33333 18.4948 1.33333 18.4929 1.33333 18.4912C1.33333 18.4895 1.33333 18.4876 1.33333 18.4859C1.33333 18.484 1.33333 18.4823 1.33333 18.4804C1.33333 18.4787 1.33333 18.4769 1.33333 18.4751C1.33333 18.4733 1.33333 18.4715 1.33333 18.4697C1.33333 18.468 1.33333 18.4661 1.33333 18.4644C1.33333 18.4625 1.33333 18.4608 1.33333 18.4591C1.33333 18.4572 1.33333 18.4555 1.33333 18.4536C1.33333 18.4519 1.33333 18.4501 1.33333 18.4483C1.33333 18.4465 1.33333 18.4448 1.33333 18.4429C1.33333 18.4412 1.33333 18.4393 1.33333 18.4376C1.33333 18.4359 1.33333 18.434 1.33333 18.4323C1.33333 18.4304 1.33333 18.4287 1.33333 18.4269C1.33333 18.4251 1.33333 18.4233 1.33333 18.4216C1.33333 18.4197 1.33333 18.418 1.33333 18.4161C1.33333 18.4144 1.33333 18.4127 1.33333 18.4108C1.33333 18.4091 1.33333 18.4073 1.33333 18.4055C1.33333 18.4037 1.33333 18.402 1.33333 18.4001C1.33333 18.3984 1.33333 18.3965 1.33333 18.3948C1.33333 18.3931 1.33333 18.3912 1.33333 18.3895C1.33333 18.3877 1.33333 18.3859 1.33333 18.3841C1.33333 18.3824 1.33333 18.3805 1.33333 18.3788C1.33333 18.3771 1.33333 18.3752 1.33333 18.3735C1.33333 18.3717 1.33333 18.3699 1.33333 18.3681C1.33333 18.3663 1.33333 18.3645 1.33333 18.3628C1.33333 18.3609 1.33333 18.3592 1.33333 18.3575C1.33333 18.3556 1.33333 18.3539 1.33333 18.3521C1.33333 18.3503 1.33333 18.3485 1.33333 18.3468C1.33333 18.3451 1.33333 18.3432 1.33333 18.3415C1.33333 18.3397 1.33333 18.3379 1.33333 18.3361C1.33333 18.3344 1.33333 18.3325 1.33333 18.3308C1.33333 18.3291 1.33333 18.3272 1.33333 18.3255C1.33333 18.3237 1.33333 18.3219 1.33333 18.3201C1.33333 18.3184 1.33333 18.3165 1.33333 18.3148C1.33333 18.3131 1.33333 18.3113 1.33333 18.3095C1.33333 18.3077 1.33333 18.306 1.33333 18.3041C1.33333 18.3024 1.33333 18.3007 1.33333 18.2988C1.33333 18.2971 1.33333 18.2953 1.33333 18.2936C1.33333 18.2917 1.33333 18.29 1.33333 18.2883C1.33333 18.2864 1.33333 18.2847 1.33333 18.2829C1.33333 18.2812 1.33333 18.2793 1.33333 18.2776C1.33333 18.2759 1.33333 18.274 1.33333 18.2723C1.33333 18.2705 1.33333 18.2688 1.33333 18.2669C1.33333 18.2652 1.33333 18.2635 1.33333 18.2616C1.33333 18.2599 1.33333 18.2581 1.33333 18.2564C1.33333 18.2545 1.33333 18.2528 1.33333 18.2511C1.33333 18.2493 1.33333 18.2475 1.33333 18.2457C1.33333 18.244 1.33333 18.2423 1.33333 18.2404C1.33333 18.2387 1.33333 18.2369 1.33333 18.2352C1.33333 18.2333 1.33333 18.2316 1.33333 18.2299C1.33333 18.2281 1.33333 18.2263 1.33333 18.2245C1.33333 18.2228 1.33333 18.2211 1.33333 18.2192C1.33333 18.2175 1.33333 18.2157 1.33333 18.214C1.33333 18.2121 1.33333 18.2104 1.33333 18.2087C1.33333 18.2069 1.33333 18.2051 1.33333 18.2033C1.33333 18.2016 1.33333 18.1999 1.33333 18.198C1.33333 18.1963 1.33333 18.1945 1.33333 18.1928C1.33333 18.1911 1.33333 18.1892 1.33333 18.1875C1.33333 18.1857 1.33333 18.184 1.33333 18.1821C1.33333 18.1804 1.33333 18.1787 1.33333 18.1769C1.33333 18.1752 1.33333 18.1733 1.33333 18.1716C1.33333 18.1699 1.33333 18.1681 1.33333 18.1664C1.33333 18.1645 1.33333 18.1628 1.33333 18.1611C1.33333 18.1593 1.33333 18.1576 1.33333 18.1557C1.33333 18.154 1.33333 18.1523 1.33333 18.1505C1.33333 18.1488 1.33333 18.1469 1.33333 18.1452C1.33333 18.1435 1.33333 18.1417 1.33333 18.14C1.33333 18.1381 1.33333 18.1364 1.33333 18.1347C1.33333 18.1329 1.33333 18.1312 1.33333 18.1293C1.33333 18.1276 1.33333 18.1259 1.33333 18.1241C1.33333 18.1224 1.33333 18.1207 1.33333 18.1188C1.33333 18.1171 1.33333 18.1153 1.33333 18.1136C1.33333 18.1119 1.33333 18.1101 1.33333 18.1083C1.33333 18.1065 1.33333 18.1048 1.33333 18.1031C1.33333 18.1013 1.33333 18.0996 1.33333 18.0977C1.33333 18.096 1.33333 18.0943 1.33333 18.0925C1.33333 18.0908 1.33333 18.0891 1.33333 18.0872C1.33333 18.0855 1.33333 18.0837 1.33333 18.082C1.33333 18.0803 1.33333 18.0785 1.33333 18.0768C1.33333 18.0749 1.33333 18.0732 1.33333 18.0715C1.33333 18.0697 1.33333 18.068 1.33333 18.0663C1.33333 18.0645 1.33333 18.0627 1.33333 18.0609C1.33333 18.0592 1.33333 18.0575 1.33333 18.0557C1.33333 18.054 1.33333 18.0523 1.33333 18.0504C1.33333 18.0487 1.33333 18.0469 1.33333 18.0452C1.33333 18.0435 1.33333 18.0417 1.33333 18.04C1.33333 18.0383 1.33333 18.0364 1.33333 18.0347C1.33333 18.0329 1.33333 18.0312 1.33333 18.0295C1.33333 18.0277 1.33333 18.026 1.33333 18.0243C1.33333 18.0225 1.33333 18.0207 1.33333 18.0189C1.33333 18.0172 1.33333 18.0155 1.33333 18.0137C1.33333 18.012 1.33333 18.0103 1.33333 18.0085C1.33333 18.0068 1.33333 18.0051 1.33333 18.0032C1.33333 18.0015 1.33333 17.9997 1.33333 17.998C1.33333 17.9963 1.33333 17.9945 1.33333 17.9928C1.33333 17.9911 1.33333 17.9893 1.33333 17.9876C1.33333 17.9859 1.33333 17.984 1.33333 17.9823C1.33333 17.9805 1.33333 17.9788 1.33333 17.9771C1.33333 17.9753 1.33333 17.9736 1.33333 17.9719C1.33333 17.9701 1.33333 17.9684 1.33333 17.9667C1.33333 17.9649 1.33333 17.9632 1.33333 17.9615C1.33333 17.9596 1.33333 17.9579 1.33333 17.9561C1.33333 17.9544 1.33333 17.9527 1.33333 17.9509C1.33333 17.9492 1.33333 17.9475 1.33333 17.9457C1.33333 17.944 1.33333 17.9423 1.33333 17.9405C1.33333 17.9388 1.33333 17.9371 1.33333 17.9353C1.33333 17.9336 1.33333 17.9319 1.33333 17.9301C1.33333 17.9283 1.33333 17.9265 1.33333 17.9248C1.33333 17.9231 1.33333 17.9213 1.33333 17.9196C1.33333 17.9179 1.33333 17.9161 1.33333 17.9144C1.33333 17.9127 1.33333 17.9109 1.33333 17.9092C1.33333 17.9075 1.33333 17.9057 1.33333 17.904C1.33333 17.9023 1.33333 17.9005 1.33333 17.8988C1.33333 17.8971 1.33333 17.8953 1.33333 17.8936C1.33333 17.8919 1.33333 17.8901 1.33333 17.8884C1.33333 17.8867 1.33333 17.8849 1.33333 17.8832C1.33333 17.8815 1.33333 17.8797 1.33333 17.878C1.33333 17.8763 1.33333 17.8745 1.33333 17.8728C1.33333 17.8711 1.33333 17.8693 1.33333 17.8676C1.33333 17.8659 1.33333 17.8641 1.33333 17.8624C1.33333 17.8607 1.33333 17.8589 1.33333 17.8572C1.33333 17.8555 1.33333 17.8537 1.33333 17.852C1.33333 17.8503 1.33333 17.8485 1.33333 17.8468C1.33333 17.8451 1.33333 17.8433 1.33333 17.8416C1.33333 17.8399 1.33333 17.8381 1.33333 17.8364C1.33333 17.8347 1.33333 17.8329 1.33333 17.8312C1.33333 17.8295 1.33333 17.8277 1.33333 17.826C1.33333 17.8243 1.33333 17.8225 1.33333 17.8208C1.33333 17.8191 1.33333 17.8173 1.33333 17.8156C1.33333 17.8139 1.33333 17.8123 1.33333 17.8105C1.33333 17.8088 1.33333 17.8071 1.33333 17.8053C1.33333 17.8036 1.33333 17.8019 1.33333 17.8001C1.33333 17.7984 1.33333 17.7967 1.33333 17.7949C1.33333 17.7932 1.33333 17.7915 1.33333 17.7897C1.33333 17.788 1.33333 17.7863 1.33333 17.7845C1.33333 17.7828 1.33333 17.7812 1.33333 17.7795C1.33333 17.7777 1.33333 17.776 1.33333 17.7743C1.33333 17.7725 1.33333 17.7708 1.33333 17.7691C1.33333 17.7673 1.33333 17.7656 1.33333 17.7639C1.33333 17.7621 1.33333 17.7604 1.33333 17.7587C1.33333 17.7571 1.33333 17.7553 1.33333 17.7536C1.33333 17.7519 1.33333 17.7501 1.33333 17.7484C1.33333 17.7467 1.33333 17.7449 1.33333 17.7432C1.33333 17.7415 1.33333 17.7397 1.33333 17.7381C1.33333 17.7364 1.33333 17.7347 1.33333 17.7329C1.33333 17.7312 1.33333 17.7295 1.33333 17.7277C1.33333 17.726 1.33333 17.7243 1.33333 17.7227C1.33333 17.7209 1.33333 17.7192 1.33333 17.7175C1.33333 17.7157 1.33333 17.714 1.33333 17.7123C1.33333 17.7105 1.33333 17.7088 1.33333 17.7072C1.33333 17.7055 1.33333 17.7037 1.33333 17.702C1.33333 17.7003 1.33333 17.6985 1.33333 17.6968C1.33333 17.6951 1.33333 17.6935 1.33333 17.6917C1.33333 17.69 1.33333 17.6883 1.33333 17.6865C1.33333 17.6848 1.33333 17.6831 1.33333 17.6815C1.33333 17.6797 1.33333 17.678 1.33333 17.6763C1.33333 17.6745 1.33333 17.6728 1.33333 17.6711C1.33333 17.6695 1.33333 17.6677 1.33333 17.666C1.33333 17.6643 1.33333 17.6625 1.33333 17.6608C1.33333 17.6592 1.33333 17.6575 1.33333 17.6557C1.33333 17.654 1.33333 17.6523 1.33333 17.6505C1.33333 17.6489 1.33333 17.6472 1.33333 17.6455C1.33333 17.6437 1.33333 17.642 1.33333 17.6403C1.33333 17.6387 1.33333 17.6369 1.33333 17.6352C1.33333 17.6335 1.33333 17.6317 1.33333 17.63C1.33333 17.6284 1.33333 17.6267 1.33333 17.6249C1.33333 17.6232 1.33333 17.6215 1.33333 17.6199C1.33333 17.6181 1.33333 17.6164 1.33333 17.6147C1.33333 17.6129 1.33333 17.6113 1.33333 17.6096C1.33333 17.6079 1.33333 17.6061 1.33333 17.6044C1.33333 17.6028 1.33333 17.6011 1.33333 17.5993C1.33333 17.5976 1.33333 17.5959 1.33333 17.5943C1.33333 17.5925 1.33333 17.5908 1.33333 17.5891C1.33333 17.5873 1.33333 17.5857 1.33333 17.584C1.33333 17.5823 1.33333 17.5805 1.33333 17.5789C1.33333 17.5772 1.33333 17.5755 1.33333 17.5737C1.33333 17.572 1.33333 17.5704 1.33333 17.5687C1.33333 17.5669 1.33333 17.5652 1.33333 17.5636C1.33333 17.5619 1.33333 17.5601 1.33333 17.5584C1.33333 17.5568 1.33333 17.5551 1.33333 17.5533C1.33333 17.5516 1.33333 17.5499 1.33333 17.5483C1.33333 17.5465 1.33333 17.5448 1.33333 17.5431C1.33333 17.5415 1.33333 17.5397 1.33333 17.538C1.33333 17.5364 1.33333 17.5347 1.33333 17.5329C1.33333 17.5312 1.33333 17.5296 1.33333 17.5279C1.33333 17.5261 1.33333 17.5244 1.33333 17.5228C1.33333 17.5211 1.33333 17.5193 1.33333 17.5176C1.33333 17.516 1.33333 17.5143 1.33333 17.5125C1.33333 17.5109 1.33333 17.5092 1.33333 17.5075C1.33333 17.5057 1.33333 17.5041 1.33333 17.5024C1.33333 17.5007 1.33333 17.4989 1.33333 17.4973C1.33333 17.4956 1.33333 17.4939 1.33333 17.4923C1.33333 17.4905 1.33333 17.4888 1.33333 17.4872C1.33333 17.4855 1.33333 17.4837 1.33333 17.482C1.33333 17.4804 1.33333 17.4787 1.33333 17.4769C1.33333 17.4753 1.33333 17.4736 1.33333 17.4719C1.33333 17.4703 1.33333 17.4685 1.33333 17.4668C1.33333 17.4651 1.33333 17.4635 1.33333 17.4617C1.33333 17.46 1.33333 17.4584 1.33333 17.4567C1.33333 17.4549 1.33333 17.4533 1.33333 17.4516C1.33333 17.4499 1.33333 17.4483 1.33333 17.4465C1.33333 17.4448 1.33333 17.4432 1.33333 17.4415C1.33333 17.4397 1.33333 17.4381 1.33333 17.4364C1.33333 17.4347 1.33333 17.4331 1.33333 17.4313C1.33333 17.4296 1.33333 17.428 1.33333 17.4263C1.33333 17.4245 1.33333 17.4229 1.33333 17.4212C1.33333 17.4195 1.33333 17.4179 1.33333 17.4161C1.33333 17.4145 1.33333 17.4128 1.33333 17.4111C1.33333 17.4095 1.33333 17.4077 1.33333 17.406C1.33333 17.4044 1.33333 17.4027 1.33333 17.4009C1.33333 17.3993 1.33333 17.3976 1.33333 17.396C1.33333 17.3943 1.33333 17.3925 1.33333 17.3909C1.33333 17.3892 1.33333 17.3875 1.33333 17.3859C1.33333 17.3841 1.33333 17.3825 1.33333 17.3808C1.33333 17.3791 1.33333 17.3775 1.33333 17.3757C1.33333 17.3741 1.33333 17.3724 1.33333 17.3707C1.33333 17.3691 1.33333 17.3673 1.33333 17.3656C1.33333 17.364 1.33333 17.3623 1.33333 17.3607C1.33333 17.3589 1.33333 17.3572 1.33333 17.3556C1.33333 17.3539 1.33333 17.3523 1.33333 17.3505C1.33333 17.3489 1.33333 17.3472 1.33333 17.3455C1.33333 17.3439 1.33333 17.3421 1.33333 17.3405C1.33333 17.3388 1.33333 17.3371 1.33333 17.3355C1.33333 17.3337 1.33333 17.3321 1.33333 17.3304C1.33333 17.3288 1.33333 17.3271 1.33333 17.3253C1.33333 17.3237 1.33333 17.322 1.33333 17.3204C1.33333 17.3187 1.33333 17.3171 1.33333 17.3153C1.33333 17.3136 1.33333 17.312 1.33333 17.3103C1.33333 17.3087 1.33333 17.3069 1.33333 17.3053C1.33333 17.3036 1.33333 17.302 1.33333 17.3003C1.33333 17.2985 1.33333 17.2969 1.33333 17.2952C1.33333 17.2936 1.33333 17.2919 1.33333 17.2903C1.33333 17.2885 1.33333 17.2869 1.33333 17.2852C1.33333 17.2836 1.33333 17.2819 1.33333 17.2803C1.33333 17.2785 1.33333 17.2768 1.33333 17.2752C1.33333 17.2735 1.33333 17.2719 1.33333 17.2701C1.33333 17.2685 1.33333 17.2668 1.33333 17.2652C1.33333 17.2635 1.33333 17.2619 1.33333 17.2601C1.33333 17.2585 1.33333 17.2568 1.33333 17.2552C1.33333 17.2535 1.33333 17.2519 1.33333 17.2501C1.33333 17.2485 1.33333 17.2468 1.33333 17.2452C1.33333 17.2435 1.33333 17.2419 1.33333 17.2401C1.33333 17.2385 1.33333 17.2368 1.33333 17.2352C1.33333 17.2335 1.33333 17.2319 1.33333 17.2301C1.33333 17.2285 1.33333 17.2268 1.33333 17.2252C1.33333 17.2235 1.33333 17.2219 1.33333 17.2201C1.33333 17.2185 1.33333 17.2168 1.33333 17.2152C1.33333 17.2135 1.33333 17.2119 1.33333 17.2103C1.33333 17.2085 1.33333 17.2069 1.33333 17.2052C1.33333 17.2036 1.33333 17.2019 1.33333 17.2003C1.33333 17.1985 1.33333 17.1969 1.33333 17.1952C1.33333 17.1936 1.33333 17.1919 1.33333 17.1903C1.33333 17.1887 1.33333 17.1869 1.33333 17.1853C1.33333 17.1836 1.33333 17.182 1.33333 17.1803C1.33333 17.1787 1.33333 17.1769 1.33333 17.1753C1.33333 17.1737 1.33333 17.172 1.33333 17.1704C1.33333 17.1687 1.33333 17.1671 1.33333 17.1653C1.33333 17.1637 1.33333 17.1621 1.33333 17.1604C1.33333 17.1588 1.33333 17.1571 1.33333 17.1555C1.33333 17.1537 1.33333 17.1521 1.33333 17.1505C1.33333 17.1488 1.33333 17.1472 1.33333 17.1455C1.33333 17.1439 1.33333 17.1423 1.33333 17.1405C1.33333 17.1389 1.33333 17.1372 1.33333 17.1356C1.33333 17.1339 1.33333 17.1323 1.33333 17.1307C1.33333 17.1289 1.33333 17.1273 1.33333 17.1257C1.33333 17.124 1.33333 17.1224 1.33333 17.1207C1.33333 17.1191 1.33333 17.1175 1.33333 17.1157C1.33333 17.1141 1.33333 17.1124 1.33333 17.1108C1.33333 17.1092 1.33333 17.1075 1.33333 17.1059C1.33333 17.1043 1.33333 17.1025 1.33333 17.1009C1.33333 17.0992 1.33333 17.0976 1.33333 17.096C1.33333 17.0943 1.33333 17.0927 1.33333 17.0911C1.33333 17.0893 1.33333 17.0877 1.33333 17.086C1.33333 17.0844 1.33333 17.0828 1.33333 17.0811C1.33333 17.0795 1.33333 17.0779 1.33333 17.0761C1.33333 17.0745 1.33333 17.0729 1.33333 17.0712C1.33333 17.0696 1.33333 17.068 1.33333 17.0663C1.33333 17.0647 1.33333 17.0631 1.33333 17.0613C1.33333 17.0597 1.33333 17.0581 1.33333 17.0564C1.33333 17.0548 1.33333 17.0532 1.33333 17.0515C1.33333 17.0499 1.33333 17.0483 1.33333 17.0465C1.33333 17.0449 1.33333 17.0433 1.33333 17.0416C1.33333 17.04 1.33333 17.0384 1.33333 17.0367C1.33333 17.0351 1.33333 17.0335 1.33333 17.0317C1.33333 17.0301 1.33333 17.0285 1.33333 17.0269C1.33333 17.0252 1.33333 17.0236 1.33333 17.022C1.33333 17.0203 1.33333 17.0187 1.33333 17.0171C1.33333 17.0153 1.33333 17.0137 1.33333 17.0121C1.33333 17.0105 1.33333 17.0088 1.33333 17.0072C1.33333 17.0056 1.33333 17.0039 1.33333 17.0023C1.33333 17.0007 1.33333 16.9991 1.33333 16.9973C1.33333 16.9957 1.33333 16.9941 1.33333 16.9924C1.33333 16.9908 1.33333 16.9892 1.33333 16.9876C1.33333 16.9859 1.33333 16.9843 1.33333 16.9827C1.33333 16.9811 1.33333 16.9793 1.33333 16.9777C1.33333 16.9761 1.33333 16.9745 1.33333 16.9728C1.33333 16.9712 1.33333 16.9696 1.33333 16.968C1.33333 16.9663 1.33333 16.9647 1.33333 16.9631C1.33333 16.9615 1.33333 16.9597 1.33333 16.9581C1.33333 16.9565 1.33333 16.9549 1.33333 16.9532C1.33333 16.9516 1.33333 16.95 1.33333 16.9484C1.33333 16.9467 1.33333 16.9451 1.33333 16.9435C1.33333 16.9419 1.33333 16.9403 1.33333 16.9385C1.33333 16.9369 1.33333 16.9353 1.33333 16.9337C1.33333 16.932 1.33333 16.9304 1.33333 16.9288C1.33333 16.9272 1.33333 16.9256 1.33333 16.9239C1.33333 16.9223 1.33333 16.9207 1.33333 16.9191C1.33333 16.9175 1.33333 16.9157 1.33333 16.9141C1.33333 16.9125 1.33333 16.9109 1.33333 16.9093C1.33333 16.9076 1.33333 16.906 1.33333 16.9044C1.33333 16.9028 1.33333 16.9012 1.33333 16.8995C1.33333 16.8979 1.33333 16.8963 1.33333 16.8947C1.33333 16.8931 1.33333 16.8913 1.33333 16.8897C1.33333 16.8881 1.33333 16.8865 1.33333 16.8849C1.33333 16.8833 1.33333 16.8816 1.33333 16.88C1.33333 16.8784 1.33333 16.8768 1.33333 16.8752C1.33333 16.8736 1.33333 16.8719 1.33333 16.8703C1.33333 16.8687 1.33333 16.8671 1.33333 16.8655C1.33333 16.8639 1.33333 16.8623 1.33333 16.8605C1.33333 16.8589 1.33333 16.8573 1.33333 16.8557C1.33333 16.8541 1.33333 16.8525 1.33333 16.8509C1.33333 16.8492 1.33333 16.8476 1.33333 16.846C1.33333 16.8444 1.33333 16.8428 1.33333 16.8412C1.33333 16.8396 1.33333 16.8379 1.33333 16.8363C1.33333 16.8347 1.33333 16.8331 1.33333 16.8315C1.33333 16.8299 1.33333 16.8283 1.33333 16.8267C1.33333 16.8251 1.33333 16.8233 1.33333 16.8217C1.33333 16.8201 1.33333 16.8185 1.33333 16.8169C1.33333 16.8153 1.33333 16.8137 1.33333 16.8121C1.33333 16.8105 1.33333 16.8088 1.33333 16.8072C1.33333 16.8056 1.33333 16.804 1.33333 16.8024C1.33333 16.8008 1.33333 16.7992 1.33333 16.7976C1.33333 16.796 1.33333 16.7944 1.33333 16.7928C1.33333 16.7911 1.33333 16.7895 1.33333 16.7879C1.33333 16.7863 1.33333 16.7847 1.33333 16.7831C1.33333 16.7815 1.33333 16.7799 1.33333 16.7783C1.33333 16.7767 1.33333 16.7751 1.33333 16.7735C1.33333 16.7719 1.33333 16.7703 1.33333 16.7685C1.33333 16.7669 1.33333 16.7653 1.33333 16.7637C1.33333 16.7621 1.33333 16.7605 1.33333 16.7589C1.33333 16.7573 1.33333 16.7557 1.33333 16.7541C1.33333 16.7525 1.33333 16.7509 1.33333 16.7493C1.33333 16.7477 1.33333 16.7461 1.33333 16.7445C1.33333 16.7429 1.33333 16.7413 1.33333 16.7397C1.33333 16.7381 1.33333 16.7365 1.33333 16.7349C1.33333 16.7333 1.33333 16.7317 1.33333 16.7301C1.33333 16.7285 1.33333 16.7269 1.33333 16.7253C1.33333 16.7236 1.33333 16.722 1.33333 16.7204C1.33333 16.7188 1.33333 16.7172 1.33333 16.7156C1.33333 16.714 1.33333 16.7124 1.33333 16.7108C1.33333 16.7092 1.33333 16.7076 1.33333 16.706C1.33333 16.7044 1.33333 16.7028 1.33333 16.7012C1.33333 16.6996 1.33333 16.698 1.33333 16.6964C1.33333 16.6949 1.33333 16.6933 1.33333 16.6917C1.33333 16.6901 1.33333 16.6885 1.33333 16.6869C1.33333 16.6853 1.33333 16.6837 1.33333 16.6821C1.33333 16.6805 1.33333 16.6789 1.33333 16.6773C1.33333 16.6757 1.33333 16.6741 1.33333 16.6725C1.33333 16.6709 1.33333 16.6693 1.33333 16.6677C1.33333 16.6661 1.33333 16.6645 1.33333 16.6629C1.33333 16.6613 1.33333 16.6597 1.33333 16.6581H0C0 16.6597 0 16.6613 0 16.6629C0 16.6645 0 16.6661 0 16.6677C0 16.6693 0 16.6709 0 16.6725C0 16.6741 0 16.6757 0 16.6773C0 16.6789 0 16.6805 0 16.6821C0 16.6837 0 16.6853 0 16.6869C0 16.6885 0 16.6901 0 16.6917C0 16.6933 0 16.6949 0 16.6964C0 16.698 0 16.6996 0 16.7012C0 16.7028 0 16.7044 0 16.706C0 16.7076 0 16.7092 0 16.7108C0 16.7124 0 16.714 0 16.7156C0 16.7172 0 16.7188 0 16.7204C0 16.722 0 16.7236 0 16.7253C0 16.7269 0 16.7285 0 16.7301C0 16.7317 0 16.7333 0 16.7349C0 16.7365 0 16.7381 0 16.7397C0 16.7413 0 16.7429 0 16.7445C0 16.7461 0 16.7477 0 16.7493C0 16.7509 0 16.7525 0 16.7541C0 16.7557 0 16.7573 0 16.7589C0 16.7605 0 16.7621 0 16.7637C0 16.7653 0 16.7669 0 16.7685C0 16.7703 0 16.7719 0 16.7735C0 16.7751 0 16.7767 0 16.7783C0 16.7799 0 16.7815 0 16.7831C0 16.7847 0 16.7863 0 16.7879C0 16.7895 0 16.7911 0 16.7928C0 16.7944 0 16.796 0 16.7976C0 16.7992 0 16.8008 0 16.8024C0 16.804 0 16.8056 0 16.8072C0 16.8088 0 16.8105 0 16.8121C0 16.8137 0 16.8153 0 16.8169C0 16.8185 0 16.8201 0 16.8217C0 16.8233 0 16.8251 0 16.8267C0 16.8283 0 16.8299 0 16.8315C0 16.8331 0 16.8347 0 16.8363C0 16.8379 0 16.8396 0 16.8412C0 16.8428 0 16.8444 0 16.846C0 16.8476 0 16.8492 0 16.8509C0 16.8525 0 16.8541 0 16.8557C0 16.8573 0 16.8589 0 16.8605C0 16.8623 0 16.8639 0 16.8655C0 16.8671 0 16.8687 0 16.8703C0 16.8719 0 16.8736 0 16.8752C0 16.8768 0 16.8784 0 16.88C0 16.8816 0 16.8833 0 16.8849C0 16.8865 0 16.8881 0 16.8897C0 16.8913 0 16.8931 0 16.8947C0 16.8963 0 16.8979 0 16.8995C0 16.9012 0 16.9028 0 16.9044C0 16.906 0 16.9076 0 16.9093C0 16.9109 0 16.9125 0 16.9141C0 16.9157 0 16.9175 0 16.9191C0 16.9207 0 16.9223 0 16.9239C0 16.9256 0 16.9272 0 16.9288C0 16.9304 0 16.932 0 16.9337C0 16.9353 0 16.9369 0 16.9385C0 16.9403 0 16.9419 0 16.9435C0 16.9451 0 16.9467 0 16.9484C0 16.95 0 16.9516 0 16.9532C0 16.9549 0 16.9565 0 16.9581C0 16.9597 0 16.9615 0 16.9631C0 16.9647 0 16.9663 0 16.968C0 16.9696 0 16.9712 0 16.9728C0 16.9745 0 16.9761 0 16.9777C0 16.9793 0 16.9811 0 16.9827C0 16.9843 0 16.9859 0 16.9876C0 16.9892 0 16.9908 0 16.9924C0 16.9941 0 16.9957 0 16.9973C0 16.9991 0 17.0007 0 17.0023C0 17.0039 0 17.0056 0 17.0072C0 17.0088 0 17.0105 0 17.0121C0 17.0137 0 17.0153 0 17.0171C0 17.0187 0 17.0203 0 17.022C0 17.0236 0 17.0252 0 17.0269C0 17.0285 0 17.0301 0 17.0317C0 17.0335 0 17.0351 0 17.0367C0 17.0384 0 17.04 0 17.0416C0 17.0433 0 17.0449 0 17.0465C0 17.0483 0 17.0499 0 17.0515C0 17.0532 0 17.0548 0 17.0564C0 17.0581 0 17.0597 0 17.0613C0 17.0631 0 17.0647 0 17.0663C0 17.068 0 17.0696 0 17.0712C0 17.0729 0 17.0745 0 17.0761C0 17.0779 0 17.0795 0 17.0811C0 17.0828 0 17.0844 0 17.086C0 17.0877 0 17.0893 0 17.0911C0 17.0927 0 17.0943 0 17.096C0 17.0976 0 17.0992 0 17.1009C0 17.1025 0 17.1043 0 17.1059C0 17.1075 0 17.1092 0 17.1108C0 17.1124 0 17.1141 0 17.1157C0 17.1175 0 17.1191 0 17.1207C0 17.1224 0 17.124 0 17.1257C0 17.1273 0 17.1289 0 17.1307C0 17.1323 0 17.1339 0 17.1356C0 17.1372 0 17.1389 0 17.1405C0 17.1423 0 17.1439 0 17.1455C0 17.1472 0 17.1488 0 17.1505C0 17.1521 0 17.1537 0 17.1555C0 17.1571 0 17.1588 0 17.1604C0 17.1621 0 17.1637 0 17.1653C0 17.1671 0 17.1687 0 17.1704C0 17.172 0 17.1737 0 17.1753C0 17.1769 0 17.1787 0 17.1803C0 17.182 0 17.1836 0 17.1853C0 17.1869 0 17.1887 0 17.1903C0 17.1919 0 17.1936 0 17.1952C0 17.1969 0 17.1985 0 17.2003C0 17.2019 0 17.2036 0 17.2052C0 17.2069 0 17.2085 0 17.2103C0 17.2119 0 17.2135 0 17.2152C0 17.2168 0 17.2185 0 17.2201C0 17.2219 0 17.2235 0 17.2252C0 17.2268 0 17.2285 0 17.2301C0 17.2319 0 17.2335 0 17.2352C0 17.2368 0 17.2385 0 17.2401C0 17.2419 0 17.2435 0 17.2452C0 17.2468 0 17.2485 0 17.2501C0 17.2519 0 17.2535 0 17.2552C0 17.2568 0 17.2585 0 17.2601C0 17.2619 0 17.2635 0 17.2652C0 17.2668 0 17.2685 0 17.2701C0 17.2719 0 17.2735 0 17.2752C0 17.2768 0 17.2785 0 17.2803C0 17.2819 0 17.2836 0 17.2852C0 17.2869 0 17.2885 0 17.2903C0 17.2919 0 17.2936 0 17.2952C0 17.2969 0 17.2985 0 17.3003C0 17.302 0 17.3036 0 17.3053C0 17.3069 0 17.3087 0 17.3103C0 17.312 0 17.3136 0 17.3153C0 17.3171 0 17.3187 0 17.3204C0 17.322 0 17.3237 0 17.3253C0 17.3271 0 17.3288 0 17.3304C0 17.3321 0 17.3337 0 17.3355C0 17.3371 0 17.3388 0 17.3405C0 17.3421 0 17.3439 0 17.3455C0 17.3472 0 17.3489 0 17.3505C0 17.3523 0 17.3539 0 17.3556C0 17.3572 0 17.3589 0 17.3607C0 17.3623 0 17.364 0 17.3656C0 17.3673 0 17.3691 0 17.3707C0 17.3724 0 17.3741 0 17.3757C0 17.3775 0 17.3791 0 17.3808C0 17.3825 0 17.3841 0 17.3859C0 17.3875 0 17.3892 0 17.3909C0 17.3925 0 17.3943 0 17.396C0 17.3976 0 17.3993 0 17.4009C0 17.4027 0 17.4044 0 17.406C0 17.4077 0 17.4095 0 17.4111C0 17.4128 0 17.4145 0 17.4161C0 17.4179 0 17.4195 0 17.4212C0 17.4229 0 17.4245 0 17.4263C0 17.428 0 17.4296 0 17.4313C0 17.4331 0 17.4347 0 17.4364C0 17.4381 0 17.4397 0 17.4415C0 17.4432 0 17.4448 0 17.4465C0 17.4483 0 17.4499 0 17.4516C0 17.4533 0 17.4549 0 17.4567C0 17.4584 0 17.46 0 17.4617C0 17.4635 0 17.4651 0 17.4668C0 17.4685 0 17.4703 0 17.4719C0 17.4736 0 17.4753 0 17.4769C0 17.4787 0 17.4804 0 17.482C0 17.4837 0 17.4855 0 17.4872C0 17.4888 0 17.4905 0 17.4923C0 17.4939 0 17.4956 0 17.4973C0 17.4989 0 17.5007 0 17.5024C0 17.5041 0 17.5057 0 17.5075C0 17.5092 0 17.5109 0 17.5125C0 17.5143 0 17.516 0 17.5176C0 17.5193 0 17.5211 0 17.5228C0 17.5244 0 17.5261 0 17.5279C0 17.5296 0 17.5312 0 17.5329C0 17.5347 0 17.5364 0 17.538C0 17.5397 0 17.5415 0 17.5431C0 17.5448 0 17.5465 0 17.5483C0 17.5499 0 17.5516 0 17.5533C0 17.5551 0 17.5568 0 17.5584C0 17.5601 0 17.5619 0 17.5636C0 17.5652 0 17.5669 0 17.5687C0 17.5704 0 17.572 0 17.5737C0 17.5755 0 17.5772 0 17.5789C0 17.5805 0 17.5823 0 17.584C0 17.5857 0 17.5873 0 17.5891C0 17.5908 0 17.5925 0 17.5943C0 17.5959 0 17.5976 0 17.5993C0 17.6011 0 17.6028 0 17.6044C0 17.6061 0 17.6079 0 17.6096C0 17.6113 0 17.6129 0 17.6147C0 17.6164 0 17.6181 0 17.6199C0 17.6215 0 17.6232 0 17.6249C0 17.6267 0 17.6284 0 17.63C0 17.6317 0 17.6335 0 17.6352C0 17.6369 0 17.6387 0 17.6403C0 17.642 0 17.6437 0 17.6455C0 17.6472 0 17.6489 0 17.6505C0 17.6523 0 17.654 0 17.6557C0 17.6575 0 17.6592 0 17.6608C0 17.6625 0 17.6643 0 17.666C0 17.6677 0 17.6695 0 17.6711C0 17.6728 0 17.6745 0 17.6763C0 17.678 0 17.6797 0 17.6815C0 17.6831 0 17.6848 0 17.6865C0 17.6883 0 17.69 0 17.6917C0 17.6935 0 17.6951 0 17.6968C0 17.6985 0 17.7003 0 17.702C0 17.7037 0 17.7055 0 17.7072C0 17.7088 0 17.7105 0 17.7123C0 17.714 0 17.7157 0 17.7175C0 17.7192 0 17.7209 0 17.7227C0 17.7243 0 17.726 0 17.7277C0 17.7295 0 17.7312 0 17.7329C0 17.7347 0 17.7364 0 17.7381C0 17.7397 0 17.7415 0 17.7432C0 17.7449 0 17.7467 0 17.7484C0 17.7501 0 17.7519 0 17.7536C0 17.7553 0 17.7571 0 17.7587C0 17.7604 0 17.7621 0 17.7639C0 17.7656 0 17.7673 0 17.7691C0 17.7708 0 17.7725 0 17.7743C0 17.776 0 17.7777 0 17.7795C0 17.7812 0 17.7828 0 17.7845C0 17.7863 0 17.788 0 17.7897C0 17.7915 0 17.7932 0 17.7949C0 17.7967 0 17.7984 0 17.8001C0 17.8019 0 17.8036 0 17.8053C0 17.8071 0 17.8088 0 17.8105C0 17.8123 0 17.8139 0 17.8156C0 17.8173 0 17.8191 0 17.8208C0 17.8225 0 17.8243 0 17.826C0 17.8277 0 17.8295 0 17.8312C0 17.8329 0 17.8347 0 17.8364C0 17.8381 0 17.8399 0 17.8416C0 17.8433 0 17.8451 0 17.8468C0 17.8485 0 17.8503 0 17.852C0 17.8537 0 17.8555 0 17.8572C0 17.8589 0 17.8607 0 17.8624C0 17.8641 0 17.8659 0 17.8676C0 17.8693 0 17.8711 0 17.8728C0 17.8745 0 17.8763 0 17.878C0 17.8797 0 17.8815 0 17.8832C0 17.8849 0 17.8867 0 17.8884C0 17.8901 0 17.8919 0 17.8936C0 17.8953 0 17.8971 0 17.8988C0 17.9005 0 17.9023 0 17.904C0 17.9057 0 17.9075 0 17.9092C0 17.9109 0 17.9127 0 17.9144C0 17.9161 0 17.9179 0 17.9196C0 17.9213 0 17.9231 0 17.9248C0 17.9265 0 17.9283 0 17.9301C0 17.9319 0 17.9336 0 17.9353C0 17.9371 0 17.9388 0 17.9405C0 17.9423 0 17.944 0 17.9457C0 17.9475 0 17.9492 0 17.9509C0 17.9527 0 17.9544 0 17.9561C0 17.9579 0 17.9596 0 17.9615C0 17.9632 0 17.9649 0 17.9667C0 17.9684 0 17.9701 0 17.9719C0 17.9736 0 17.9753 0 17.9771C0 17.9788 0 17.9805 0 17.9823C0 17.984 0 17.9859 0 17.9876C0 17.9893 0 17.9911 0 17.9928C0 17.9945 0 17.9963 0 17.998C0 17.9997 0 18.0015 0 18.0032C0 18.0051 0 18.0068 0 18.0085C0 18.0103 0 18.012 0 18.0137C0 18.0155 0 18.0172 0 18.0189C0 18.0207 0 18.0225 0 18.0243C0 18.026 0 18.0277 0 18.0295C0 18.0312 0 18.0329 0 18.0347C0 18.0364 0 18.0383 0 18.04C0 18.0417 0 18.0435 0 18.0452C0 18.0469 0 18.0487 0 18.0504C0 18.0523 0 18.054 0 18.0557C0 18.0575 0 18.0592 0 18.0609C0 18.0627 0 18.0645 0 18.0663C0 18.068 0 18.0697 0 18.0715C0 18.0732 0 18.0749 0 18.0768C0 18.0785 0 18.0803 0 18.082C0 18.0837 0 18.0855 0 18.0872C0 18.0891 0 18.0908 0 18.0925C0 18.0943 0 18.096 0 18.0977C0 18.0996 0 18.1013 0 18.1031C0 18.1048 0 18.1065 0 18.1083C0 18.1101 0 18.1119 0 18.1136C0 18.1153 0 18.1171 0 18.1188C0 18.1207 0 18.1224 0 18.1241C0 18.1259 0 18.1276 0 18.1293C0 18.1312 0 18.1329 0 18.1347C0 18.1364 0 18.1381 0 18.14C0 18.1417 0 18.1435 0 18.1452C0 18.1469 0 18.1488 0 18.1505C0 18.1523 0 18.154 0 18.1557C0 18.1576 0 18.1593 0 18.1611C0 18.1628 0 18.1645 0 18.1664C0 18.1681 0 18.1699 0 18.1716C0 18.1733 0 18.1752 0 18.1769C0 18.1787 0 18.1804 0 18.1821C0 18.184 0 18.1857 0 18.1875C0 18.1892 0 18.1911 0 18.1928C0 18.1945 0 18.1963 0 18.198C0 18.1999 0 18.2016 0 18.2033C0 18.2051 0 18.2069 0 18.2087C0 18.2104 0 18.2121 0 18.214C0 18.2157 0 18.2175 0 18.2192C0 18.2211 0 18.2228 0 18.2245C0 18.2263 0 18.2281 0 18.2299C0 18.2316 0 18.2333 0 18.2352C0 18.2369 0 18.2387 0 18.2404C0 18.2423 0 18.244 0 18.2457C0 18.2475 0 18.2493 0 18.2511C0 18.2528 0 18.2545 0 18.2564C0 18.2581 0 18.2599 0 18.2616C0 18.2635 0 18.2652 0 18.2669C0 18.2688 0 18.2705 0 18.2723C0 18.274 0 18.2759 0 18.2776C0 18.2793 0 18.2812 0 18.2829C0 18.2847 0 18.2864 0 18.2883C0 18.29 0 18.2917 0 18.2936C0 18.2953 0 18.2971 0 18.2988C0 18.3007 0 18.3024 0 18.3041C0 18.306 0 18.3077 0 18.3095C0 18.3113 0 18.3131 0 18.3148C0 18.3165 0 18.3184 0 18.3201C0 18.3219 0 18.3237 0 18.3255C0 18.3272 0 18.3291 0 18.3308C0 18.3325 0 18.3344 0 18.3361C0 18.3379 0 18.3397 0 18.3415C0 18.3432 0 18.3451 0 18.3468C0 18.3485 0 18.3503 0 18.3521C0 18.3539 0 18.3556 0 18.3575C0 18.3592 0 18.3609 0 18.3628C0 18.3645 0 18.3663 0 18.3681C0 18.3699 0 18.3717 0 18.3735C0 18.3752 0 18.3771 0 18.3788C0 18.3805 0 18.3824 0 18.3841C0 18.3859 0 18.3877 0 18.3895C0 18.3912 0 18.3931 0 18.3948C0 18.3965 0 18.3984 0 18.4001C0 18.402 0 18.4037 0 18.4055C0 18.4073 0 18.4091 0 18.4108C0 18.4127 0 18.4144 0 18.4161C0 18.418 0 18.4197 0 18.4216C0 18.4233 0 18.4251 0 18.4269C0 18.4287 0 18.4304 0 18.4323C0 18.434 0 18.4359 0 18.4376C0 18.4393 0 18.4412 0 18.4429C0 18.4448 0 18.4465 0 18.4483C0 18.4501 0 18.4519 0 18.4536C0 18.4555 0 18.4572 0 18.4591C0 18.4608 0 18.4625 0 18.4644C0 18.4661 0 18.468 0 18.4697C0 18.4715 0 18.4733 0 18.4751C0 18.4769 0 18.4787 0 18.4804C0 18.4823 0 18.484 0 18.4859C0 18.4876 0 18.4895 0 18.4912C0 18.4929 0 18.4948 0 18.4965C0 18.4984 0 18.5001 0 18.5019C0 18.5037 0 18.5055 0 18.5073C0 18.5091 0 18.5109 0 18.5127C0 18.5144 0 18.5163 0 18.518C0 18.5199 0 18.5216 0 18.5235C0 18.5252 0 18.5271 0 18.5288C0 18.5305 0 18.5324 0 18.5341C0 18.536 0 18.5377 0 18.5396C0 18.5413 0 18.5432 0 18.5449C0 18.5467 0 18.5485 0 18.5503C0 18.5521 0 18.5539 0 18.5557C0 18.5575 0 18.5593 0 18.5611C0 18.5629 0 18.5647 0 18.5664C0 18.5683 0 18.57 0 18.5719C0 18.5736 0 18.5755 0 18.5772C0 18.5791 0 18.5808 0 18.5827C0 18.5844 0 18.5863 0 18.588C0 18.5899 0 18.5916 0 18.5935C0 18.5952 0 18.5969 0 18.5988C0 18.6005 0 18.6024 0 18.6041C0 18.606 0 18.6077 0 18.6096C0 18.6113 0 18.6132 0 18.6149C0 18.6168 0 18.6185 0 18.6204C0 18.6221 0 18.624 0 18.6257C0 18.6276 0 18.6293 0 18.6312C0 18.6329 0 18.6348 0 18.6365C0 18.6384 0 18.6401 0 18.642C0 18.6437 0 18.6456 0 18.6473C0 18.6492 0 18.6509 0 18.6528C0 18.6545 0 18.6564 0 18.6581C0 18.66 0 18.6617 0 18.6636C0 18.6655 0 18.6672 0 18.6691C0 18.6708 0 18.6727 0 18.6744C0 18.6763 0 18.678 0 18.6799C0 18.6816 0 18.6835 0 18.6852C0 18.6871 0 18.6888 0 18.6907C0 18.6924 0 18.6943 0 18.6961C0 18.6979 0 18.6997 0 18.7015C0 18.7033 0 18.7051 0 18.7069C0 18.7087 0 18.7105 0 18.7123C0 18.7141 0 18.716 0 18.7177C0 18.7196 0 18.7213 0 18.7232C0 18.7249 0 18.7268 0 18.7285C0 18.7304 0 18.7323 0 18.734C0 18.7359 0 18.7376 0 18.7395C0 18.7412 0 18.7431 0 18.7448C0 18.7467 0 18.7485 0 18.7503C0 18.7521 0 18.7539 0 18.7557C0 18.7575 0 18.7593 0 18.7612C0 18.7629 0 18.7648 0 18.7665C0 18.7684 0 18.7703 0 18.772C0 18.7739 0 18.7756 0 18.7775C0 18.7792 0 18.7811 0 18.7829C0 18.7847 0 18.7865 0 18.7883C0 18.7901 0 18.792 0 18.7937C0 18.7956 0 18.7973 0 18.7992C0 18.8011 0 18.8028 0 18.8047C0 18.8064 0 18.8083 0 18.8101C0 18.8119 0 18.8137 0 18.8155C0 18.8173 0 18.8192 0 18.8209C0 18.8228 0 18.8245 0 18.8264C0 18.8283 0 18.83 0 18.8319C0 18.8337 0 18.8355 0 18.8373C0 18.8391 0 18.8409 0 18.8428C0 18.8445 0 18.8464 0 18.8481C0 18.85 0 18.8519 0 18.8536C0 18.8555 0 18.8573 0 18.8591C0 18.8609 0 18.8628 0 18.8645C0 18.8664 0 18.8681 0 18.87C0 18.8719 0 18.8736 0 18.8755C0 18.8773 0 18.8791 0 18.8809C0 18.8828 0 18.8845 0 18.8864C0 18.8881 0 18.89 0 18.8919C0 18.8936 0 18.8955 0 18.8973C0 18.8991 0 18.9009 0 18.9028C0 18.9045 0 18.9064 0 18.9083C0 18.91 0 18.9119 0 18.9137C0 18.9155 0 18.9173 0 18.9192C0 18.9209 0 18.9228 0 18.9247C0 18.9264 0 18.9283 0 18.9301C0 18.9319 0 18.9337 0 18.9356C0 18.9373 0 18.9392 0 18.9411C0 18.9428 0 18.9447 0 18.9465C0 18.9483 0 18.9501 0 18.952C0 18.9537 0 18.9556 0 18.9575C0 18.9592 0 18.9611 0 18.9629C0 18.9648 0 18.9665 0 18.9684C0 18.9703 0 18.972 0 18.9739C0 18.9757 0 18.9775 0 18.9793C0 18.9812 0 18.9829 0 18.9848C0 18.9867 0 18.9885 0 18.9903C0 18.9921 0 18.994 0 18.9957C0 18.9976 0 18.9995 0 19.0012C0 19.0031 0 19.0049 0 19.0068C0 19.0085 0 19.0104 0 19.0123C0 19.014 0 19.0159 0 19.0177C0 19.0196 0 19.0213 0 19.0232C0 19.0251 0 19.0269 0 19.0287C0 19.0305 0 19.0324 0 19.0341C0 19.036 0 19.0379 0 19.0397C0 19.0415 0 19.0433 0 19.0452C0 19.0469 0 19.0488 0 19.0507C0 19.0525 0 19.0543 0 19.0561C0 19.058 0 19.0599 0 19.0616C0 19.0635 0 19.0653 0 19.0672C0 19.0689 0 19.0708 0 19.0727C0 19.0745 0 19.0763 0 19.0781C0 19.08 0 19.0819 0 19.0836C0 19.0855 0 19.0873 0 19.0892C0 19.0909 0 19.0928 0 19.0947C0 19.0965 0 19.0983 0 19.1001C0 19.102 0 19.1039 0 19.1056C0 19.1075 0 19.1093 0 19.1112C0 19.1129 0 19.1148 0 19.1167C0 19.1185 0 19.1204 0 19.1221C0 19.124 0 19.1259 0 19.1277C0 19.1295 0 19.1313 0 19.1332C0 19.1351 0 19.1368 0 19.1387C0 19.1405 0 19.1424 0 19.1443C0 19.146 0 19.1479 0 19.1497C0 19.1516 0 19.1535 0 19.1552C0 19.1571 0 19.1589 0 19.1608C0 19.1625 0 19.1644 0 19.1663C0 19.1681 0 19.17 0 19.1717C0 19.1736 0 19.1755 0 19.1773C0 19.1792 0 19.1809 0 19.1828C0 19.1847 0 19.1865 0 19.1884C0 19.1901 0 19.192 0 19.1939C0 19.1957 0 19.1976 0 19.1993C0 19.2012 0 19.2031 0 19.2049C0 19.2068 0 19.2087 0 19.2104C0 19.2123 0 19.2141 0 19.216C0 19.2179 0 19.2196 0 19.2215C0 19.2233 0 19.2252 0 19.2271C0 19.2289 0 19.2307 0 19.2325C0 19.2344 0 19.2363 0 19.2381C0 19.2399 0 19.2417 0 19.2436C0 19.2455 0 19.2473 0 19.2492C0 19.2509 0 19.2528 0 19.2547C0 19.2565 0 19.2584 0 19.2603C0 19.262 0 19.2639 0 19.2657C0 19.2676 0 19.2695 0 19.2713C0 19.2732 0 19.2749 0 19.2768C0 19.2787 0 19.2805 0 19.2824C0 19.2843 0 19.286 0 19.2879C0 19.2897 0 19.2916 0 19.2935C0 19.2953 0 19.2972 0 19.2989C0 19.3008 0 19.3027 0 19.3045C0 19.3064 0 19.3083 0 19.3101C0 19.3119 0 19.3137 0 19.3156C0 19.3175 0 19.3193 0 19.3212H1.33333ZM4.66667 13.3255H10V11.9922H4.66667V13.3255ZM13.3333 16.6581C13.3333 16.6597 13.3333 16.6613 13.3333 16.6629C13.3333 16.6645 13.3333 16.6661 13.3333 16.6677C13.3333 16.6693 13.3333 16.6709 13.3333 16.6725C13.3333 16.6741 13.3333 16.6757 13.3333 16.6773C13.3333 16.6789 13.3333 16.6805 13.3333 16.6821C13.3333 16.6837 13.3333 16.6853 13.3333 16.6869C13.3333 16.6885 13.3333 16.6901 13.3333 16.6917C13.3333 16.6933 13.3333 16.6949 13.3333 16.6964C13.3333 16.698 13.3333 16.6996 13.3333 16.7012C13.3333 16.7028 13.3333 16.7044 13.3333 16.706C13.3333 16.7076 13.3333 16.7092 13.3333 16.7108C13.3333 16.7124 13.3333 16.714 13.3333 16.7156C13.3333 16.7172 13.3333 16.7188 13.3333 16.7204C13.3333 16.722 13.3333 16.7236 13.3333 16.7253C13.3333 16.7269 13.3333 16.7285 13.3333 16.7301C13.3333 16.7317 13.3333 16.7333 13.3333 16.7349C13.3333 16.7365 13.3333 16.7381 13.3333 16.7397C13.3333 16.7413 13.3333 16.7429 13.3333 16.7445C13.3333 16.7461 13.3333 16.7477 13.3333 16.7493C13.3333 16.7509 13.3333 16.7525 13.3333 16.7541C13.3333 16.7557 13.3333 16.7573 13.3333 16.7589C13.3333 16.7605 13.3333 16.7621 13.3333 16.7637C13.3333 16.7653 13.3333 16.7669 13.3333 16.7685C13.3333 16.7703 13.3333 16.7719 13.3333 16.7735C13.3333 16.7751 13.3333 16.7767 13.3333 16.7783C13.3333 16.7799 13.3333 16.7815 13.3333 16.7831C13.3333 16.7847 13.3333 16.7863 13.3333 16.7879C13.3333 16.7895 13.3333 16.7911 13.3333 16.7928C13.3333 16.7944 13.3333 16.796 13.3333 16.7976C13.3333 16.7992 13.3333 16.8008 13.3333 16.8024C13.3333 16.804 13.3333 16.8056 13.3333 16.8072C13.3333 16.8088 13.3333 16.8105 13.3333 16.8121C13.3333 16.8137 13.3333 16.8153 13.3333 16.8169C13.3333 16.8185 13.3333 16.8201 13.3333 16.8217C13.3333 16.8233 13.3333 16.8251 13.3333 16.8267C13.3333 16.8283 13.3333 16.8299 13.3333 16.8315C13.3333 16.8331 13.3333 16.8347 13.3333 16.8363C13.3333 16.8379 13.3333 16.8396 13.3333 16.8412C13.3333 16.8428 13.3333 16.8444 13.3333 16.846C13.3333 16.8476 13.3333 16.8492 13.3333 16.8509C13.3333 16.8525 13.3333 16.8541 13.3333 16.8557C13.3333 16.8573 13.3333 16.8589 13.3333 16.8605C13.3333 16.8623 13.3333 16.8639 13.3333 16.8655C13.3333 16.8671 13.3333 16.8687 13.3333 16.8703C13.3333 16.8719 13.3333 16.8736 13.3333 16.8752C13.3333 16.8768 13.3333 16.8784 13.3333 16.88C13.3333 16.8816 13.3333 16.8833 13.3333 16.8849C13.3333 16.8865 13.3333 16.8881 13.3333 16.8897C13.3333 16.8913 13.3333 16.8931 13.3333 16.8947C13.3333 16.8963 13.3333 16.8979 13.3333 16.8995C13.3333 16.9012 13.3333 16.9028 13.3333 16.9044C13.3333 16.906 13.3333 16.9076 13.3333 16.9093C13.3333 16.9109 13.3333 16.9125 13.3333 16.9141C13.3333 16.9157 13.3333 16.9175 13.3333 16.9191C13.3333 16.9207 13.3333 16.9223 13.3333 16.9239C13.3333 16.9256 13.3333 16.9272 13.3333 16.9288C13.3333 16.9304 13.3333 16.932 13.3333 16.9337C13.3333 16.9353 13.3333 16.9369 13.3333 16.9385C13.3333 16.9403 13.3333 16.9419 13.3333 16.9435C13.3333 16.9451 13.3333 16.9467 13.3333 16.9484C13.3333 16.95 13.3333 16.9516 13.3333 16.9532C13.3333 16.9549 13.3333 16.9565 13.3333 16.9581C13.3333 16.9597 13.3333 16.9615 13.3333 16.9631C13.3333 16.9647 13.3333 16.9663 13.3333 16.968C13.3333 16.9696 13.3333 16.9712 13.3333 16.9728C13.3333 16.9745 13.3333 16.9761 13.3333 16.9777C13.3333 16.9793 13.3333 16.9811 13.3333 16.9827C13.3333 16.9843 13.3333 16.9859 13.3333 16.9876C13.3333 16.9892 13.3333 16.9908 13.3333 16.9924C13.3333 16.9941 13.3333 16.9957 13.3333 16.9973C13.3333 16.9991 13.3333 17.0007 13.3333 17.0023C13.3333 17.0039 13.3333 17.0056 13.3333 17.0072C13.3333 17.0088 13.3333 17.0105 13.3333 17.0121C13.3333 17.0137 13.3333 17.0153 13.3333 17.0171C13.3333 17.0187 13.3333 17.0203 13.3333 17.022C13.3333 17.0236 13.3333 17.0252 13.3333 17.0269C13.3333 17.0285 13.3333 17.0301 13.3333 17.0317C13.3333 17.0335 13.3333 17.0351 13.3333 17.0367C13.3333 17.0384 13.3333 17.04 13.3333 17.0416C13.3333 17.0433 13.3333 17.0449 13.3333 17.0465C13.3333 17.0483 13.3333 17.0499 13.3333 17.0515C13.3333 17.0532 13.3333 17.0548 13.3333 17.0564C13.3333 17.0581 13.3333 17.0597 13.3333 17.0613C13.3333 17.0631 13.3333 17.0647 13.3333 17.0663C13.3333 17.068 13.3333 17.0696 13.3333 17.0712C13.3333 17.0729 13.3333 17.0745 13.3333 17.0761C13.3333 17.0779 13.3333 17.0795 13.3333 17.0811C13.3333 17.0828 13.3333 17.0844 13.3333 17.086C13.3333 17.0877 13.3333 17.0893 13.3333 17.0911C13.3333 17.0927 13.3333 17.0943 13.3333 17.096C13.3333 17.0976 13.3333 17.0992 13.3333 17.1009C13.3333 17.1025 13.3333 17.1043 13.3333 17.1059C13.3333 17.1075 13.3333 17.1092 13.3333 17.1108C13.3333 17.1124 13.3333 17.1141 13.3333 17.1157C13.3333 17.1175 13.3333 17.1191 13.3333 17.1207C13.3333 17.1224 13.3333 17.124 13.3333 17.1257C13.3333 17.1273 13.3333 17.1289 13.3333 17.1307C13.3333 17.1323 13.3333 17.1339 13.3333 17.1356C13.3333 17.1372 13.3333 17.1389 13.3333 17.1405C13.3333 17.1423 13.3333 17.1439 13.3333 17.1455C13.3333 17.1472 13.3333 17.1488 13.3333 17.1505C13.3333 17.1521 13.3333 17.1537 13.3333 17.1555C13.3333 17.1571 13.3333 17.1588 13.3333 17.1604C13.3333 17.1621 13.3333 17.1637 13.3333 17.1653C13.3333 17.1671 13.3333 17.1687 13.3333 17.1704C13.3333 17.172 13.3333 17.1737 13.3333 17.1753C13.3333 17.1769 13.3333 17.1787 13.3333 17.1803C13.3333 17.182 13.3333 17.1836 13.3333 17.1853C13.3333 17.1869 13.3333 17.1887 13.3333 17.1903C13.3333 17.1919 13.3333 17.1936 13.3333 17.1952C13.3333 17.1969 13.3333 17.1985 13.3333 17.2003C13.3333 17.2019 13.3333 17.2036 13.3333 17.2052C13.3333 17.2069 13.3333 17.2085 13.3333 17.2103C13.3333 17.2119 13.3333 17.2135 13.3333 17.2152C13.3333 17.2168 13.3333 17.2185 13.3333 17.2201C13.3333 17.2219 13.3333 17.2235 13.3333 17.2252C13.3333 17.2268 13.3333 17.2285 13.3333 17.2301C13.3333 17.2319 13.3333 17.2335 13.3333 17.2352C13.3333 17.2368 13.3333 17.2385 13.3333 17.2401C13.3333 17.2419 13.3333 17.2435 13.3333 17.2452C13.3333 17.2468 13.3333 17.2485 13.3333 17.2501C13.3333 17.2519 13.3333 17.2535 13.3333 17.2552C13.3333 17.2568 13.3333 17.2585 13.3333 17.2601C13.3333 17.2619 13.3333 17.2635 13.3333 17.2652C13.3333 17.2668 13.3333 17.2685 13.3333 17.2701C13.3333 17.2719 13.3333 17.2735 13.3333 17.2752C13.3333 17.2768 13.3333 17.2785 13.3333 17.2803C13.3333 17.2819 13.3333 17.2836 13.3333 17.2852C13.3333 17.2869 13.3333 17.2885 13.3333 17.2903C13.3333 17.2919 13.3333 17.2936 13.3333 17.2952C13.3333 17.2969 13.3333 17.2985 13.3333 17.3003C13.3333 17.302 13.3333 17.3036 13.3333 17.3053C13.3333 17.3069 13.3333 17.3087 13.3333 17.3103C13.3333 17.312 13.3333 17.3136 13.3333 17.3153C13.3333 17.3171 13.3333 17.3187 13.3333 17.3204C13.3333 17.322 13.3333 17.3237 13.3333 17.3253C13.3333 17.3271 13.3333 17.3288 13.3333 17.3304C13.3333 17.3321 13.3333 17.3337 13.3333 17.3355C13.3333 17.3371 13.3333 17.3388 13.3333 17.3405C13.3333 17.3421 13.3333 17.3439 13.3333 17.3455C13.3333 17.3472 13.3333 17.3489 13.3333 17.3505C13.3333 17.3523 13.3333 17.3539 13.3333 17.3556C13.3333 17.3572 13.3333 17.3589 13.3333 17.3607C13.3333 17.3623 13.3333 17.364 13.3333 17.3656C13.3333 17.3673 13.3333 17.3691 13.3333 17.3707C13.3333 17.3724 13.3333 17.374 13.3333 17.3757C13.3333 17.3775 13.3333 17.3791 13.3333 17.3808C13.3333 17.3825 13.3333 17.3841 13.3333 17.3859C13.3333 17.3875 13.3333 17.3892 13.3333 17.3909C13.3333 17.3925 13.3333 17.3943 13.3333 17.396C13.3333 17.3976 13.3333 17.3993 13.3333 17.4009C13.3333 17.4027 13.3333 17.4044 13.3333 17.406C13.3333 17.4077 13.3333 17.4095 13.3333 17.4111C13.3333 17.4128 13.3333 17.4145 13.3333 17.4161C13.3333 17.4179 13.3333 17.4195 13.3333 17.4212C13.3333 17.4229 13.3333 17.4245 13.3333 17.4263C13.3333 17.428 13.3333 17.4296 13.3333 17.4313C13.3333 17.4331 13.3333 17.4347 13.3333 17.4364C13.3333 17.4381 13.3333 17.4397 13.3333 17.4415C13.3333 17.4432 13.3333 17.4448 13.3333 17.4465C13.3333 17.4483 13.3333 17.4499 13.3333 17.4516C13.3333 17.4533 13.3333 17.4549 13.3333 17.4567C13.3333 17.4584 13.3333 17.46 13.3333 17.4617C13.3333 17.4635 13.3333 17.4651 13.3333 17.4668C13.3333 17.4685 13.3333 17.4703 13.3333 17.4719C13.3333 17.4736 13.3333 17.4753 13.3333 17.4769C13.3333 17.4787 13.3333 17.4804 13.3333 17.482C13.3333 17.4837 13.3333 17.4855 13.3333 17.4872C13.3333 17.4888 13.3333 17.4905 13.3333 17.4923C13.3333 17.4939 13.3333 17.4956 13.3333 17.4973C13.3333 17.4989 13.3333 17.5007 13.3333 17.5024C13.3333 17.5041 13.3333 17.5057 13.3333 17.5075C13.3333 17.5092 13.3333 17.5109 13.3333 17.5125C13.3333 17.5143 13.3333 17.516 13.3333 17.5176C13.3333 17.5193 13.3333 17.5211 13.3333 17.5228C13.3333 17.5244 13.3333 17.5261 13.3333 17.5279C13.3333 17.5296 13.3333 17.5312 13.3333 17.5329C13.3333 17.5347 13.3333 17.5364 13.3333 17.538C13.3333 17.5397 13.3333 17.5415 13.3333 17.5431C13.3333 17.5448 13.3333 17.5465 13.3333 17.5483C13.3333 17.5499 13.3333 17.5516 13.3333 17.5533C13.3333 17.5551 13.3333 17.5568 13.3333 17.5584C13.3333 17.5601 13.3333 17.5619 13.3333 17.5636C13.3333 17.5652 13.3333 17.5669 13.3333 17.5687C13.3333 17.5704 13.3333 17.572 13.3333 17.5737C13.3333 17.5755 13.3333 17.5772 13.3333 17.5789C13.3333 17.5805 13.3333 17.5823 13.3333 17.584C13.3333 17.5857 13.3333 17.5873 13.3333 17.5891C13.3333 17.5908 13.3333 17.5925 13.3333 17.5943C13.3333 17.5959 13.3333 17.5976 13.3333 17.5993C13.3333 17.6011 13.3333 17.6028 13.3333 17.6044C13.3333 17.6061 13.3333 17.6079 13.3333 17.6096C13.3333 17.6113 13.3333 17.6129 13.3333 17.6147C13.3333 17.6164 13.3333 17.6181 13.3333 17.6199C13.3333 17.6215 13.3333 17.6232 13.3333 17.6249C13.3333 17.6267 13.3333 17.6284 13.3333 17.63C13.3333 17.6317 13.3333 17.6335 13.3333 17.6352C13.3333 17.6369 13.3333 17.6387 13.3333 17.6403C13.3333 17.642 13.3333 17.6437 13.3333 17.6455C13.3333 17.6472 13.3333 17.6489 13.3333 17.6505C13.3333 17.6523 13.3333 17.654 13.3333 17.6557C13.3333 17.6575 13.3333 17.6592 13.3333 17.6608C13.3333 17.6625 13.3333 17.6643 13.3333 17.666C13.3333 17.6677 13.3333 17.6695 13.3333 17.6711C13.3333 17.6728 13.3333 17.6745 13.3333 17.6763C13.3333 17.678 13.3333 17.6797 13.3333 17.6815C13.3333 17.6831 13.3333 17.6848 13.3333 17.6865C13.3333 17.6883 13.3333 17.69 13.3333 17.6917C13.3333 17.6935 13.3333 17.6951 13.3333 17.6968C13.3333 17.6985 13.3333 17.7003 13.3333 17.702C13.3333 17.7037 13.3333 17.7055 13.3333 17.7072C13.3333 17.7088 13.3333 17.7105 13.3333 17.7123C13.3333 17.714 13.3333 17.7157 13.3333 17.7175C13.3333 17.7192 13.3333 17.7209 13.3333 17.7227C13.3333 17.7243 13.3333 17.726 13.3333 17.7277C13.3333 17.7295 13.3333 17.7312 13.3333 17.7329C13.3333 17.7347 13.3333 17.7364 13.3333 17.7381C13.3333 17.7397 13.3333 17.7415 13.3333 17.7432C13.3333 17.7449 13.3333 17.7467 13.3333 17.7484C13.3333 17.7501 13.3333 17.7519 13.3333 17.7536C13.3333 17.7553 13.3333 17.7571 13.3333 17.7587C13.3333 17.7604 13.3333 17.7621 13.3333 17.7639C13.3333 17.7656 13.3333 17.7673 13.3333 17.7691C13.3333 17.7708 13.3333 17.7725 13.3333 17.7743C13.3333 17.776 13.3333 17.7777 13.3333 17.7795C13.3333 17.7812 13.3333 17.7828 13.3333 17.7845C13.3333 17.7863 13.3333 17.788 13.3333 17.7897C13.3333 17.7915 13.3333 17.7932 13.3333 17.7949C13.3333 17.7967 13.3333 17.7984 13.3333 17.8001C13.3333 17.8019 13.3333 17.8036 13.3333 17.8053C13.3333 17.8071 13.3333 17.8088 13.3333 17.8105C13.3333 17.8123 13.3333 17.8139 13.3333 17.8156C13.3333 17.8173 13.3333 17.8191 13.3333 17.8208C13.3333 17.8225 13.3333 17.8243 13.3333 17.826C13.3333 17.8277 13.3333 17.8295 13.3333 17.8312C13.3333 17.8329 13.3333 17.8347 13.3333 17.8364C13.3333 17.8381 13.3333 17.8399 13.3333 17.8416C13.3333 17.8433 13.3333 17.8451 13.3333 17.8468C13.3333 17.8485 13.3333 17.8503 13.3333 17.852C13.3333 17.8537 13.3333 17.8555 13.3333 17.8572C13.3333 17.8589 13.3333 17.8607 13.3333 17.8624C13.3333 17.8641 13.3333 17.8659 13.3333 17.8676C13.3333 17.8693 13.3333 17.8711 13.3333 17.8728C13.3333 17.8745 13.3333 17.8763 13.3333 17.878C13.3333 17.8797 13.3333 17.8815 13.3333 17.8832C13.3333 17.8849 13.3333 17.8867 13.3333 17.8884C13.3333 17.8901 13.3333 17.8919 13.3333 17.8936C13.3333 17.8953 13.3333 17.8971 13.3333 17.8988C13.3333 17.9005 13.3333 17.9023 13.3333 17.904C13.3333 17.9057 13.3333 17.9075 13.3333 17.9092C13.3333 17.9109 13.3333 17.9127 13.3333 17.9144C13.3333 17.9161 13.3333 17.9179 13.3333 17.9196C13.3333 17.9213 13.3333 17.9231 13.3333 17.9248C13.3333 17.9265 13.3333 17.9283 13.3333 17.9301C13.3333 17.9319 13.3333 17.9336 13.3333 17.9353C13.3333 17.9371 13.3333 17.9388 13.3333 17.9405C13.3333 17.9423 13.3333 17.944 13.3333 17.9457C13.3333 17.9475 13.3333 17.9492 13.3333 17.9509C13.3333 17.9527 13.3333 17.9544 13.3333 17.9561C13.3333 17.9579 13.3333 17.9596 13.3333 17.9615C13.3333 17.9632 13.3333 17.9649 13.3333 17.9667C13.3333 17.9684 13.3333 17.9701 13.3333 17.9719C13.3333 17.9736 13.3333 17.9753 13.3333 17.9771C13.3333 17.9788 13.3333 17.9805 13.3333 17.9823C13.3333 17.984 13.3333 17.9859 13.3333 17.9876C13.3333 17.9893 13.3333 17.9911 13.3333 17.9928C13.3333 17.9945 13.3333 17.9963 13.3333 17.998C13.3333 17.9997 13.3333 18.0015 13.3333 18.0032C13.3333 18.0051 13.3333 18.0068 13.3333 18.0085C13.3333 18.0103 13.3333 18.012 13.3333 18.0137C13.3333 18.0155 13.3333 18.0172 13.3333 18.0189C13.3333 18.0207 13.3333 18.0225 13.3333 18.0243C13.3333 18.026 13.3333 18.0277 13.3333 18.0295C13.3333 18.0312 13.3333 18.0329 13.3333 18.0347C13.3333 18.0364 13.3333 18.0383 13.3333 18.04C13.3333 18.0417 13.3333 18.0435 13.3333 18.0452C13.3333 18.0469 13.3333 18.0487 13.3333 18.0504C13.3333 18.0523 13.3333 18.054 13.3333 18.0557C13.3333 18.0575 13.3333 18.0592 13.3333 18.0609C13.3333 18.0627 13.3333 18.0645 13.3333 18.0663C13.3333 18.068 13.3333 18.0697 13.3333 18.0715C13.3333 18.0732 13.3333 18.0749 13.3333 18.0768C13.3333 18.0785 13.3333 18.0803 13.3333 18.082C13.3333 18.0837 13.3333 18.0855 13.3333 18.0872C13.3333 18.0891 13.3333 18.0908 13.3333 18.0925C13.3333 18.0943 13.3333 18.096 13.3333 18.0977C13.3333 18.0996 13.3333 18.1013 13.3333 18.1031C13.3333 18.1048 13.3333 18.1065 13.3333 18.1083C13.3333 18.1101 13.3333 18.1119 13.3333 18.1136C13.3333 18.1153 13.3333 18.1171 13.3333 18.1188C13.3333 18.1207 13.3333 18.1224 13.3333 18.1241C13.3333 18.1259 13.3333 18.1276 13.3333 18.1293C13.3333 18.1312 13.3333 18.1329 13.3333 18.1347C13.3333 18.1364 13.3333 18.1381 13.3333 18.14C13.3333 18.1417 13.3333 18.1435 13.3333 18.1452C13.3333 18.1469 13.3333 18.1488 13.3333 18.1505C13.3333 18.1523 13.3333 18.154 13.3333 18.1557C13.3333 18.1576 13.3333 18.1593 13.3333 18.1611C13.3333 18.1628 13.3333 18.1645 13.3333 18.1664C13.3333 18.1681 13.3333 18.1699 13.3333 18.1716C13.3333 18.1733 13.3333 18.1752 13.3333 18.1769C13.3333 18.1787 13.3333 18.1804 13.3333 18.1821C13.3333 18.184 13.3333 18.1857 13.3333 18.1875C13.3333 18.1892 13.3333 18.1911 13.3333 18.1928C13.3333 18.1945 13.3333 18.1963 13.3333 18.198C13.3333 18.1999 13.3333 18.2016 13.3333 18.2033C13.3333 18.2051 13.3333 18.2069 13.3333 18.2087C13.3333 18.2104 13.3333 18.2121 13.3333 18.214C13.3333 18.2157 13.3333 18.2175 13.3333 18.2192C13.3333 18.2211 13.3333 18.2228 13.3333 18.2245C13.3333 18.2263 13.3333 18.2281 13.3333 18.2299C13.3333 18.2316 13.3333 18.2333 13.3333 18.2352C13.3333 18.2369 13.3333 18.2387 13.3333 18.2404C13.3333 18.2423 13.3333 18.244 13.3333 18.2457C13.3333 18.2475 13.3333 18.2493 13.3333 18.2511C13.3333 18.2528 13.3333 18.2545 13.3333 18.2564C13.3333 18.2581 13.3333 18.2599 13.3333 18.2616C13.3333 18.2635 13.3333 18.2652 13.3333 18.2669C13.3333 18.2688 13.3333 18.2705 13.3333 18.2723C13.3333 18.274 13.3333 18.2759 13.3333 18.2776C13.3333 18.2793 13.3333 18.2812 13.3333 18.2829C13.3333 18.2847 13.3333 18.2864 13.3333 18.2883C13.3333 18.29 13.3333 18.2917 13.3333 18.2936C13.3333 18.2953 13.3333 18.2971 13.3333 18.2988C13.3333 18.3007 13.3333 18.3024 13.3333 18.3041C13.3333 18.306 13.3333 18.3077 13.3333 18.3095C13.3333 18.3113 13.3333 18.3131 13.3333 18.3148C13.3333 18.3165 13.3333 18.3184 13.3333 18.3201C13.3333 18.3219 13.3333 18.3237 13.3333 18.3255C13.3333 18.3272 13.3333 18.3291 13.3333 18.3308C13.3333 18.3325 13.3333 18.3344 13.3333 18.3361C13.3333 18.3379 13.3333 18.3397 13.3333 18.3415C13.3333 18.3432 13.3333 18.3451 13.3333 18.3468C13.3333 18.3485 13.3333 18.3503 13.3333 18.3521C13.3333 18.3539 13.3333 18.3556 13.3333 18.3575C13.3333 18.3592 13.3333 18.3609 13.3333 18.3628C13.3333 18.3645 13.3333 18.3663 13.3333 18.3681C13.3333 18.3699 13.3333 18.3717 13.3333 18.3735C13.3333 18.3752 13.3333 18.3771 13.3333 18.3788C13.3333 18.3805 13.3333 18.3824 13.3333 18.3841C13.3333 18.3859 13.3333 18.3877 13.3333 18.3895C13.3333 18.3912 13.3333 18.3931 13.3333 18.3948C13.3333 18.3965 13.3333 18.3984 13.3333 18.4001C13.3333 18.402 13.3333 18.4037 13.3333 18.4055C13.3333 18.4073 13.3333 18.4091 13.3333 18.4108C13.3333 18.4127 13.3333 18.4144 13.3333 18.4161C13.3333 18.418 13.3333 18.4197 13.3333 18.4216C13.3333 18.4233 13.3333 18.4251 13.3333 18.4269C13.3333 18.4287 13.3333 18.4304 13.3333 18.4323C13.3333 18.434 13.3333 18.4359 13.3333 18.4376C13.3333 18.4393 13.3333 18.4412 13.3333 18.4429C13.3333 18.4448 13.3333 18.4465 13.3333 18.4483C13.3333 18.4501 13.3333 18.4519 13.3333 18.4536C13.3333 18.4555 13.3333 18.4572 13.3333 18.4591C13.3333 18.4608 13.3333 18.4625 13.3333 18.4644C13.3333 18.4661 13.3333 18.468 13.3333 18.4697C13.3333 18.4715 13.3333 18.4733 13.3333 18.4751C13.3333 18.4769 13.3333 18.4787 13.3333 18.4804C13.3333 18.4823 13.3333 18.484 13.3333 18.4859C13.3333 18.4876 13.3333 18.4895 13.3333 18.4912C13.3333 18.4929 13.3333 18.4948 13.3333 18.4965C13.3333 18.4984 13.3333 18.5001 13.3333 18.5019C13.3333 18.5037 13.3333 18.5055 13.3333 18.5073C13.3333 18.5091 13.3333 18.5109 13.3333 18.5127C13.3333 18.5144 13.3333 18.5163 13.3333 18.518C13.3333 18.5199 13.3333 18.5216 13.3333 18.5235C13.3333 18.5252 13.3333 18.5271 13.3333 18.5288C13.3333 18.5305 13.3333 18.5324 13.3333 18.5341C13.3333 18.536 13.3333 18.5377 13.3333 18.5396C13.3333 18.5413 13.3333 18.5432 13.3333 18.5449C13.3333 18.5467 13.3333 18.5485 13.3333 18.5503C13.3333 18.5521 13.3333 18.5539 13.3333 18.5557C13.3333 18.5575 13.3333 18.5593 13.3333 18.5611C13.3333 18.5629 13.3333 18.5647 13.3333 18.5664C13.3333 18.5683 13.3333 18.57 13.3333 18.5719C13.3333 18.5736 13.3333 18.5755 13.3333 18.5772C13.3333 18.5791 13.3333 18.5808 13.3333 18.5827C13.3333 18.5844 13.3333 18.5863 13.3333 18.588C13.3333 18.5899 13.3333 18.5916 13.3333 18.5935C13.3333 18.5952 13.3333 18.5969 13.3333 18.5988C13.3333 18.6005 13.3333 18.6024 13.3333 18.6041C13.3333 18.606 13.3333 18.6077 13.3333 18.6096C13.3333 18.6113 13.3333 18.6132 13.3333 18.6149C13.3333 18.6168 13.3333 18.6185 13.3333 18.6204C13.3333 18.6221 13.3333 18.624 13.3333 18.6257C13.3333 18.6276 13.3333 18.6293 13.3333 18.6312C13.3333 18.6329 13.3333 18.6348 13.3333 18.6365C13.3333 18.6384 13.3333 18.6401 13.3333 18.642C13.3333 18.6437 13.3333 18.6456 13.3333 18.6473C13.3333 18.6492 13.3333 18.6509 13.3333 18.6528C13.3333 18.6545 13.3333 18.6564 13.3333 18.6581C13.3333 18.66 13.3333 18.6617 13.3333 18.6636C13.3333 18.6655 13.3333 18.6672 13.3333 18.6691C13.3333 18.6708 13.3333 18.6727 13.3333 18.6744C13.3333 18.6763 13.3333 18.678 13.3333 18.6799C13.3333 18.6816 13.3333 18.6835 13.3333 18.6852C13.3333 18.6871 13.3333 18.6888 13.3333 18.6907C13.3333 18.6924 13.3333 18.6943 13.3333 18.6961C13.3333 18.6979 13.3333 18.6997 13.3333 18.7015C13.3333 18.7033 13.3333 18.7051 13.3333 18.7069C13.3333 18.7087 13.3333 18.7105 13.3333 18.7123C13.3333 18.7141 13.3333 18.716 13.3333 18.7177C13.3333 18.7196 13.3333 18.7213 13.3333 18.7232C13.3333 18.7249 13.3333 18.7268 13.3333 18.7285C13.3333 18.7304 13.3333 18.7323 13.3333 18.734C13.3333 18.7359 13.3333 18.7376 13.3333 18.7395C13.3333 18.7412 13.3333 18.7431 13.3333 18.7448C13.3333 18.7467 13.3333 18.7485 13.3333 18.7503C13.3333 18.7521 13.3333 18.7539 13.3333 18.7557C13.3333 18.7575 13.3333 18.7593 13.3333 18.7612C13.3333 18.7629 13.3333 18.7648 13.3333 18.7665C13.3333 18.7684 13.3333 18.7703 13.3333 18.772C13.3333 18.7739 13.3333 18.7756 13.3333 18.7775C13.3333 18.7792 13.3333 18.7811 13.3333 18.7829C13.3333 18.7847 13.3333 18.7865 13.3333 18.7883C13.3333 18.7901 13.3333 18.792 13.3333 18.7937C13.3333 18.7956 13.3333 18.7973 13.3333 18.7992C13.3333 18.8011 13.3333 18.8028 13.3333 18.8047C13.3333 18.8064 13.3333 18.8083 13.3333 18.8101C13.3333 18.8119 13.3333 18.8137 13.3333 18.8155C13.3333 18.8173 13.3333 18.8192 13.3333 18.8209C13.3333 18.8228 13.3333 18.8245 13.3333 18.8264C13.3333 18.8283 13.3333 18.83 13.3333 18.8319C13.3333 18.8337 13.3333 18.8355 13.3333 18.8373C13.3333 18.8391 13.3333 18.8409 13.3333 18.8428C13.3333 18.8445 13.3333 18.8464 13.3333 18.8481C13.3333 18.85 13.3333 18.8519 13.3333 18.8536C13.3333 18.8555 13.3333 18.8573 13.3333 18.8591C13.3333 18.8609 13.3333 18.8628 13.3333 18.8645C13.3333 18.8664 13.3333 18.8681 13.3333 18.87C13.3333 18.8719 13.3333 18.8736 13.3333 18.8755C13.3333 18.8773 13.3333 18.8791 13.3333 18.8809C13.3333 18.8828 13.3333 18.8845 13.3333 18.8864C13.3333 18.8881 13.3333 18.89 13.3333 18.8919C13.3333 18.8936 13.3333 18.8955 13.3333 18.8973C13.3333 18.8991 13.3333 18.9009 13.3333 18.9028C13.3333 18.9045 13.3333 18.9064 13.3333 18.9083C13.3333 18.91 13.3333 18.9119 13.3333 18.9137C13.3333 18.9155 13.3333 18.9173 13.3333 18.9192C13.3333 18.9209 13.3333 18.9228 13.3333 18.9247C13.3333 18.9264 13.3333 18.9283 13.3333 18.9301C13.3333 18.9319 13.3333 18.9337 13.3333 18.9356C13.3333 18.9373 13.3333 18.9392 13.3333 18.9411C13.3333 18.9428 13.3333 18.9447 13.3333 18.9465C13.3333 18.9483 13.3333 18.9501 13.3333 18.952C13.3333 18.9537 13.3333 18.9556 13.3333 18.9575C13.3333 18.9592 13.3333 18.9611 13.3333 18.9629C13.3333 18.9648 13.3333 18.9665 13.3333 18.9684C13.3333 18.9703 13.3333 18.972 13.3333 18.9739C13.3333 18.9757 13.3333 18.9775 13.3333 18.9793C13.3333 18.9812 13.3333 18.9829 13.3333 18.9848C13.3333 18.9867 13.3333 18.9885 13.3333 18.9903C13.3333 18.9921 13.3333 18.994 13.3333 18.9957C13.3333 18.9976 13.3333 18.9995 13.3333 19.0012C13.3333 19.0031 13.3333 19.0049 13.3333 19.0068C13.3333 19.0085 13.3333 19.0104 13.3333 19.0123C13.3333 19.014 13.3333 19.0159 13.3333 19.0177C13.3333 19.0196 13.3333 19.0213 13.3333 19.0232C13.3333 19.0251 13.3333 19.0269 13.3333 19.0287C13.3333 19.0305 13.3333 19.0324 13.3333 19.0341C13.3333 19.036 13.3333 19.0379 13.3333 19.0397C13.3333 19.0415 13.3333 19.0433 13.3333 19.0452C13.3333 19.0469 13.3333 19.0488 13.3333 19.0507C13.3333 19.0525 13.3333 19.0543 13.3333 19.0561C13.3333 19.058 13.3333 19.0599 13.3333 19.0616C13.3333 19.0635 13.3333 19.0653 13.3333 19.0672C13.3333 19.0689 13.3333 19.0708 13.3333 19.0727C13.3333 19.0745 13.3333 19.0763 13.3333 19.0781C13.3333 19.08 13.3333 19.0819 13.3333 19.0836C13.3333 19.0855 13.3333 19.0873 13.3333 19.0892C13.3333 19.0909 13.3333 19.0928 13.3333 19.0947C13.3333 19.0965 13.3333 19.0983 13.3333 19.1001C13.3333 19.102 13.3333 19.1039 13.3333 19.1056C13.3333 19.1075 13.3333 19.1093 13.3333 19.1112C13.3333 19.1129 13.3333 19.1148 13.3333 19.1167C13.3333 19.1185 13.3333 19.1204 13.3333 19.1221C13.3333 19.124 13.3333 19.1259 13.3333 19.1277C13.3333 19.1295 13.3333 19.1313 13.3333 19.1332C13.3333 19.1351 13.3333 19.1368 13.3333 19.1387C13.3333 19.1405 13.3333 19.1424 13.3333 19.1443C13.3333 19.146 13.3333 19.1479 13.3333 19.1497C13.3333 19.1516 13.3333 19.1535 13.3333 19.1552C13.3333 19.1571 13.3333 19.1589 13.3333 19.1608C13.3333 19.1625 13.3333 19.1644 13.3333 19.1663C13.3333 19.1681 13.3333 19.17 13.3333 19.1717C13.3333 19.1736 13.3333 19.1755 13.3333 19.1773C13.3333 19.1792 13.3333 19.1809 13.3333 19.1828C13.3333 19.1847 13.3333 19.1865 13.3333 19.1884C13.3333 19.1901 13.3333 19.192 13.3333 19.1939C13.3333 19.1957 13.3333 19.1976 13.3333 19.1993C13.3333 19.2012 13.3333 19.2031 13.3333 19.2049C13.3333 19.2068 13.3333 19.2087 13.3333 19.2104C13.3333 19.2123 13.3333 19.2141 13.3333 19.216C13.3333 19.2179 13.3333 19.2196 13.3333 19.2215C13.3333 19.2233 13.3333 19.2252 13.3333 19.2271C13.3333 19.2289 13.3333 19.2307 13.3333 19.2325C13.3333 19.2344 13.3333 19.2363 13.3333 19.2381C13.3333 19.2399 13.3333 19.2417 13.3333 19.2436C13.3333 19.2455 13.3333 19.2473 13.3333 19.2492C13.3333 19.2509 13.3333 19.2528 13.3333 19.2547C13.3333 19.2565 13.3333 19.2584 13.3333 19.2603C13.3333 19.262 13.3333 19.2639 13.3333 19.2657C13.3333 19.2676 13.3333 19.2695 13.3333 19.2713C13.3333 19.2732 13.3333 19.2749 13.3333 19.2768C13.3333 19.2787 13.3333 19.2805 13.3333 19.2824C13.3333 19.2843 13.3333 19.286 13.3333 19.2879C13.3333 19.2897 13.3333 19.2916 13.3333 19.2935C13.3333 19.2953 13.3333 19.2972 13.3333 19.2989C13.3333 19.3008 13.3333 19.3027 13.3333 19.3045C13.3333 19.3064 13.3333 19.3083 13.3333 19.3101C13.3333 19.3119 13.3333 19.3137 13.3333 19.3156C13.3333 19.3175 13.3333 19.3193 13.3333 19.3212H14.6667C14.6667 19.3193 14.6667 19.3175 14.6667 19.3156C14.6667 19.3137 14.6667 19.3119 14.6667 19.3101C14.6667 19.3083 14.6667 19.3064 14.6667 19.3045C14.6667 19.3027 14.6667 19.3008 14.6667 19.2989C14.6667 19.2972 14.6667 19.2953 14.6667 19.2935C14.6667 19.2916 14.6667 19.2897 14.6667 19.2879C14.6667 19.286 14.6667 19.2843 14.6667 19.2824C14.6667 19.2805 14.6667 19.2787 14.6667 19.2768C14.6667 19.2749 14.6667 19.2732 14.6667 19.2713C14.6667 19.2695 14.6667 19.2676 14.6667 19.2657C14.6667 19.2639 14.6667 19.262 14.6667 19.2603C14.6667 19.2584 14.6667 19.2565 14.6667 19.2547C14.6667 19.2528 14.6667 19.2509 14.6667 19.2492C14.6667 19.2473 14.6667 19.2455 14.6667 19.2436C14.6667 19.2417 14.6667 19.2399 14.6667 19.2381C14.6667 19.2363 14.6667 19.2344 14.6667 19.2325C14.6667 19.2307 14.6667 19.2289 14.6667 19.2271C14.6667 19.2252 14.6667 19.2233 14.6667 19.2215C14.6667 19.2196 14.6667 19.2179 14.6667 19.216C14.6667 19.2141 14.6667 19.2123 14.6667 19.2104C14.6667 19.2087 14.6667 19.2068 14.6667 19.2049C14.6667 19.2031 14.6667 19.2012 14.6667 19.1993C14.6667 19.1976 14.6667 19.1957 14.6667 19.1939C14.6667 19.192 14.6667 19.1901 14.6667 19.1884C14.6667 19.1865 14.6667 19.1847 14.6667 19.1828C14.6667 19.1809 14.6667 19.1792 14.6667 19.1773C14.6667 19.1755 14.6667 19.1736 14.6667 19.1717C14.6667 19.17 14.6667 19.1681 14.6667 19.1663C14.6667 19.1644 14.6667 19.1625 14.6667 19.1608C14.6667 19.1589 14.6667 19.1571 14.6667 19.1552C14.6667 19.1535 14.6667 19.1516 14.6667 19.1497C14.6667 19.1479 14.6667 19.146 14.6667 19.1443C14.6667 19.1424 14.6667 19.1405 14.6667 19.1387C14.6667 19.1368 14.6667 19.1351 14.6667 19.1332C14.6667 19.1313 14.6667 19.1295 14.6667 19.1277C14.6667 19.1259 14.6667 19.124 14.6667 19.1221C14.6667 19.1204 14.6667 19.1185 14.6667 19.1167C14.6667 19.1148 14.6667 19.1129 14.6667 19.1112C14.6667 19.1093 14.6667 19.1075 14.6667 19.1056C14.6667 19.1039 14.6667 19.102 14.6667 19.1001C14.6667 19.0983 14.6667 19.0965 14.6667 19.0947C14.6667 19.0928 14.6667 19.0909 14.6667 19.0892C14.6667 19.0873 14.6667 19.0855 14.6667 19.0836C14.6667 19.0819 14.6667 19.08 14.6667 19.0781C14.6667 19.0763 14.6667 19.0745 14.6667 19.0727C14.6667 19.0708 14.6667 19.0689 14.6667 19.0672C14.6667 19.0653 14.6667 19.0635 14.6667 19.0616C14.6667 19.0599 14.6667 19.058 14.6667 19.0561C14.6667 19.0543 14.6667 19.0525 14.6667 19.0507C14.6667 19.0488 14.6667 19.0469 14.6667 19.0452C14.6667 19.0433 14.6667 19.0415 14.6667 19.0397C14.6667 19.0379 14.6667 19.036 14.6667 19.0341C14.6667 19.0324 14.6667 19.0305 14.6667 19.0287C14.6667 19.0269 14.6667 19.0251 14.6667 19.0232C14.6667 19.0213 14.6667 19.0196 14.6667 19.0177C14.6667 19.0159 14.6667 19.014 14.6667 19.0123C14.6667 19.0104 14.6667 19.0085 14.6667 19.0068C14.6667 19.0049 14.6667 19.0031 14.6667 19.0012C14.6667 18.9995 14.6667 18.9976 14.6667 18.9957C14.6667 18.994 14.6667 18.9921 14.6667 18.9903C14.6667 18.9885 14.6667 18.9867 14.6667 18.9848C14.6667 18.9829 14.6667 18.9812 14.6667 18.9793C14.6667 18.9775 14.6667 18.9757 14.6667 18.9739C14.6667 18.972 14.6667 18.9703 14.6667 18.9684C14.6667 18.9665 14.6667 18.9648 14.6667 18.9629C14.6667 18.9611 14.6667 18.9592 14.6667 18.9575C14.6667 18.9556 14.6667 18.9537 14.6667 18.952C14.6667 18.9501 14.6667 18.9483 14.6667 18.9465C14.6667 18.9447 14.6667 18.9428 14.6667 18.9411C14.6667 18.9392 14.6667 18.9373 14.6667 18.9356C14.6667 18.9337 14.6667 18.9319 14.6667 18.9301C14.6667 18.9283 14.6667 18.9264 14.6667 18.9247C14.6667 18.9228 14.6667 18.9209 14.6667 18.9192C14.6667 18.9173 14.6667 18.9155 14.6667 18.9137C14.6667 18.9119 14.6667 18.91 14.6667 18.9083C14.6667 18.9064 14.6667 18.9045 14.6667 18.9028C14.6667 18.9009 14.6667 18.8991 14.6667 18.8973C14.6667 18.8955 14.6667 18.8936 14.6667 18.8919C14.6667 18.89 14.6667 18.8881 14.6667 18.8864C14.6667 18.8845 14.6667 18.8828 14.6667 18.8809C14.6667 18.8791 14.6667 18.8773 14.6667 18.8755C14.6667 18.8736 14.6667 18.8719 14.6667 18.87C14.6667 18.8681 14.6667 18.8664 14.6667 18.8645C14.6667 18.8628 14.6667 18.8609 14.6667 18.8591C14.6667 18.8573 14.6667 18.8555 14.6667 18.8536C14.6667 18.8519 14.6667 18.85 14.6667 18.8481C14.6667 18.8464 14.6667 18.8445 14.6667 18.8428C14.6667 18.8409 14.6667 18.8391 14.6667 18.8373C14.6667 18.8355 14.6667 18.8337 14.6667 18.8319C14.6667 18.83 14.6667 18.8283 14.6667 18.8264C14.6667 18.8245 14.6667 18.8228 14.6667 18.8209C14.6667 18.8192 14.6667 18.8173 14.6667 18.8155C14.6667 18.8137 14.6667 18.8119 14.6667 18.8101C14.6667 18.8083 14.6667 18.8064 14.6667 18.8047C14.6667 18.8028 14.6667 18.8011 14.6667 18.7992C14.6667 18.7973 14.6667 18.7956 14.6667 18.7937C14.6667 18.792 14.6667 18.7901 14.6667 18.7883C14.6667 18.7865 14.6667 18.7847 14.6667 18.7829C14.6667 18.7811 14.6667 18.7792 14.6667 18.7775C14.6667 18.7756 14.6667 18.7739 14.6667 18.772C14.6667 18.7703 14.6667 18.7684 14.6667 18.7665C14.6667 18.7648 14.6667 18.7629 14.6667 18.7612C14.6667 18.7593 14.6667 18.7575 14.6667 18.7557C14.6667 18.7539 14.6667 18.7521 14.6667 18.7503C14.6667 18.7485 14.6667 18.7467 14.6667 18.7448C14.6667 18.7431 14.6667 18.7412 14.6667 18.7395C14.6667 18.7376 14.6667 18.7359 14.6667 18.734C14.6667 18.7323 14.6667 18.7304 14.6667 18.7285C14.6667 18.7268 14.6667 18.7249 14.6667 18.7232C14.6667 18.7213 14.6667 18.7196 14.6667 18.7177C14.6667 18.716 14.6667 18.7141 14.6667 18.7123C14.6667 18.7105 14.6667 18.7087 14.6667 18.7069C14.6667 18.7051 14.6667 18.7033 14.6667 18.7015C14.6667 18.6997 14.6667 18.6979 14.6667 18.6961C14.6667 18.6943 14.6667 18.6924 14.6667 18.6907C14.6667 18.6888 14.6667 18.6871 14.6667 18.6852C14.6667 18.6835 14.6667 18.6816 14.6667 18.6799C14.6667 18.678 14.6667 18.6763 14.6667 18.6744C14.6667 18.6727 14.6667 18.6708 14.6667 18.6691C14.6667 18.6672 14.6667 18.6655 14.6667 18.6636C14.6667 18.6617 14.6667 18.66 14.6667 18.6581C14.6667 18.6564 14.6667 18.6545 14.6667 18.6528C14.6667 18.6509 14.6667 18.6492 14.6667 18.6473C14.6667 18.6456 14.6667 18.6437 14.6667 18.642C14.6667 18.6401 14.6667 18.6384 14.6667 18.6365C14.6667 18.6348 14.6667 18.6329 14.6667 18.6312C14.6667 18.6293 14.6667 18.6276 14.6667 18.6257C14.6667 18.624 14.6667 18.6221 14.6667 18.6204C14.6667 18.6185 14.6667 18.6168 14.6667 18.6149C14.6667 18.6132 14.6667 18.6113 14.6667 18.6096C14.6667 18.6077 14.6667 18.606 14.6667 18.6041C14.6667 18.6024 14.6667 18.6005 14.6667 18.5988C14.6667 18.5969 14.6667 18.5952 14.6667 18.5935C14.6667 18.5916 14.6667 18.5899 14.6667 18.588C14.6667 18.5863 14.6667 18.5844 14.6667 18.5827C14.6667 18.5808 14.6667 18.5791 14.6667 18.5772C14.6667 18.5755 14.6667 18.5736 14.6667 18.5719C14.6667 18.57 14.6667 18.5683 14.6667 18.5664C14.6667 18.5647 14.6667 18.5629 14.6667 18.5611C14.6667 18.5593 14.6667 18.5575 14.6667 18.5557C14.6667 18.5539 14.6667 18.5521 14.6667 18.5503C14.6667 18.5485 14.6667 18.5467 14.6667 18.5449C14.6667 18.5432 14.6667 18.5413 14.6667 18.5396C14.6667 18.5377 14.6667 18.536 14.6667 18.5341C14.6667 18.5324 14.6667 18.5305 14.6667 18.5288C14.6667 18.5271 14.6667 18.5252 14.6667 18.5235C14.6667 18.5216 14.6667 18.5199 14.6667 18.518C14.6667 18.5163 14.6667 18.5144 14.6667 18.5127C14.6667 18.5109 14.6667 18.5091 14.6667 18.5073C14.6667 18.5055 14.6667 18.5037 14.6667 18.5019C14.6667 18.5001 14.6667 18.4984 14.6667 18.4965C14.6667 18.4948 14.6667 18.4929 14.6667 18.4912C14.6667 18.4895 14.6667 18.4876 14.6667 18.4859C14.6667 18.484 14.6667 18.4823 14.6667 18.4804C14.6667 18.4787 14.6667 18.4769 14.6667 18.4751C14.6667 18.4733 14.6667 18.4715 14.6667 18.4697C14.6667 18.468 14.6667 18.4661 14.6667 18.4644C14.6667 18.4625 14.6667 18.4608 14.6667 18.4591C14.6667 18.4572 14.6667 18.4555 14.6667 18.4536C14.6667 18.4519 14.6667 18.4501 14.6667 18.4483C14.6667 18.4465 14.6667 18.4448 14.6667 18.4429C14.6667 18.4412 14.6667 18.4393 14.6667 18.4376C14.6667 18.4359 14.6667 18.434 14.6667 18.4323C14.6667 18.4304 14.6667 18.4287 14.6667 18.4269C14.6667 18.4251 14.6667 18.4233 14.6667 18.4216C14.6667 18.4197 14.6667 18.418 14.6667 18.4161C14.6667 18.4144 14.6667 18.4127 14.6667 18.4108C14.6667 18.4091 14.6667 18.4073 14.6667 18.4055C14.6667 18.4037 14.6667 18.402 14.6667 18.4001C14.6667 18.3984 14.6667 18.3965 14.6667 18.3948C14.6667 18.3931 14.6667 18.3912 14.6667 18.3895C14.6667 18.3877 14.6667 18.3859 14.6667 18.3841C14.6667 18.3824 14.6667 18.3805 14.6667 18.3788C14.6667 18.3771 14.6667 18.3752 14.6667 18.3735C14.6667 18.3717 14.6667 18.3699 14.6667 18.3681C14.6667 18.3663 14.6667 18.3645 14.6667 18.3628C14.6667 18.3609 14.6667 18.3592 14.6667 18.3575C14.6667 18.3556 14.6667 18.3539 14.6667 18.3521C14.6667 18.3503 14.6667 18.3485 14.6667 18.3468C14.6667 18.3451 14.6667 18.3432 14.6667 18.3415C14.6667 18.3397 14.6667 18.3379 14.6667 18.3361C14.6667 18.3344 14.6667 18.3325 14.6667 18.3308C14.6667 18.3291 14.6667 18.3272 14.6667 18.3255C14.6667 18.3237 14.6667 18.3219 14.6667 18.3201C14.6667 18.3184 14.6667 18.3165 14.6667 18.3148C14.6667 18.3131 14.6667 18.3113 14.6667 18.3095C14.6667 18.3077 14.6667 18.306 14.6667 18.3041C14.6667 18.3024 14.6667 18.3007 14.6667 18.2988C14.6667 18.2971 14.6667 18.2953 14.6667 18.2936C14.6667 18.2917 14.6667 18.29 14.6667 18.2883C14.6667 18.2864 14.6667 18.2847 14.6667 18.2829C14.6667 18.2812 14.6667 18.2793 14.6667 18.2776C14.6667 18.2759 14.6667 18.274 14.6667 18.2723C14.6667 18.2705 14.6667 18.2688 14.6667 18.2669C14.6667 18.2652 14.6667 18.2635 14.6667 18.2616C14.6667 18.2599 14.6667 18.2581 14.6667 18.2564C14.6667 18.2545 14.6667 18.2528 14.6667 18.2511C14.6667 18.2493 14.6667 18.2475 14.6667 18.2457C14.6667 18.244 14.6667 18.2423 14.6667 18.2404C14.6667 18.2387 14.6667 18.2369 14.6667 18.2352C14.6667 18.2333 14.6667 18.2316 14.6667 18.2299C14.6667 18.2281 14.6667 18.2263 14.6667 18.2245C14.6667 18.2228 14.6667 18.2211 14.6667 18.2192C14.6667 18.2175 14.6667 18.2157 14.6667 18.214C14.6667 18.2121 14.6667 18.2104 14.6667 18.2087C14.6667 18.2069 14.6667 18.2051 14.6667 18.2033C14.6667 18.2016 14.6667 18.1999 14.6667 18.198C14.6667 18.1963 14.6667 18.1945 14.6667 18.1928C14.6667 18.1911 14.6667 18.1892 14.6667 18.1875C14.6667 18.1857 14.6667 18.184 14.6667 18.1821C14.6667 18.1804 14.6667 18.1787 14.6667 18.1769C14.6667 18.1752 14.6667 18.1733 14.6667 18.1716C14.6667 18.1699 14.6667 18.1681 14.6667 18.1664C14.6667 18.1645 14.6667 18.1628 14.6667 18.1611C14.6667 18.1593 14.6667 18.1576 14.6667 18.1557C14.6667 18.154 14.6667 18.1523 14.6667 18.1505C14.6667 18.1488 14.6667 18.1469 14.6667 18.1452C14.6667 18.1435 14.6667 18.1417 14.6667 18.14C14.6667 18.1381 14.6667 18.1364 14.6667 18.1347C14.6667 18.1329 14.6667 18.1312 14.6667 18.1293C14.6667 18.1276 14.6667 18.1259 14.6667 18.1241C14.6667 18.1224 14.6667 18.1207 14.6667 18.1188C14.6667 18.1171 14.6667 18.1153 14.6667 18.1136C14.6667 18.1119 14.6667 18.1101 14.6667 18.1083C14.6667 18.1065 14.6667 18.1048 14.6667 18.1031C14.6667 18.1013 14.6667 18.0996 14.6667 18.0977C14.6667 18.096 14.6667 18.0943 14.6667 18.0925C14.6667 18.0908 14.6667 18.0891 14.6667 18.0872C14.6667 18.0855 14.6667 18.0837 14.6667 18.082C14.6667 18.0803 14.6667 18.0785 14.6667 18.0768C14.6667 18.0749 14.6667 18.0732 14.6667 18.0715C14.6667 18.0697 14.6667 18.068 14.6667 18.0663C14.6667 18.0645 14.6667 18.0627 14.6667 18.0609C14.6667 18.0592 14.6667 18.0575 14.6667 18.0557C14.6667 18.054 14.6667 18.0523 14.6667 18.0504C14.6667 18.0487 14.6667 18.0469 14.6667 18.0452C14.6667 18.0435 14.6667 18.0417 14.6667 18.04C14.6667 18.0383 14.6667 18.0364 14.6667 18.0347C14.6667 18.0329 14.6667 18.0312 14.6667 18.0295C14.6667 18.0277 14.6667 18.026 14.6667 18.0243C14.6667 18.0225 14.6667 18.0207 14.6667 18.0189C14.6667 18.0172 14.6667 18.0155 14.6667 18.0137C14.6667 18.012 14.6667 18.0103 14.6667 18.0085C14.6667 18.0068 14.6667 18.0051 14.6667 18.0032C14.6667 18.0015 14.6667 17.9997 14.6667 17.998C14.6667 17.9963 14.6667 17.9945 14.6667 17.9928C14.6667 17.9911 14.6667 17.9893 14.6667 17.9876C14.6667 17.9859 14.6667 17.984 14.6667 17.9823C14.6667 17.9805 14.6667 17.9788 14.6667 17.9771C14.6667 17.9753 14.6667 17.9736 14.6667 17.9719C14.6667 17.9701 14.6667 17.9684 14.6667 17.9667C14.6667 17.9649 14.6667 17.9632 14.6667 17.9615C14.6667 17.9596 14.6667 17.9579 14.6667 17.9561C14.6667 17.9544 14.6667 17.9527 14.6667 17.9509C14.6667 17.9492 14.6667 17.9475 14.6667 17.9457C14.6667 17.944 14.6667 17.9423 14.6667 17.9405C14.6667 17.9388 14.6667 17.9371 14.6667 17.9353C14.6667 17.9336 14.6667 17.9319 14.6667 17.9301C14.6667 17.9283 14.6667 17.9265 14.6667 17.9248C14.6667 17.9231 14.6667 17.9213 14.6667 17.9196C14.6667 17.9179 14.6667 17.9161 14.6667 17.9144C14.6667 17.9127 14.6667 17.9109 14.6667 17.9092C14.6667 17.9075 14.6667 17.9057 14.6667 17.904C14.6667 17.9023 14.6667 17.9005 14.6667 17.8988C14.6667 17.8971 14.6667 17.8953 14.6667 17.8936C14.6667 17.8919 14.6667 17.8901 14.6667 17.8884C14.6667 17.8867 14.6667 17.8849 14.6667 17.8832C14.6667 17.8815 14.6667 17.8797 14.6667 17.878C14.6667 17.8763 14.6667 17.8745 14.6667 17.8728C14.6667 17.8711 14.6667 17.8693 14.6667 17.8676C14.6667 17.8659 14.6667 17.8641 14.6667 17.8624C14.6667 17.8607 14.6667 17.8589 14.6667 17.8572C14.6667 17.8555 14.6667 17.8537 14.6667 17.852C14.6667 17.8503 14.6667 17.8485 14.6667 17.8468C14.6667 17.8451 14.6667 17.8433 14.6667 17.8416C14.6667 17.8399 14.6667 17.8381 14.6667 17.8364C14.6667 17.8347 14.6667 17.8329 14.6667 17.8312C14.6667 17.8295 14.6667 17.8277 14.6667 17.826C14.6667 17.8243 14.6667 17.8225 14.6667 17.8208C14.6667 17.8191 14.6667 17.8173 14.6667 17.8156C14.6667 17.8139 14.6667 17.8123 14.6667 17.8105C14.6667 17.8088 14.6667 17.8071 14.6667 17.8053C14.6667 17.8036 14.6667 17.8019 14.6667 17.8001C14.6667 17.7984 14.6667 17.7967 14.6667 17.7949C14.6667 17.7932 14.6667 17.7915 14.6667 17.7897C14.6667 17.788 14.6667 17.7863 14.6667 17.7845C14.6667 17.7828 14.6667 17.7812 14.6667 17.7795C14.6667 17.7777 14.6667 17.776 14.6667 17.7743C14.6667 17.7725 14.6667 17.7708 14.6667 17.7691C14.6667 17.7673 14.6667 17.7656 14.6667 17.7639C14.6667 17.7621 14.6667 17.7604 14.6667 17.7587C14.6667 17.7571 14.6667 17.7553 14.6667 17.7536C14.6667 17.7519 14.6667 17.7501 14.6667 17.7484C14.6667 17.7467 14.6667 17.7449 14.6667 17.7432C14.6667 17.7415 14.6667 17.7397 14.6667 17.7381C14.6667 17.7364 14.6667 17.7347 14.6667 17.7329C14.6667 17.7312 14.6667 17.7295 14.6667 17.7277C14.6667 17.726 14.6667 17.7243 14.6667 17.7227C14.6667 17.7209 14.6667 17.7192 14.6667 17.7175C14.6667 17.7157 14.6667 17.714 14.6667 17.7123C14.6667 17.7105 14.6667 17.7088 14.6667 17.7072C14.6667 17.7055 14.6667 17.7037 14.6667 17.702C14.6667 17.7003 14.6667 17.6985 14.6667 17.6968C14.6667 17.6951 14.6667 17.6935 14.6667 17.6917C14.6667 17.69 14.6667 17.6883 14.6667 17.6865C14.6667 17.6848 14.6667 17.6831 14.6667 17.6815C14.6667 17.6797 14.6667 17.678 14.6667 17.6763C14.6667 17.6745 14.6667 17.6728 14.6667 17.6711C14.6667 17.6695 14.6667 17.6677 14.6667 17.666C14.6667 17.6643 14.6667 17.6625 14.6667 17.6608C14.6667 17.6592 14.6667 17.6575 14.6667 17.6557C14.6667 17.654 14.6667 17.6523 14.6667 17.6505C14.6667 17.6489 14.6667 17.6472 14.6667 17.6455C14.6667 17.6437 14.6667 17.642 14.6667 17.6403C14.6667 17.6387 14.6667 17.6369 14.6667 17.6352C14.6667 17.6335 14.6667 17.6317 14.6667 17.63C14.6667 17.6284 14.6667 17.6267 14.6667 17.6249C14.6667 17.6232 14.6667 17.6215 14.6667 17.6199C14.6667 17.6181 14.6667 17.6164 14.6667 17.6147C14.6667 17.6129 14.6667 17.6113 14.6667 17.6096C14.6667 17.6079 14.6667 17.6061 14.6667 17.6044C14.6667 17.6028 14.6667 17.6011 14.6667 17.5993C14.6667 17.5976 14.6667 17.5959 14.6667 17.5943C14.6667 17.5925 14.6667 17.5908 14.6667 17.5891C14.6667 17.5873 14.6667 17.5857 14.6667 17.584C14.6667 17.5823 14.6667 17.5805 14.6667 17.5789C14.6667 17.5772 14.6667 17.5755 14.6667 17.5737C14.6667 17.572 14.6667 17.5704 14.6667 17.5687C14.6667 17.5669 14.6667 17.5652 14.6667 17.5636C14.6667 17.5619 14.6667 17.5601 14.6667 17.5584C14.6667 17.5568 14.6667 17.5551 14.6667 17.5533C14.6667 17.5516 14.6667 17.5499 14.6667 17.5483C14.6667 17.5465 14.6667 17.5448 14.6667 17.5431C14.6667 17.5415 14.6667 17.5397 14.6667 17.538C14.6667 17.5364 14.6667 17.5347 14.6667 17.5329C14.6667 17.5312 14.6667 17.5296 14.6667 17.5279C14.6667 17.5261 14.6667 17.5244 14.6667 17.5228C14.6667 17.5211 14.6667 17.5193 14.6667 17.5176C14.6667 17.516 14.6667 17.5143 14.6667 17.5125C14.6667 17.5109 14.6667 17.5092 14.6667 17.5075C14.6667 17.5057 14.6667 17.5041 14.6667 17.5024C14.6667 17.5007 14.6667 17.4989 14.6667 17.4973C14.6667 17.4956 14.6667 17.4939 14.6667 17.4923C14.6667 17.4905 14.6667 17.4888 14.6667 17.4872C14.6667 17.4855 14.6667 17.4837 14.6667 17.482C14.6667 17.4804 14.6667 17.4787 14.6667 17.4769C14.6667 17.4753 14.6667 17.4736 14.6667 17.4719C14.6667 17.4703 14.6667 17.4685 14.6667 17.4668C14.6667 17.4651 14.6667 17.4635 14.6667 17.4617C14.6667 17.46 14.6667 17.4584 14.6667 17.4567C14.6667 17.4549 14.6667 17.4533 14.6667 17.4516C14.6667 17.4499 14.6667 17.4483 14.6667 17.4465C14.6667 17.4448 14.6667 17.4432 14.6667 17.4415C14.6667 17.4397 14.6667 17.4381 14.6667 17.4364C14.6667 17.4347 14.6667 17.4331 14.6667 17.4313C14.6667 17.4296 14.6667 17.428 14.6667 17.4263C14.6667 17.4245 14.6667 17.4229 14.6667 17.4212C14.6667 17.4195 14.6667 17.4179 14.6667 17.4161C14.6667 17.4145 14.6667 17.4128 14.6667 17.4111C14.6667 17.4095 14.6667 17.4077 14.6667 17.406C14.6667 17.4044 14.6667 17.4027 14.6667 17.4009C14.6667 17.3993 14.6667 17.3976 14.6667 17.396C14.6667 17.3943 14.6667 17.3925 14.6667 17.3909C14.6667 17.3892 14.6667 17.3875 14.6667 17.3859C14.6667 17.3841 14.6667 17.3825 14.6667 17.3808C14.6667 17.3791 14.6667 17.3775 14.6667 17.3757C14.6667 17.374 14.6667 17.3724 14.6667 17.3707C14.6667 17.3691 14.6667 17.3673 14.6667 17.3656C14.6667 17.364 14.6667 17.3623 14.6667 17.3607C14.6667 17.3589 14.6667 17.3572 14.6667 17.3556C14.6667 17.3539 14.6667 17.3523 14.6667 17.3505C14.6667 17.3489 14.6667 17.3472 14.6667 17.3455C14.6667 17.3439 14.6667 17.3421 14.6667 17.3405C14.6667 17.3388 14.6667 17.3371 14.6667 17.3355C14.6667 17.3337 14.6667 17.3321 14.6667 17.3304C14.6667 17.3288 14.6667 17.3271 14.6667 17.3253C14.6667 17.3237 14.6667 17.322 14.6667 17.3204C14.6667 17.3187 14.6667 17.3171 14.6667 17.3153C14.6667 17.3136 14.6667 17.312 14.6667 17.3103C14.6667 17.3087 14.6667 17.3069 14.6667 17.3053C14.6667 17.3036 14.6667 17.302 14.6667 17.3003C14.6667 17.2985 14.6667 17.2969 14.6667 17.2952C14.6667 17.2936 14.6667 17.2919 14.6667 17.2903C14.6667 17.2885 14.6667 17.2869 14.6667 17.2852C14.6667 17.2836 14.6667 17.2819 14.6667 17.2803C14.6667 17.2785 14.6667 17.2768 14.6667 17.2752C14.6667 17.2735 14.6667 17.2719 14.6667 17.2701C14.6667 17.2685 14.6667 17.2668 14.6667 17.2652C14.6667 17.2635 14.6667 17.2619 14.6667 17.2601C14.6667 17.2585 14.6667 17.2568 14.6667 17.2552C14.6667 17.2535 14.6667 17.2519 14.6667 17.2501C14.6667 17.2485 14.6667 17.2468 14.6667 17.2452C14.6667 17.2435 14.6667 17.2419 14.6667 17.2401C14.6667 17.2385 14.6667 17.2368 14.6667 17.2352C14.6667 17.2335 14.6667 17.2319 14.6667 17.2301C14.6667 17.2285 14.6667 17.2268 14.6667 17.2252C14.6667 17.2235 14.6667 17.2219 14.6667 17.2201C14.6667 17.2185 14.6667 17.2168 14.6667 17.2152C14.6667 17.2135 14.6667 17.2119 14.6667 17.2103C14.6667 17.2085 14.6667 17.2069 14.6667 17.2052C14.6667 17.2036 14.6667 17.2019 14.6667 17.2003C14.6667 17.1985 14.6667 17.1969 14.6667 17.1952C14.6667 17.1936 14.6667 17.1919 14.6667 17.1903C14.6667 17.1887 14.6667 17.1869 14.6667 17.1853C14.6667 17.1836 14.6667 17.182 14.6667 17.1803C14.6667 17.1787 14.6667 17.1769 14.6667 17.1753C14.6667 17.1737 14.6667 17.172 14.6667 17.1704C14.6667 17.1687 14.6667 17.1671 14.6667 17.1653C14.6667 17.1637 14.6667 17.1621 14.6667 17.1604C14.6667 17.1588 14.6667 17.1571 14.6667 17.1555C14.6667 17.1537 14.6667 17.1521 14.6667 17.1505C14.6667 17.1488 14.6667 17.1472 14.6667 17.1455C14.6667 17.1439 14.6667 17.1423 14.6667 17.1405C14.6667 17.1389 14.6667 17.1372 14.6667 17.1356C14.6667 17.1339 14.6667 17.1323 14.6667 17.1307C14.6667 17.1289 14.6667 17.1273 14.6667 17.1257C14.6667 17.124 14.6667 17.1224 14.6667 17.1207C14.6667 17.1191 14.6667 17.1175 14.6667 17.1157C14.6667 17.1141 14.6667 17.1124 14.6667 17.1108C14.6667 17.1092 14.6667 17.1075 14.6667 17.1059C14.6667 17.1043 14.6667 17.1025 14.6667 17.1009C14.6667 17.0992 14.6667 17.0976 14.6667 17.096C14.6667 17.0943 14.6667 17.0927 14.6667 17.0911C14.6667 17.0893 14.6667 17.0877 14.6667 17.086C14.6667 17.0844 14.6667 17.0828 14.6667 17.0811C14.6667 17.0795 14.6667 17.0779 14.6667 17.0761C14.6667 17.0745 14.6667 17.0729 14.6667 17.0712C14.6667 17.0696 14.6667 17.068 14.6667 17.0663C14.6667 17.0647 14.6667 17.0631 14.6667 17.0613C14.6667 17.0597 14.6667 17.0581 14.6667 17.0564C14.6667 17.0548 14.6667 17.0532 14.6667 17.0515C14.6667 17.0499 14.6667 17.0483 14.6667 17.0465C14.6667 17.0449 14.6667 17.0433 14.6667 17.0416C14.6667 17.04 14.6667 17.0384 14.6667 17.0367C14.6667 17.0351 14.6667 17.0335 14.6667 17.0317C14.6667 17.0301 14.6667 17.0285 14.6667 17.0269C14.6667 17.0252 14.6667 17.0236 14.6667 17.022C14.6667 17.0203 14.6667 17.0187 14.6667 17.0171C14.6667 17.0153 14.6667 17.0137 14.6667 17.0121C14.6667 17.0105 14.6667 17.0088 14.6667 17.0072C14.6667 17.0056 14.6667 17.0039 14.6667 17.0023C14.6667 17.0007 14.6667 16.9991 14.6667 16.9973C14.6667 16.9957 14.6667 16.9941 14.6667 16.9924C14.6667 16.9908 14.6667 16.9892 14.6667 16.9876C14.6667 16.9859 14.6667 16.9843 14.6667 16.9827C14.6667 16.9811 14.6667 16.9793 14.6667 16.9777C14.6667 16.9761 14.6667 16.9745 14.6667 16.9728C14.6667 16.9712 14.6667 16.9696 14.6667 16.968C14.6667 16.9663 14.6667 16.9647 14.6667 16.9631C14.6667 16.9615 14.6667 16.9597 14.6667 16.9581C14.6667 16.9565 14.6667 16.9549 14.6667 16.9532C14.6667 16.9516 14.6667 16.95 14.6667 16.9484C14.6667 16.9467 14.6667 16.9451 14.6667 16.9435C14.6667 16.9419 14.6667 16.9403 14.6667 16.9385C14.6667 16.9369 14.6667 16.9353 14.6667 16.9337C14.6667 16.932 14.6667 16.9304 14.6667 16.9288C14.6667 16.9272 14.6667 16.9256 14.6667 16.9239C14.6667 16.9223 14.6667 16.9207 14.6667 16.9191C14.6667 16.9175 14.6667 16.9157 14.6667 16.9141C14.6667 16.9125 14.6667 16.9109 14.6667 16.9093C14.6667 16.9076 14.6667 16.906 14.6667 16.9044C14.6667 16.9028 14.6667 16.9012 14.6667 16.8995C14.6667 16.8979 14.6667 16.8963 14.6667 16.8947C14.6667 16.8931 14.6667 16.8913 14.6667 16.8897C14.6667 16.8881 14.6667 16.8865 14.6667 16.8849C14.6667 16.8833 14.6667 16.8816 14.6667 16.88C14.6667 16.8784 14.6667 16.8768 14.6667 16.8752C14.6667 16.8736 14.6667 16.8719 14.6667 16.8703C14.6667 16.8687 14.6667 16.8671 14.6667 16.8655C14.6667 16.8639 14.6667 16.8623 14.6667 16.8605C14.6667 16.8589 14.6667 16.8573 14.6667 16.8557C14.6667 16.8541 14.6667 16.8525 14.6667 16.8509C14.6667 16.8492 14.6667 16.8476 14.6667 16.846C14.6667 16.8444 14.6667 16.8428 14.6667 16.8412C14.6667 16.8396 14.6667 16.8379 14.6667 16.8363C14.6667 16.8347 14.6667 16.8331 14.6667 16.8315C14.6667 16.8299 14.6667 16.8283 14.6667 16.8267C14.6667 16.8251 14.6667 16.8233 14.6667 16.8217C14.6667 16.8201 14.6667 16.8185 14.6667 16.8169C14.6667 16.8153 14.6667 16.8137 14.6667 16.8121C14.6667 16.8105 14.6667 16.8088 14.6667 16.8072C14.6667 16.8056 14.6667 16.804 14.6667 16.8024C14.6667 16.8008 14.6667 16.7992 14.6667 16.7976C14.6667 16.796 14.6667 16.7944 14.6667 16.7928C14.6667 16.7911 14.6667 16.7895 14.6667 16.7879C14.6667 16.7863 14.6667 16.7847 14.6667 16.7831C14.6667 16.7815 14.6667 16.7799 14.6667 16.7783C14.6667 16.7767 14.6667 16.7751 14.6667 16.7735C14.6667 16.7719 14.6667 16.7703 14.6667 16.7685C14.6667 16.7669 14.6667 16.7653 14.6667 16.7637C14.6667 16.7621 14.6667 16.7605 14.6667 16.7589C14.6667 16.7573 14.6667 16.7557 14.6667 16.7541C14.6667 16.7525 14.6667 16.7509 14.6667 16.7493C14.6667 16.7477 14.6667 16.7461 14.6667 16.7445C14.6667 16.7429 14.6667 16.7413 14.6667 16.7397C14.6667 16.7381 14.6667 16.7365 14.6667 16.7349C14.6667 16.7333 14.6667 16.7317 14.6667 16.7301C14.6667 16.7285 14.6667 16.7269 14.6667 16.7253C14.6667 16.7236 14.6667 16.722 14.6667 16.7204C14.6667 16.7188 14.6667 16.7172 14.6667 16.7156C14.6667 16.714 14.6667 16.7124 14.6667 16.7108C14.6667 16.7092 14.6667 16.7076 14.6667 16.706C14.6667 16.7044 14.6667 16.7028 14.6667 16.7012C14.6667 16.6996 14.6667 16.698 14.6667 16.6964C14.6667 16.6949 14.6667 16.6933 14.6667 16.6917C14.6667 16.6901 14.6667 16.6885 14.6667 16.6869C14.6667 16.6853 14.6667 16.6837 14.6667 16.6821C14.6667 16.6805 14.6667 16.6789 14.6667 16.6773C14.6667 16.6757 14.6667 16.6741 14.6667 16.6725C14.6667 16.6709 14.6667 16.6693 14.6667 16.6677C14.6667 16.6661 14.6667 16.6645 14.6667 16.6629C14.6667 16.6613 14.6667 16.6597 14.6667 16.6581H13.3333ZM10 13.3255C11.8411 13.3255 13.3333 14.8173 13.3333 16.6581H14.6667C14.6667 14.0807 12.5772 11.9922 10 11.9922V13.3255ZM1.33333 16.6581C1.33333 14.8173 2.82557 13.3255 4.66667 13.3255V11.9922C2.08948 11.9922 0 14.0807 0 16.6581H1.33333ZM18.6667 17.3333V19.3333H20V17.3333H18.6667ZM19.3333 18.6667H16V20H19.3333V18.6667ZM16 14.6667C17.4728 14.6667 18.6667 15.8605 18.6667 17.3333H20C20 15.1241 18.2092 13.3333 16 13.3333V14.6667ZM15.3333 10.6667C14.2288 10.6667 13.3333 9.77124 13.3333 8.66667H12C12 10.5076 13.4924 12 15.3333 12V10.6667ZM17.3333 8.66667C17.3333 9.77124 16.4379 10.6667 15.3333 10.6667V12C17.1743 12 18.6667 10.5076 18.6667 8.66667H17.3333ZM15.3333 6.66667C16.4379 6.66667 17.3333 7.56209 17.3333 8.66667H18.6667C18.6667 6.82572 17.1743 5.33333 15.3333 5.33333V6.66667ZM15.3333 5.33333C13.4924 5.33333 12 6.82572 12 8.66667H13.3333C13.3333 7.56209 14.2288 6.66667 15.3333 6.66667V5.33333Z" fill="#C5C5C5"/>
</svg>
